G75*
G70*
%OFA0B0*%
%FSLAX24Y24*%
%IPPOS*%
%LPD*%
%AMOC8*
5,1,8,0,0,1.08239X$1,22.5*
%
%ADD10C,0.0000*%
%ADD11R,0.0394X0.0087*%
%ADD12R,0.0087X0.0394*%
%ADD13R,0.0512X0.0630*%
%ADD14R,0.0709X0.0630*%
%ADD15R,0.0630X0.0512*%
%ADD16R,0.0630X0.0710*%
%ADD17R,0.0236X0.0866*%
%ADD18R,0.0787X0.0591*%
%ADD19R,0.0787X0.1496*%
%ADD20R,0.0138X0.0315*%
%ADD21R,0.0710X0.0630*%
%ADD22R,0.0512X0.0591*%
%ADD23R,0.0500X0.0220*%
%ADD24R,0.0220X0.0500*%
%ADD25R,0.0760X0.2100*%
%ADD26R,0.0630X0.0460*%
%ADD27R,0.0591X0.0591*%
%ADD28R,0.0630X0.0866*%
%ADD29R,0.0591X0.0512*%
%ADD30R,0.0866X0.0236*%
%ADD31R,0.0460X0.0630*%
D10*
X010361Y010361D02*
X010361Y042357D01*
X049731Y042357D01*
X049731Y010361D01*
X010361Y010361D01*
X010967Y011361D02*
X010969Y011400D01*
X010975Y011439D01*
X010985Y011477D01*
X010998Y011514D01*
X011015Y011549D01*
X011035Y011583D01*
X011059Y011614D01*
X011086Y011643D01*
X011115Y011669D01*
X011147Y011692D01*
X011181Y011712D01*
X011217Y011728D01*
X011254Y011740D01*
X011293Y011749D01*
X011332Y011754D01*
X011371Y011755D01*
X011410Y011752D01*
X011449Y011745D01*
X011486Y011734D01*
X011523Y011720D01*
X011558Y011702D01*
X011591Y011681D01*
X011622Y011656D01*
X011650Y011629D01*
X011675Y011599D01*
X011697Y011566D01*
X011716Y011532D01*
X011731Y011496D01*
X011743Y011458D01*
X011751Y011420D01*
X011755Y011381D01*
X011755Y011341D01*
X011751Y011302D01*
X011743Y011264D01*
X011731Y011226D01*
X011716Y011190D01*
X011697Y011156D01*
X011675Y011123D01*
X011650Y011093D01*
X011622Y011066D01*
X011591Y011041D01*
X011558Y011020D01*
X011523Y011002D01*
X011486Y010988D01*
X011449Y010977D01*
X011410Y010970D01*
X011371Y010967D01*
X011332Y010968D01*
X011293Y010973D01*
X011254Y010982D01*
X011217Y010994D01*
X011181Y011010D01*
X011147Y011030D01*
X011115Y011053D01*
X011086Y011079D01*
X011059Y011108D01*
X011035Y011139D01*
X011015Y011173D01*
X010998Y011208D01*
X010985Y011245D01*
X010975Y011283D01*
X010969Y011322D01*
X010967Y011361D01*
X010967Y015361D02*
X010969Y015400D01*
X010975Y015439D01*
X010985Y015477D01*
X010998Y015514D01*
X011015Y015549D01*
X011035Y015583D01*
X011059Y015614D01*
X011086Y015643D01*
X011115Y015669D01*
X011147Y015692D01*
X011181Y015712D01*
X011217Y015728D01*
X011254Y015740D01*
X011293Y015749D01*
X011332Y015754D01*
X011371Y015755D01*
X011410Y015752D01*
X011449Y015745D01*
X011486Y015734D01*
X011523Y015720D01*
X011558Y015702D01*
X011591Y015681D01*
X011622Y015656D01*
X011650Y015629D01*
X011675Y015599D01*
X011697Y015566D01*
X011716Y015532D01*
X011731Y015496D01*
X011743Y015458D01*
X011751Y015420D01*
X011755Y015381D01*
X011755Y015341D01*
X011751Y015302D01*
X011743Y015264D01*
X011731Y015226D01*
X011716Y015190D01*
X011697Y015156D01*
X011675Y015123D01*
X011650Y015093D01*
X011622Y015066D01*
X011591Y015041D01*
X011558Y015020D01*
X011523Y015002D01*
X011486Y014988D01*
X011449Y014977D01*
X011410Y014970D01*
X011371Y014967D01*
X011332Y014968D01*
X011293Y014973D01*
X011254Y014982D01*
X011217Y014994D01*
X011181Y015010D01*
X011147Y015030D01*
X011115Y015053D01*
X011086Y015079D01*
X011059Y015108D01*
X011035Y015139D01*
X011015Y015173D01*
X010998Y015208D01*
X010985Y015245D01*
X010975Y015283D01*
X010969Y015322D01*
X010967Y015361D01*
X010967Y017861D02*
X010969Y017900D01*
X010975Y017939D01*
X010985Y017977D01*
X010998Y018014D01*
X011015Y018049D01*
X011035Y018083D01*
X011059Y018114D01*
X011086Y018143D01*
X011115Y018169D01*
X011147Y018192D01*
X011181Y018212D01*
X011217Y018228D01*
X011254Y018240D01*
X011293Y018249D01*
X011332Y018254D01*
X011371Y018255D01*
X011410Y018252D01*
X011449Y018245D01*
X011486Y018234D01*
X011523Y018220D01*
X011558Y018202D01*
X011591Y018181D01*
X011622Y018156D01*
X011650Y018129D01*
X011675Y018099D01*
X011697Y018066D01*
X011716Y018032D01*
X011731Y017996D01*
X011743Y017958D01*
X011751Y017920D01*
X011755Y017881D01*
X011755Y017841D01*
X011751Y017802D01*
X011743Y017764D01*
X011731Y017726D01*
X011716Y017690D01*
X011697Y017656D01*
X011675Y017623D01*
X011650Y017593D01*
X011622Y017566D01*
X011591Y017541D01*
X011558Y017520D01*
X011523Y017502D01*
X011486Y017488D01*
X011449Y017477D01*
X011410Y017470D01*
X011371Y017467D01*
X011332Y017468D01*
X011293Y017473D01*
X011254Y017482D01*
X011217Y017494D01*
X011181Y017510D01*
X011147Y017530D01*
X011115Y017553D01*
X011086Y017579D01*
X011059Y017608D01*
X011035Y017639D01*
X011015Y017673D01*
X010998Y017708D01*
X010985Y017745D01*
X010975Y017783D01*
X010969Y017822D01*
X010967Y017861D01*
X010967Y021861D02*
X010969Y021900D01*
X010975Y021939D01*
X010985Y021977D01*
X010998Y022014D01*
X011015Y022049D01*
X011035Y022083D01*
X011059Y022114D01*
X011086Y022143D01*
X011115Y022169D01*
X011147Y022192D01*
X011181Y022212D01*
X011217Y022228D01*
X011254Y022240D01*
X011293Y022249D01*
X011332Y022254D01*
X011371Y022255D01*
X011410Y022252D01*
X011449Y022245D01*
X011486Y022234D01*
X011523Y022220D01*
X011558Y022202D01*
X011591Y022181D01*
X011622Y022156D01*
X011650Y022129D01*
X011675Y022099D01*
X011697Y022066D01*
X011716Y022032D01*
X011731Y021996D01*
X011743Y021958D01*
X011751Y021920D01*
X011755Y021881D01*
X011755Y021841D01*
X011751Y021802D01*
X011743Y021764D01*
X011731Y021726D01*
X011716Y021690D01*
X011697Y021656D01*
X011675Y021623D01*
X011650Y021593D01*
X011622Y021566D01*
X011591Y021541D01*
X011558Y021520D01*
X011523Y021502D01*
X011486Y021488D01*
X011449Y021477D01*
X011410Y021470D01*
X011371Y021467D01*
X011332Y021468D01*
X011293Y021473D01*
X011254Y021482D01*
X011217Y021494D01*
X011181Y021510D01*
X011147Y021530D01*
X011115Y021553D01*
X011086Y021579D01*
X011059Y021608D01*
X011035Y021639D01*
X011015Y021673D01*
X010998Y021708D01*
X010985Y021745D01*
X010975Y021783D01*
X010969Y021822D01*
X010967Y021861D01*
X010967Y024111D02*
X010969Y024150D01*
X010975Y024189D01*
X010985Y024227D01*
X010998Y024264D01*
X011015Y024299D01*
X011035Y024333D01*
X011059Y024364D01*
X011086Y024393D01*
X011115Y024419D01*
X011147Y024442D01*
X011181Y024462D01*
X011217Y024478D01*
X011254Y024490D01*
X011293Y024499D01*
X011332Y024504D01*
X011371Y024505D01*
X011410Y024502D01*
X011449Y024495D01*
X011486Y024484D01*
X011523Y024470D01*
X011558Y024452D01*
X011591Y024431D01*
X011622Y024406D01*
X011650Y024379D01*
X011675Y024349D01*
X011697Y024316D01*
X011716Y024282D01*
X011731Y024246D01*
X011743Y024208D01*
X011751Y024170D01*
X011755Y024131D01*
X011755Y024091D01*
X011751Y024052D01*
X011743Y024014D01*
X011731Y023976D01*
X011716Y023940D01*
X011697Y023906D01*
X011675Y023873D01*
X011650Y023843D01*
X011622Y023816D01*
X011591Y023791D01*
X011558Y023770D01*
X011523Y023752D01*
X011486Y023738D01*
X011449Y023727D01*
X011410Y023720D01*
X011371Y023717D01*
X011332Y023718D01*
X011293Y023723D01*
X011254Y023732D01*
X011217Y023744D01*
X011181Y023760D01*
X011147Y023780D01*
X011115Y023803D01*
X011086Y023829D01*
X011059Y023858D01*
X011035Y023889D01*
X011015Y023923D01*
X010998Y023958D01*
X010985Y023995D01*
X010975Y024033D01*
X010969Y024072D01*
X010967Y024111D01*
X010967Y028111D02*
X010969Y028150D01*
X010975Y028189D01*
X010985Y028227D01*
X010998Y028264D01*
X011015Y028299D01*
X011035Y028333D01*
X011059Y028364D01*
X011086Y028393D01*
X011115Y028419D01*
X011147Y028442D01*
X011181Y028462D01*
X011217Y028478D01*
X011254Y028490D01*
X011293Y028499D01*
X011332Y028504D01*
X011371Y028505D01*
X011410Y028502D01*
X011449Y028495D01*
X011486Y028484D01*
X011523Y028470D01*
X011558Y028452D01*
X011591Y028431D01*
X011622Y028406D01*
X011650Y028379D01*
X011675Y028349D01*
X011697Y028316D01*
X011716Y028282D01*
X011731Y028246D01*
X011743Y028208D01*
X011751Y028170D01*
X011755Y028131D01*
X011755Y028091D01*
X011751Y028052D01*
X011743Y028014D01*
X011731Y027976D01*
X011716Y027940D01*
X011697Y027906D01*
X011675Y027873D01*
X011650Y027843D01*
X011622Y027816D01*
X011591Y027791D01*
X011558Y027770D01*
X011523Y027752D01*
X011486Y027738D01*
X011449Y027727D01*
X011410Y027720D01*
X011371Y027717D01*
X011332Y027718D01*
X011293Y027723D01*
X011254Y027732D01*
X011217Y027744D01*
X011181Y027760D01*
X011147Y027780D01*
X011115Y027803D01*
X011086Y027829D01*
X011059Y027858D01*
X011035Y027889D01*
X011015Y027923D01*
X010998Y027958D01*
X010985Y027995D01*
X010975Y028033D01*
X010969Y028072D01*
X010967Y028111D01*
X010967Y030611D02*
X010969Y030650D01*
X010975Y030689D01*
X010985Y030727D01*
X010998Y030764D01*
X011015Y030799D01*
X011035Y030833D01*
X011059Y030864D01*
X011086Y030893D01*
X011115Y030919D01*
X011147Y030942D01*
X011181Y030962D01*
X011217Y030978D01*
X011254Y030990D01*
X011293Y030999D01*
X011332Y031004D01*
X011371Y031005D01*
X011410Y031002D01*
X011449Y030995D01*
X011486Y030984D01*
X011523Y030970D01*
X011558Y030952D01*
X011591Y030931D01*
X011622Y030906D01*
X011650Y030879D01*
X011675Y030849D01*
X011697Y030816D01*
X011716Y030782D01*
X011731Y030746D01*
X011743Y030708D01*
X011751Y030670D01*
X011755Y030631D01*
X011755Y030591D01*
X011751Y030552D01*
X011743Y030514D01*
X011731Y030476D01*
X011716Y030440D01*
X011697Y030406D01*
X011675Y030373D01*
X011650Y030343D01*
X011622Y030316D01*
X011591Y030291D01*
X011558Y030270D01*
X011523Y030252D01*
X011486Y030238D01*
X011449Y030227D01*
X011410Y030220D01*
X011371Y030217D01*
X011332Y030218D01*
X011293Y030223D01*
X011254Y030232D01*
X011217Y030244D01*
X011181Y030260D01*
X011147Y030280D01*
X011115Y030303D01*
X011086Y030329D01*
X011059Y030358D01*
X011035Y030389D01*
X011015Y030423D01*
X010998Y030458D01*
X010985Y030495D01*
X010975Y030533D01*
X010969Y030572D01*
X010967Y030611D01*
X010967Y034611D02*
X010969Y034650D01*
X010975Y034689D01*
X010985Y034727D01*
X010998Y034764D01*
X011015Y034799D01*
X011035Y034833D01*
X011059Y034864D01*
X011086Y034893D01*
X011115Y034919D01*
X011147Y034942D01*
X011181Y034962D01*
X011217Y034978D01*
X011254Y034990D01*
X011293Y034999D01*
X011332Y035004D01*
X011371Y035005D01*
X011410Y035002D01*
X011449Y034995D01*
X011486Y034984D01*
X011523Y034970D01*
X011558Y034952D01*
X011591Y034931D01*
X011622Y034906D01*
X011650Y034879D01*
X011675Y034849D01*
X011697Y034816D01*
X011716Y034782D01*
X011731Y034746D01*
X011743Y034708D01*
X011751Y034670D01*
X011755Y034631D01*
X011755Y034591D01*
X011751Y034552D01*
X011743Y034514D01*
X011731Y034476D01*
X011716Y034440D01*
X011697Y034406D01*
X011675Y034373D01*
X011650Y034343D01*
X011622Y034316D01*
X011591Y034291D01*
X011558Y034270D01*
X011523Y034252D01*
X011486Y034238D01*
X011449Y034227D01*
X011410Y034220D01*
X011371Y034217D01*
X011332Y034218D01*
X011293Y034223D01*
X011254Y034232D01*
X011217Y034244D01*
X011181Y034260D01*
X011147Y034280D01*
X011115Y034303D01*
X011086Y034329D01*
X011059Y034358D01*
X011035Y034389D01*
X011015Y034423D01*
X010998Y034458D01*
X010985Y034495D01*
X010975Y034533D01*
X010969Y034572D01*
X010967Y034611D01*
X010967Y036861D02*
X010969Y036900D01*
X010975Y036939D01*
X010985Y036977D01*
X010998Y037014D01*
X011015Y037049D01*
X011035Y037083D01*
X011059Y037114D01*
X011086Y037143D01*
X011115Y037169D01*
X011147Y037192D01*
X011181Y037212D01*
X011217Y037228D01*
X011254Y037240D01*
X011293Y037249D01*
X011332Y037254D01*
X011371Y037255D01*
X011410Y037252D01*
X011449Y037245D01*
X011486Y037234D01*
X011523Y037220D01*
X011558Y037202D01*
X011591Y037181D01*
X011622Y037156D01*
X011650Y037129D01*
X011675Y037099D01*
X011697Y037066D01*
X011716Y037032D01*
X011731Y036996D01*
X011743Y036958D01*
X011751Y036920D01*
X011755Y036881D01*
X011755Y036841D01*
X011751Y036802D01*
X011743Y036764D01*
X011731Y036726D01*
X011716Y036690D01*
X011697Y036656D01*
X011675Y036623D01*
X011650Y036593D01*
X011622Y036566D01*
X011591Y036541D01*
X011558Y036520D01*
X011523Y036502D01*
X011486Y036488D01*
X011449Y036477D01*
X011410Y036470D01*
X011371Y036467D01*
X011332Y036468D01*
X011293Y036473D01*
X011254Y036482D01*
X011217Y036494D01*
X011181Y036510D01*
X011147Y036530D01*
X011115Y036553D01*
X011086Y036579D01*
X011059Y036608D01*
X011035Y036639D01*
X011015Y036673D01*
X010998Y036708D01*
X010985Y036745D01*
X010975Y036783D01*
X010969Y036822D01*
X010967Y036861D01*
X010967Y040861D02*
X010969Y040900D01*
X010975Y040939D01*
X010985Y040977D01*
X010998Y041014D01*
X011015Y041049D01*
X011035Y041083D01*
X011059Y041114D01*
X011086Y041143D01*
X011115Y041169D01*
X011147Y041192D01*
X011181Y041212D01*
X011217Y041228D01*
X011254Y041240D01*
X011293Y041249D01*
X011332Y041254D01*
X011371Y041255D01*
X011410Y041252D01*
X011449Y041245D01*
X011486Y041234D01*
X011523Y041220D01*
X011558Y041202D01*
X011591Y041181D01*
X011622Y041156D01*
X011650Y041129D01*
X011675Y041099D01*
X011697Y041066D01*
X011716Y041032D01*
X011731Y040996D01*
X011743Y040958D01*
X011751Y040920D01*
X011755Y040881D01*
X011755Y040841D01*
X011751Y040802D01*
X011743Y040764D01*
X011731Y040726D01*
X011716Y040690D01*
X011697Y040656D01*
X011675Y040623D01*
X011650Y040593D01*
X011622Y040566D01*
X011591Y040541D01*
X011558Y040520D01*
X011523Y040502D01*
X011486Y040488D01*
X011449Y040477D01*
X011410Y040470D01*
X011371Y040467D01*
X011332Y040468D01*
X011293Y040473D01*
X011254Y040482D01*
X011217Y040494D01*
X011181Y040510D01*
X011147Y040530D01*
X011115Y040553D01*
X011086Y040579D01*
X011059Y040608D01*
X011035Y040639D01*
X011015Y040673D01*
X010998Y040708D01*
X010985Y040745D01*
X010975Y040783D01*
X010969Y040822D01*
X010967Y040861D01*
X015717Y011361D02*
X015719Y011400D01*
X015725Y011439D01*
X015735Y011477D01*
X015748Y011514D01*
X015765Y011549D01*
X015785Y011583D01*
X015809Y011614D01*
X015836Y011643D01*
X015865Y011669D01*
X015897Y011692D01*
X015931Y011712D01*
X015967Y011728D01*
X016004Y011740D01*
X016043Y011749D01*
X016082Y011754D01*
X016121Y011755D01*
X016160Y011752D01*
X016199Y011745D01*
X016236Y011734D01*
X016273Y011720D01*
X016308Y011702D01*
X016341Y011681D01*
X016372Y011656D01*
X016400Y011629D01*
X016425Y011599D01*
X016447Y011566D01*
X016466Y011532D01*
X016481Y011496D01*
X016493Y011458D01*
X016501Y011420D01*
X016505Y011381D01*
X016505Y011341D01*
X016501Y011302D01*
X016493Y011264D01*
X016481Y011226D01*
X016466Y011190D01*
X016447Y011156D01*
X016425Y011123D01*
X016400Y011093D01*
X016372Y011066D01*
X016341Y011041D01*
X016308Y011020D01*
X016273Y011002D01*
X016236Y010988D01*
X016199Y010977D01*
X016160Y010970D01*
X016121Y010967D01*
X016082Y010968D01*
X016043Y010973D01*
X016004Y010982D01*
X015967Y010994D01*
X015931Y011010D01*
X015897Y011030D01*
X015865Y011053D01*
X015836Y011079D01*
X015809Y011108D01*
X015785Y011139D01*
X015765Y011173D01*
X015748Y011208D01*
X015735Y011245D01*
X015725Y011283D01*
X015719Y011322D01*
X015717Y011361D01*
X019717Y011361D02*
X019719Y011400D01*
X019725Y011439D01*
X019735Y011477D01*
X019748Y011514D01*
X019765Y011549D01*
X019785Y011583D01*
X019809Y011614D01*
X019836Y011643D01*
X019865Y011669D01*
X019897Y011692D01*
X019931Y011712D01*
X019967Y011728D01*
X020004Y011740D01*
X020043Y011749D01*
X020082Y011754D01*
X020121Y011755D01*
X020160Y011752D01*
X020199Y011745D01*
X020236Y011734D01*
X020273Y011720D01*
X020308Y011702D01*
X020341Y011681D01*
X020372Y011656D01*
X020400Y011629D01*
X020425Y011599D01*
X020447Y011566D01*
X020466Y011532D01*
X020481Y011496D01*
X020493Y011458D01*
X020501Y011420D01*
X020505Y011381D01*
X020505Y011341D01*
X020501Y011302D01*
X020493Y011264D01*
X020481Y011226D01*
X020466Y011190D01*
X020447Y011156D01*
X020425Y011123D01*
X020400Y011093D01*
X020372Y011066D01*
X020341Y011041D01*
X020308Y011020D01*
X020273Y011002D01*
X020236Y010988D01*
X020199Y010977D01*
X020160Y010970D01*
X020121Y010967D01*
X020082Y010968D01*
X020043Y010973D01*
X020004Y010982D01*
X019967Y010994D01*
X019931Y011010D01*
X019897Y011030D01*
X019865Y011053D01*
X019836Y011079D01*
X019809Y011108D01*
X019785Y011139D01*
X019765Y011173D01*
X019748Y011208D01*
X019735Y011245D01*
X019725Y011283D01*
X019719Y011322D01*
X019717Y011361D01*
X022217Y011361D02*
X022219Y011400D01*
X022225Y011439D01*
X022235Y011477D01*
X022248Y011514D01*
X022265Y011549D01*
X022285Y011583D01*
X022309Y011614D01*
X022336Y011643D01*
X022365Y011669D01*
X022397Y011692D01*
X022431Y011712D01*
X022467Y011728D01*
X022504Y011740D01*
X022543Y011749D01*
X022582Y011754D01*
X022621Y011755D01*
X022660Y011752D01*
X022699Y011745D01*
X022736Y011734D01*
X022773Y011720D01*
X022808Y011702D01*
X022841Y011681D01*
X022872Y011656D01*
X022900Y011629D01*
X022925Y011599D01*
X022947Y011566D01*
X022966Y011532D01*
X022981Y011496D01*
X022993Y011458D01*
X023001Y011420D01*
X023005Y011381D01*
X023005Y011341D01*
X023001Y011302D01*
X022993Y011264D01*
X022981Y011226D01*
X022966Y011190D01*
X022947Y011156D01*
X022925Y011123D01*
X022900Y011093D01*
X022872Y011066D01*
X022841Y011041D01*
X022808Y011020D01*
X022773Y011002D01*
X022736Y010988D01*
X022699Y010977D01*
X022660Y010970D01*
X022621Y010967D01*
X022582Y010968D01*
X022543Y010973D01*
X022504Y010982D01*
X022467Y010994D01*
X022431Y011010D01*
X022397Y011030D01*
X022365Y011053D01*
X022336Y011079D01*
X022309Y011108D01*
X022285Y011139D01*
X022265Y011173D01*
X022248Y011208D01*
X022235Y011245D01*
X022225Y011283D01*
X022219Y011322D01*
X022217Y011361D01*
X026217Y011361D02*
X026219Y011400D01*
X026225Y011439D01*
X026235Y011477D01*
X026248Y011514D01*
X026265Y011549D01*
X026285Y011583D01*
X026309Y011614D01*
X026336Y011643D01*
X026365Y011669D01*
X026397Y011692D01*
X026431Y011712D01*
X026467Y011728D01*
X026504Y011740D01*
X026543Y011749D01*
X026582Y011754D01*
X026621Y011755D01*
X026660Y011752D01*
X026699Y011745D01*
X026736Y011734D01*
X026773Y011720D01*
X026808Y011702D01*
X026841Y011681D01*
X026872Y011656D01*
X026900Y011629D01*
X026925Y011599D01*
X026947Y011566D01*
X026966Y011532D01*
X026981Y011496D01*
X026993Y011458D01*
X027001Y011420D01*
X027005Y011381D01*
X027005Y011341D01*
X027001Y011302D01*
X026993Y011264D01*
X026981Y011226D01*
X026966Y011190D01*
X026947Y011156D01*
X026925Y011123D01*
X026900Y011093D01*
X026872Y011066D01*
X026841Y011041D01*
X026808Y011020D01*
X026773Y011002D01*
X026736Y010988D01*
X026699Y010977D01*
X026660Y010970D01*
X026621Y010967D01*
X026582Y010968D01*
X026543Y010973D01*
X026504Y010982D01*
X026467Y010994D01*
X026431Y011010D01*
X026397Y011030D01*
X026365Y011053D01*
X026336Y011079D01*
X026309Y011108D01*
X026285Y011139D01*
X026265Y011173D01*
X026248Y011208D01*
X026235Y011245D01*
X026225Y011283D01*
X026219Y011322D01*
X026217Y011361D01*
X028467Y011361D02*
X028469Y011400D01*
X028475Y011439D01*
X028485Y011477D01*
X028498Y011514D01*
X028515Y011549D01*
X028535Y011583D01*
X028559Y011614D01*
X028586Y011643D01*
X028615Y011669D01*
X028647Y011692D01*
X028681Y011712D01*
X028717Y011728D01*
X028754Y011740D01*
X028793Y011749D01*
X028832Y011754D01*
X028871Y011755D01*
X028910Y011752D01*
X028949Y011745D01*
X028986Y011734D01*
X029023Y011720D01*
X029058Y011702D01*
X029091Y011681D01*
X029122Y011656D01*
X029150Y011629D01*
X029175Y011599D01*
X029197Y011566D01*
X029216Y011532D01*
X029231Y011496D01*
X029243Y011458D01*
X029251Y011420D01*
X029255Y011381D01*
X029255Y011341D01*
X029251Y011302D01*
X029243Y011264D01*
X029231Y011226D01*
X029216Y011190D01*
X029197Y011156D01*
X029175Y011123D01*
X029150Y011093D01*
X029122Y011066D01*
X029091Y011041D01*
X029058Y011020D01*
X029023Y011002D01*
X028986Y010988D01*
X028949Y010977D01*
X028910Y010970D01*
X028871Y010967D01*
X028832Y010968D01*
X028793Y010973D01*
X028754Y010982D01*
X028717Y010994D01*
X028681Y011010D01*
X028647Y011030D01*
X028615Y011053D01*
X028586Y011079D01*
X028559Y011108D01*
X028535Y011139D01*
X028515Y011173D01*
X028498Y011208D01*
X028485Y011245D01*
X028475Y011283D01*
X028469Y011322D01*
X028467Y011361D01*
X032467Y011361D02*
X032469Y011400D01*
X032475Y011439D01*
X032485Y011477D01*
X032498Y011514D01*
X032515Y011549D01*
X032535Y011583D01*
X032559Y011614D01*
X032586Y011643D01*
X032615Y011669D01*
X032647Y011692D01*
X032681Y011712D01*
X032717Y011728D01*
X032754Y011740D01*
X032793Y011749D01*
X032832Y011754D01*
X032871Y011755D01*
X032910Y011752D01*
X032949Y011745D01*
X032986Y011734D01*
X033023Y011720D01*
X033058Y011702D01*
X033091Y011681D01*
X033122Y011656D01*
X033150Y011629D01*
X033175Y011599D01*
X033197Y011566D01*
X033216Y011532D01*
X033231Y011496D01*
X033243Y011458D01*
X033251Y011420D01*
X033255Y011381D01*
X033255Y011341D01*
X033251Y011302D01*
X033243Y011264D01*
X033231Y011226D01*
X033216Y011190D01*
X033197Y011156D01*
X033175Y011123D01*
X033150Y011093D01*
X033122Y011066D01*
X033091Y011041D01*
X033058Y011020D01*
X033023Y011002D01*
X032986Y010988D01*
X032949Y010977D01*
X032910Y010970D01*
X032871Y010967D01*
X032832Y010968D01*
X032793Y010973D01*
X032754Y010982D01*
X032717Y010994D01*
X032681Y011010D01*
X032647Y011030D01*
X032615Y011053D01*
X032586Y011079D01*
X032559Y011108D01*
X032535Y011139D01*
X032515Y011173D01*
X032498Y011208D01*
X032485Y011245D01*
X032475Y011283D01*
X032469Y011322D01*
X032467Y011361D01*
D11*
X029684Y026885D03*
X029684Y027081D03*
X029684Y027278D03*
X029684Y027475D03*
X029684Y027672D03*
X029684Y027869D03*
X029684Y028066D03*
X029684Y028263D03*
X029684Y028459D03*
X029684Y028656D03*
X029684Y028853D03*
X029684Y029050D03*
X029684Y029247D03*
X029684Y029444D03*
X029684Y029640D03*
X029684Y029837D03*
X025038Y029837D03*
X025038Y029640D03*
X025038Y029444D03*
X025038Y029247D03*
X025038Y029050D03*
X025038Y028853D03*
X025038Y028656D03*
X025038Y028459D03*
X025038Y028263D03*
X025038Y028066D03*
X025038Y027869D03*
X025038Y027672D03*
X025038Y027475D03*
X025038Y027278D03*
X025038Y027081D03*
X025038Y026885D03*
D12*
X025885Y026038D03*
X026081Y026038D03*
X026278Y026038D03*
X026475Y026038D03*
X026672Y026038D03*
X026869Y026038D03*
X027066Y026038D03*
X027263Y026038D03*
X027459Y026038D03*
X027656Y026038D03*
X027853Y026038D03*
X028050Y026038D03*
X028247Y026038D03*
X028444Y026038D03*
X028640Y026038D03*
X028837Y026038D03*
X028837Y030684D03*
X028640Y030684D03*
X028444Y030684D03*
X028247Y030684D03*
X028050Y030684D03*
X027853Y030684D03*
X027656Y030684D03*
X027459Y030684D03*
X027263Y030684D03*
X027066Y030684D03*
X026869Y030684D03*
X026672Y030684D03*
X026475Y030684D03*
X026278Y030684D03*
X026081Y030684D03*
X025885Y030684D03*
D13*
X027717Y031861D03*
X028505Y031861D03*
X027005Y033361D03*
X026217Y033361D03*
X018755Y025611D03*
X017967Y025611D03*
X026342Y024986D03*
X026342Y024236D03*
X027130Y024236D03*
X027130Y024986D03*
X047467Y013236D03*
X048255Y013236D03*
D14*
X037423Y014060D03*
X037423Y015162D03*
X028736Y023685D03*
X028736Y024787D03*
D15*
X027861Y024880D03*
X027861Y024092D03*
X029611Y024342D03*
X029611Y025130D03*
X024361Y031467D03*
X024361Y032255D03*
X021111Y032467D03*
X021111Y033255D03*
X020736Y038092D03*
X020736Y038880D03*
X028736Y033380D03*
X028736Y032592D03*
X021111Y024755D03*
X021111Y023967D03*
X038611Y015005D03*
X038611Y014217D03*
X041861Y012880D03*
X041861Y012092D03*
X045986Y013342D03*
X045986Y014130D03*
X044861Y026967D03*
X044861Y027755D03*
X044861Y029467D03*
X044861Y030255D03*
X042736Y028630D03*
X042736Y027842D03*
D16*
X026671Y032361D03*
X025551Y032361D03*
X020921Y031361D03*
X019801Y031361D03*
X015921Y031611D03*
X015921Y032611D03*
X014801Y032611D03*
X014801Y031611D03*
X014801Y026111D03*
X014801Y025111D03*
X015921Y025111D03*
X015921Y026111D03*
X017926Y024236D03*
X019046Y024236D03*
X019801Y025986D03*
X020921Y025986D03*
X015921Y019861D03*
X015921Y018861D03*
X014801Y018861D03*
X014801Y019861D03*
X018051Y037111D03*
X019171Y037111D03*
X015921Y037861D03*
X014801Y037861D03*
X014801Y038861D03*
X015921Y038861D03*
D17*
X039361Y014260D03*
X039861Y014260D03*
X040361Y014260D03*
X040861Y014260D03*
X040861Y012212D03*
X040361Y012212D03*
X039861Y012212D03*
X039361Y012212D03*
D18*
X048476Y014580D03*
X048476Y015486D03*
X048476Y016391D03*
D19*
X045996Y015486D03*
D20*
X026117Y035026D03*
X025861Y035026D03*
X025605Y035026D03*
X025605Y035696D03*
X026117Y035696D03*
D21*
X024361Y035801D03*
X024361Y036921D03*
X024361Y034421D03*
X024361Y033301D03*
X038861Y022296D03*
X038861Y021176D03*
X040361Y021046D03*
X040361Y019926D03*
X041861Y019926D03*
X041861Y021046D03*
X043361Y021046D03*
X043361Y019926D03*
X031861Y015921D03*
X030861Y015921D03*
X030861Y014801D03*
X031861Y014801D03*
X025611Y014801D03*
X024611Y014801D03*
X024611Y015921D03*
X025611Y015921D03*
X019111Y015921D03*
X018111Y015921D03*
X018111Y014801D03*
X019111Y014801D03*
X015861Y014801D03*
X014861Y014801D03*
X014861Y015921D03*
X015861Y015921D03*
D22*
X015862Y020736D03*
X016610Y020736D03*
X016610Y033486D03*
X015862Y033486D03*
X025487Y037111D03*
X026235Y037111D03*
D23*
X038171Y029463D03*
X038171Y029148D03*
X038171Y028833D03*
X038171Y028518D03*
X038171Y028203D03*
X038171Y027889D03*
X038171Y027574D03*
X038171Y027259D03*
X041551Y027259D03*
X041551Y027574D03*
X041551Y027889D03*
X041551Y028203D03*
X041551Y028518D03*
X041551Y028833D03*
X041551Y029148D03*
X041551Y029463D03*
D24*
X040963Y030051D03*
X040648Y030051D03*
X040333Y030051D03*
X040018Y030051D03*
X039703Y030051D03*
X039389Y030051D03*
X039074Y030051D03*
X038759Y030051D03*
X038759Y026671D03*
X039074Y026671D03*
X039389Y026671D03*
X039703Y026671D03*
X040018Y026671D03*
X040333Y026671D03*
X040648Y026671D03*
X040963Y026671D03*
D25*
X046861Y026461D03*
X046861Y030261D03*
D26*
X043611Y029711D03*
X043611Y029111D03*
X043611Y028511D03*
X042611Y029811D03*
X042611Y030411D03*
X030111Y031261D03*
X030111Y031861D03*
X030111Y032461D03*
D27*
X040361Y023550D03*
X040361Y022172D03*
X041861Y022172D03*
X041861Y023550D03*
X043361Y023550D03*
X043361Y022172D03*
D28*
X042476Y014736D03*
X044996Y014736D03*
D29*
X023361Y033487D03*
X023361Y034235D03*
X016736Y038737D03*
X016736Y039485D03*
X015861Y035735D03*
X015861Y034987D03*
X016611Y026735D03*
X016611Y025987D03*
X015861Y022985D03*
X015861Y022237D03*
D30*
X017087Y022361D03*
X017087Y022861D03*
X017087Y023361D03*
X017087Y021861D03*
X019135Y021861D03*
X019135Y022361D03*
X019135Y022861D03*
X019135Y023361D03*
X019135Y034611D03*
X019135Y035111D03*
X019135Y035611D03*
X019135Y036111D03*
X017087Y036111D03*
X017087Y035611D03*
X017087Y035111D03*
X017087Y034611D03*
D31*
X022686Y036361D03*
X023286Y036361D03*
M02*
