G75*
G70*
%OFA0B0*%
%FSLAX24Y24*%
%IPPOS*%
%LPD*%
%AMOC8*
5,1,8,0,0,1.08239X$1,22.5*
%
%ADD10C,0.0000*%
%ADD11C,0.0030*%
%ADD12C,0.0040*%
%ADD13C,0.0060*%
%ADD14C,0.0050*%
D10*
X010361Y010361D02*
X010361Y042357D01*
X049731Y042357D01*
X049731Y010361D01*
X010361Y010361D01*
X010967Y011361D02*
X010969Y011400D01*
X010975Y011439D01*
X010985Y011477D01*
X010998Y011514D01*
X011015Y011549D01*
X011035Y011583D01*
X011059Y011614D01*
X011086Y011643D01*
X011115Y011669D01*
X011147Y011692D01*
X011181Y011712D01*
X011217Y011728D01*
X011254Y011740D01*
X011293Y011749D01*
X011332Y011754D01*
X011371Y011755D01*
X011410Y011752D01*
X011449Y011745D01*
X011486Y011734D01*
X011523Y011720D01*
X011558Y011702D01*
X011591Y011681D01*
X011622Y011656D01*
X011650Y011629D01*
X011675Y011599D01*
X011697Y011566D01*
X011716Y011532D01*
X011731Y011496D01*
X011743Y011458D01*
X011751Y011420D01*
X011755Y011381D01*
X011755Y011341D01*
X011751Y011302D01*
X011743Y011264D01*
X011731Y011226D01*
X011716Y011190D01*
X011697Y011156D01*
X011675Y011123D01*
X011650Y011093D01*
X011622Y011066D01*
X011591Y011041D01*
X011558Y011020D01*
X011523Y011002D01*
X011486Y010988D01*
X011449Y010977D01*
X011410Y010970D01*
X011371Y010967D01*
X011332Y010968D01*
X011293Y010973D01*
X011254Y010982D01*
X011217Y010994D01*
X011181Y011010D01*
X011147Y011030D01*
X011115Y011053D01*
X011086Y011079D01*
X011059Y011108D01*
X011035Y011139D01*
X011015Y011173D01*
X010998Y011208D01*
X010985Y011245D01*
X010975Y011283D01*
X010969Y011322D01*
X010967Y011361D01*
X010967Y015361D02*
X010969Y015400D01*
X010975Y015439D01*
X010985Y015477D01*
X010998Y015514D01*
X011015Y015549D01*
X011035Y015583D01*
X011059Y015614D01*
X011086Y015643D01*
X011115Y015669D01*
X011147Y015692D01*
X011181Y015712D01*
X011217Y015728D01*
X011254Y015740D01*
X011293Y015749D01*
X011332Y015754D01*
X011371Y015755D01*
X011410Y015752D01*
X011449Y015745D01*
X011486Y015734D01*
X011523Y015720D01*
X011558Y015702D01*
X011591Y015681D01*
X011622Y015656D01*
X011650Y015629D01*
X011675Y015599D01*
X011697Y015566D01*
X011716Y015532D01*
X011731Y015496D01*
X011743Y015458D01*
X011751Y015420D01*
X011755Y015381D01*
X011755Y015341D01*
X011751Y015302D01*
X011743Y015264D01*
X011731Y015226D01*
X011716Y015190D01*
X011697Y015156D01*
X011675Y015123D01*
X011650Y015093D01*
X011622Y015066D01*
X011591Y015041D01*
X011558Y015020D01*
X011523Y015002D01*
X011486Y014988D01*
X011449Y014977D01*
X011410Y014970D01*
X011371Y014967D01*
X011332Y014968D01*
X011293Y014973D01*
X011254Y014982D01*
X011217Y014994D01*
X011181Y015010D01*
X011147Y015030D01*
X011115Y015053D01*
X011086Y015079D01*
X011059Y015108D01*
X011035Y015139D01*
X011015Y015173D01*
X010998Y015208D01*
X010985Y015245D01*
X010975Y015283D01*
X010969Y015322D01*
X010967Y015361D01*
X010967Y017861D02*
X010969Y017900D01*
X010975Y017939D01*
X010985Y017977D01*
X010998Y018014D01*
X011015Y018049D01*
X011035Y018083D01*
X011059Y018114D01*
X011086Y018143D01*
X011115Y018169D01*
X011147Y018192D01*
X011181Y018212D01*
X011217Y018228D01*
X011254Y018240D01*
X011293Y018249D01*
X011332Y018254D01*
X011371Y018255D01*
X011410Y018252D01*
X011449Y018245D01*
X011486Y018234D01*
X011523Y018220D01*
X011558Y018202D01*
X011591Y018181D01*
X011622Y018156D01*
X011650Y018129D01*
X011675Y018099D01*
X011697Y018066D01*
X011716Y018032D01*
X011731Y017996D01*
X011743Y017958D01*
X011751Y017920D01*
X011755Y017881D01*
X011755Y017841D01*
X011751Y017802D01*
X011743Y017764D01*
X011731Y017726D01*
X011716Y017690D01*
X011697Y017656D01*
X011675Y017623D01*
X011650Y017593D01*
X011622Y017566D01*
X011591Y017541D01*
X011558Y017520D01*
X011523Y017502D01*
X011486Y017488D01*
X011449Y017477D01*
X011410Y017470D01*
X011371Y017467D01*
X011332Y017468D01*
X011293Y017473D01*
X011254Y017482D01*
X011217Y017494D01*
X011181Y017510D01*
X011147Y017530D01*
X011115Y017553D01*
X011086Y017579D01*
X011059Y017608D01*
X011035Y017639D01*
X011015Y017673D01*
X010998Y017708D01*
X010985Y017745D01*
X010975Y017783D01*
X010969Y017822D01*
X010967Y017861D01*
X010967Y021861D02*
X010969Y021900D01*
X010975Y021939D01*
X010985Y021977D01*
X010998Y022014D01*
X011015Y022049D01*
X011035Y022083D01*
X011059Y022114D01*
X011086Y022143D01*
X011115Y022169D01*
X011147Y022192D01*
X011181Y022212D01*
X011217Y022228D01*
X011254Y022240D01*
X011293Y022249D01*
X011332Y022254D01*
X011371Y022255D01*
X011410Y022252D01*
X011449Y022245D01*
X011486Y022234D01*
X011523Y022220D01*
X011558Y022202D01*
X011591Y022181D01*
X011622Y022156D01*
X011650Y022129D01*
X011675Y022099D01*
X011697Y022066D01*
X011716Y022032D01*
X011731Y021996D01*
X011743Y021958D01*
X011751Y021920D01*
X011755Y021881D01*
X011755Y021841D01*
X011751Y021802D01*
X011743Y021764D01*
X011731Y021726D01*
X011716Y021690D01*
X011697Y021656D01*
X011675Y021623D01*
X011650Y021593D01*
X011622Y021566D01*
X011591Y021541D01*
X011558Y021520D01*
X011523Y021502D01*
X011486Y021488D01*
X011449Y021477D01*
X011410Y021470D01*
X011371Y021467D01*
X011332Y021468D01*
X011293Y021473D01*
X011254Y021482D01*
X011217Y021494D01*
X011181Y021510D01*
X011147Y021530D01*
X011115Y021553D01*
X011086Y021579D01*
X011059Y021608D01*
X011035Y021639D01*
X011015Y021673D01*
X010998Y021708D01*
X010985Y021745D01*
X010975Y021783D01*
X010969Y021822D01*
X010967Y021861D01*
X010967Y024111D02*
X010969Y024150D01*
X010975Y024189D01*
X010985Y024227D01*
X010998Y024264D01*
X011015Y024299D01*
X011035Y024333D01*
X011059Y024364D01*
X011086Y024393D01*
X011115Y024419D01*
X011147Y024442D01*
X011181Y024462D01*
X011217Y024478D01*
X011254Y024490D01*
X011293Y024499D01*
X011332Y024504D01*
X011371Y024505D01*
X011410Y024502D01*
X011449Y024495D01*
X011486Y024484D01*
X011523Y024470D01*
X011558Y024452D01*
X011591Y024431D01*
X011622Y024406D01*
X011650Y024379D01*
X011675Y024349D01*
X011697Y024316D01*
X011716Y024282D01*
X011731Y024246D01*
X011743Y024208D01*
X011751Y024170D01*
X011755Y024131D01*
X011755Y024091D01*
X011751Y024052D01*
X011743Y024014D01*
X011731Y023976D01*
X011716Y023940D01*
X011697Y023906D01*
X011675Y023873D01*
X011650Y023843D01*
X011622Y023816D01*
X011591Y023791D01*
X011558Y023770D01*
X011523Y023752D01*
X011486Y023738D01*
X011449Y023727D01*
X011410Y023720D01*
X011371Y023717D01*
X011332Y023718D01*
X011293Y023723D01*
X011254Y023732D01*
X011217Y023744D01*
X011181Y023760D01*
X011147Y023780D01*
X011115Y023803D01*
X011086Y023829D01*
X011059Y023858D01*
X011035Y023889D01*
X011015Y023923D01*
X010998Y023958D01*
X010985Y023995D01*
X010975Y024033D01*
X010969Y024072D01*
X010967Y024111D01*
X010967Y028111D02*
X010969Y028150D01*
X010975Y028189D01*
X010985Y028227D01*
X010998Y028264D01*
X011015Y028299D01*
X011035Y028333D01*
X011059Y028364D01*
X011086Y028393D01*
X011115Y028419D01*
X011147Y028442D01*
X011181Y028462D01*
X011217Y028478D01*
X011254Y028490D01*
X011293Y028499D01*
X011332Y028504D01*
X011371Y028505D01*
X011410Y028502D01*
X011449Y028495D01*
X011486Y028484D01*
X011523Y028470D01*
X011558Y028452D01*
X011591Y028431D01*
X011622Y028406D01*
X011650Y028379D01*
X011675Y028349D01*
X011697Y028316D01*
X011716Y028282D01*
X011731Y028246D01*
X011743Y028208D01*
X011751Y028170D01*
X011755Y028131D01*
X011755Y028091D01*
X011751Y028052D01*
X011743Y028014D01*
X011731Y027976D01*
X011716Y027940D01*
X011697Y027906D01*
X011675Y027873D01*
X011650Y027843D01*
X011622Y027816D01*
X011591Y027791D01*
X011558Y027770D01*
X011523Y027752D01*
X011486Y027738D01*
X011449Y027727D01*
X011410Y027720D01*
X011371Y027717D01*
X011332Y027718D01*
X011293Y027723D01*
X011254Y027732D01*
X011217Y027744D01*
X011181Y027760D01*
X011147Y027780D01*
X011115Y027803D01*
X011086Y027829D01*
X011059Y027858D01*
X011035Y027889D01*
X011015Y027923D01*
X010998Y027958D01*
X010985Y027995D01*
X010975Y028033D01*
X010969Y028072D01*
X010967Y028111D01*
X010967Y030611D02*
X010969Y030650D01*
X010975Y030689D01*
X010985Y030727D01*
X010998Y030764D01*
X011015Y030799D01*
X011035Y030833D01*
X011059Y030864D01*
X011086Y030893D01*
X011115Y030919D01*
X011147Y030942D01*
X011181Y030962D01*
X011217Y030978D01*
X011254Y030990D01*
X011293Y030999D01*
X011332Y031004D01*
X011371Y031005D01*
X011410Y031002D01*
X011449Y030995D01*
X011486Y030984D01*
X011523Y030970D01*
X011558Y030952D01*
X011591Y030931D01*
X011622Y030906D01*
X011650Y030879D01*
X011675Y030849D01*
X011697Y030816D01*
X011716Y030782D01*
X011731Y030746D01*
X011743Y030708D01*
X011751Y030670D01*
X011755Y030631D01*
X011755Y030591D01*
X011751Y030552D01*
X011743Y030514D01*
X011731Y030476D01*
X011716Y030440D01*
X011697Y030406D01*
X011675Y030373D01*
X011650Y030343D01*
X011622Y030316D01*
X011591Y030291D01*
X011558Y030270D01*
X011523Y030252D01*
X011486Y030238D01*
X011449Y030227D01*
X011410Y030220D01*
X011371Y030217D01*
X011332Y030218D01*
X011293Y030223D01*
X011254Y030232D01*
X011217Y030244D01*
X011181Y030260D01*
X011147Y030280D01*
X011115Y030303D01*
X011086Y030329D01*
X011059Y030358D01*
X011035Y030389D01*
X011015Y030423D01*
X010998Y030458D01*
X010985Y030495D01*
X010975Y030533D01*
X010969Y030572D01*
X010967Y030611D01*
X010967Y034611D02*
X010969Y034650D01*
X010975Y034689D01*
X010985Y034727D01*
X010998Y034764D01*
X011015Y034799D01*
X011035Y034833D01*
X011059Y034864D01*
X011086Y034893D01*
X011115Y034919D01*
X011147Y034942D01*
X011181Y034962D01*
X011217Y034978D01*
X011254Y034990D01*
X011293Y034999D01*
X011332Y035004D01*
X011371Y035005D01*
X011410Y035002D01*
X011449Y034995D01*
X011486Y034984D01*
X011523Y034970D01*
X011558Y034952D01*
X011591Y034931D01*
X011622Y034906D01*
X011650Y034879D01*
X011675Y034849D01*
X011697Y034816D01*
X011716Y034782D01*
X011731Y034746D01*
X011743Y034708D01*
X011751Y034670D01*
X011755Y034631D01*
X011755Y034591D01*
X011751Y034552D01*
X011743Y034514D01*
X011731Y034476D01*
X011716Y034440D01*
X011697Y034406D01*
X011675Y034373D01*
X011650Y034343D01*
X011622Y034316D01*
X011591Y034291D01*
X011558Y034270D01*
X011523Y034252D01*
X011486Y034238D01*
X011449Y034227D01*
X011410Y034220D01*
X011371Y034217D01*
X011332Y034218D01*
X011293Y034223D01*
X011254Y034232D01*
X011217Y034244D01*
X011181Y034260D01*
X011147Y034280D01*
X011115Y034303D01*
X011086Y034329D01*
X011059Y034358D01*
X011035Y034389D01*
X011015Y034423D01*
X010998Y034458D01*
X010985Y034495D01*
X010975Y034533D01*
X010969Y034572D01*
X010967Y034611D01*
X010967Y036861D02*
X010969Y036900D01*
X010975Y036939D01*
X010985Y036977D01*
X010998Y037014D01*
X011015Y037049D01*
X011035Y037083D01*
X011059Y037114D01*
X011086Y037143D01*
X011115Y037169D01*
X011147Y037192D01*
X011181Y037212D01*
X011217Y037228D01*
X011254Y037240D01*
X011293Y037249D01*
X011332Y037254D01*
X011371Y037255D01*
X011410Y037252D01*
X011449Y037245D01*
X011486Y037234D01*
X011523Y037220D01*
X011558Y037202D01*
X011591Y037181D01*
X011622Y037156D01*
X011650Y037129D01*
X011675Y037099D01*
X011697Y037066D01*
X011716Y037032D01*
X011731Y036996D01*
X011743Y036958D01*
X011751Y036920D01*
X011755Y036881D01*
X011755Y036841D01*
X011751Y036802D01*
X011743Y036764D01*
X011731Y036726D01*
X011716Y036690D01*
X011697Y036656D01*
X011675Y036623D01*
X011650Y036593D01*
X011622Y036566D01*
X011591Y036541D01*
X011558Y036520D01*
X011523Y036502D01*
X011486Y036488D01*
X011449Y036477D01*
X011410Y036470D01*
X011371Y036467D01*
X011332Y036468D01*
X011293Y036473D01*
X011254Y036482D01*
X011217Y036494D01*
X011181Y036510D01*
X011147Y036530D01*
X011115Y036553D01*
X011086Y036579D01*
X011059Y036608D01*
X011035Y036639D01*
X011015Y036673D01*
X010998Y036708D01*
X010985Y036745D01*
X010975Y036783D01*
X010969Y036822D01*
X010967Y036861D01*
X010967Y040861D02*
X010969Y040900D01*
X010975Y040939D01*
X010985Y040977D01*
X010998Y041014D01*
X011015Y041049D01*
X011035Y041083D01*
X011059Y041114D01*
X011086Y041143D01*
X011115Y041169D01*
X011147Y041192D01*
X011181Y041212D01*
X011217Y041228D01*
X011254Y041240D01*
X011293Y041249D01*
X011332Y041254D01*
X011371Y041255D01*
X011410Y041252D01*
X011449Y041245D01*
X011486Y041234D01*
X011523Y041220D01*
X011558Y041202D01*
X011591Y041181D01*
X011622Y041156D01*
X011650Y041129D01*
X011675Y041099D01*
X011697Y041066D01*
X011716Y041032D01*
X011731Y040996D01*
X011743Y040958D01*
X011751Y040920D01*
X011755Y040881D01*
X011755Y040841D01*
X011751Y040802D01*
X011743Y040764D01*
X011731Y040726D01*
X011716Y040690D01*
X011697Y040656D01*
X011675Y040623D01*
X011650Y040593D01*
X011622Y040566D01*
X011591Y040541D01*
X011558Y040520D01*
X011523Y040502D01*
X011486Y040488D01*
X011449Y040477D01*
X011410Y040470D01*
X011371Y040467D01*
X011332Y040468D01*
X011293Y040473D01*
X011254Y040482D01*
X011217Y040494D01*
X011181Y040510D01*
X011147Y040530D01*
X011115Y040553D01*
X011086Y040579D01*
X011059Y040608D01*
X011035Y040639D01*
X011015Y040673D01*
X010998Y040708D01*
X010985Y040745D01*
X010975Y040783D01*
X010969Y040822D01*
X010967Y040861D01*
X015717Y011361D02*
X015719Y011400D01*
X015725Y011439D01*
X015735Y011477D01*
X015748Y011514D01*
X015765Y011549D01*
X015785Y011583D01*
X015809Y011614D01*
X015836Y011643D01*
X015865Y011669D01*
X015897Y011692D01*
X015931Y011712D01*
X015967Y011728D01*
X016004Y011740D01*
X016043Y011749D01*
X016082Y011754D01*
X016121Y011755D01*
X016160Y011752D01*
X016199Y011745D01*
X016236Y011734D01*
X016273Y011720D01*
X016308Y011702D01*
X016341Y011681D01*
X016372Y011656D01*
X016400Y011629D01*
X016425Y011599D01*
X016447Y011566D01*
X016466Y011532D01*
X016481Y011496D01*
X016493Y011458D01*
X016501Y011420D01*
X016505Y011381D01*
X016505Y011341D01*
X016501Y011302D01*
X016493Y011264D01*
X016481Y011226D01*
X016466Y011190D01*
X016447Y011156D01*
X016425Y011123D01*
X016400Y011093D01*
X016372Y011066D01*
X016341Y011041D01*
X016308Y011020D01*
X016273Y011002D01*
X016236Y010988D01*
X016199Y010977D01*
X016160Y010970D01*
X016121Y010967D01*
X016082Y010968D01*
X016043Y010973D01*
X016004Y010982D01*
X015967Y010994D01*
X015931Y011010D01*
X015897Y011030D01*
X015865Y011053D01*
X015836Y011079D01*
X015809Y011108D01*
X015785Y011139D01*
X015765Y011173D01*
X015748Y011208D01*
X015735Y011245D01*
X015725Y011283D01*
X015719Y011322D01*
X015717Y011361D01*
X019717Y011361D02*
X019719Y011400D01*
X019725Y011439D01*
X019735Y011477D01*
X019748Y011514D01*
X019765Y011549D01*
X019785Y011583D01*
X019809Y011614D01*
X019836Y011643D01*
X019865Y011669D01*
X019897Y011692D01*
X019931Y011712D01*
X019967Y011728D01*
X020004Y011740D01*
X020043Y011749D01*
X020082Y011754D01*
X020121Y011755D01*
X020160Y011752D01*
X020199Y011745D01*
X020236Y011734D01*
X020273Y011720D01*
X020308Y011702D01*
X020341Y011681D01*
X020372Y011656D01*
X020400Y011629D01*
X020425Y011599D01*
X020447Y011566D01*
X020466Y011532D01*
X020481Y011496D01*
X020493Y011458D01*
X020501Y011420D01*
X020505Y011381D01*
X020505Y011341D01*
X020501Y011302D01*
X020493Y011264D01*
X020481Y011226D01*
X020466Y011190D01*
X020447Y011156D01*
X020425Y011123D01*
X020400Y011093D01*
X020372Y011066D01*
X020341Y011041D01*
X020308Y011020D01*
X020273Y011002D01*
X020236Y010988D01*
X020199Y010977D01*
X020160Y010970D01*
X020121Y010967D01*
X020082Y010968D01*
X020043Y010973D01*
X020004Y010982D01*
X019967Y010994D01*
X019931Y011010D01*
X019897Y011030D01*
X019865Y011053D01*
X019836Y011079D01*
X019809Y011108D01*
X019785Y011139D01*
X019765Y011173D01*
X019748Y011208D01*
X019735Y011245D01*
X019725Y011283D01*
X019719Y011322D01*
X019717Y011361D01*
X022217Y011361D02*
X022219Y011400D01*
X022225Y011439D01*
X022235Y011477D01*
X022248Y011514D01*
X022265Y011549D01*
X022285Y011583D01*
X022309Y011614D01*
X022336Y011643D01*
X022365Y011669D01*
X022397Y011692D01*
X022431Y011712D01*
X022467Y011728D01*
X022504Y011740D01*
X022543Y011749D01*
X022582Y011754D01*
X022621Y011755D01*
X022660Y011752D01*
X022699Y011745D01*
X022736Y011734D01*
X022773Y011720D01*
X022808Y011702D01*
X022841Y011681D01*
X022872Y011656D01*
X022900Y011629D01*
X022925Y011599D01*
X022947Y011566D01*
X022966Y011532D01*
X022981Y011496D01*
X022993Y011458D01*
X023001Y011420D01*
X023005Y011381D01*
X023005Y011341D01*
X023001Y011302D01*
X022993Y011264D01*
X022981Y011226D01*
X022966Y011190D01*
X022947Y011156D01*
X022925Y011123D01*
X022900Y011093D01*
X022872Y011066D01*
X022841Y011041D01*
X022808Y011020D01*
X022773Y011002D01*
X022736Y010988D01*
X022699Y010977D01*
X022660Y010970D01*
X022621Y010967D01*
X022582Y010968D01*
X022543Y010973D01*
X022504Y010982D01*
X022467Y010994D01*
X022431Y011010D01*
X022397Y011030D01*
X022365Y011053D01*
X022336Y011079D01*
X022309Y011108D01*
X022285Y011139D01*
X022265Y011173D01*
X022248Y011208D01*
X022235Y011245D01*
X022225Y011283D01*
X022219Y011322D01*
X022217Y011361D01*
X026217Y011361D02*
X026219Y011400D01*
X026225Y011439D01*
X026235Y011477D01*
X026248Y011514D01*
X026265Y011549D01*
X026285Y011583D01*
X026309Y011614D01*
X026336Y011643D01*
X026365Y011669D01*
X026397Y011692D01*
X026431Y011712D01*
X026467Y011728D01*
X026504Y011740D01*
X026543Y011749D01*
X026582Y011754D01*
X026621Y011755D01*
X026660Y011752D01*
X026699Y011745D01*
X026736Y011734D01*
X026773Y011720D01*
X026808Y011702D01*
X026841Y011681D01*
X026872Y011656D01*
X026900Y011629D01*
X026925Y011599D01*
X026947Y011566D01*
X026966Y011532D01*
X026981Y011496D01*
X026993Y011458D01*
X027001Y011420D01*
X027005Y011381D01*
X027005Y011341D01*
X027001Y011302D01*
X026993Y011264D01*
X026981Y011226D01*
X026966Y011190D01*
X026947Y011156D01*
X026925Y011123D01*
X026900Y011093D01*
X026872Y011066D01*
X026841Y011041D01*
X026808Y011020D01*
X026773Y011002D01*
X026736Y010988D01*
X026699Y010977D01*
X026660Y010970D01*
X026621Y010967D01*
X026582Y010968D01*
X026543Y010973D01*
X026504Y010982D01*
X026467Y010994D01*
X026431Y011010D01*
X026397Y011030D01*
X026365Y011053D01*
X026336Y011079D01*
X026309Y011108D01*
X026285Y011139D01*
X026265Y011173D01*
X026248Y011208D01*
X026235Y011245D01*
X026225Y011283D01*
X026219Y011322D01*
X026217Y011361D01*
X028467Y011361D02*
X028469Y011400D01*
X028475Y011439D01*
X028485Y011477D01*
X028498Y011514D01*
X028515Y011549D01*
X028535Y011583D01*
X028559Y011614D01*
X028586Y011643D01*
X028615Y011669D01*
X028647Y011692D01*
X028681Y011712D01*
X028717Y011728D01*
X028754Y011740D01*
X028793Y011749D01*
X028832Y011754D01*
X028871Y011755D01*
X028910Y011752D01*
X028949Y011745D01*
X028986Y011734D01*
X029023Y011720D01*
X029058Y011702D01*
X029091Y011681D01*
X029122Y011656D01*
X029150Y011629D01*
X029175Y011599D01*
X029197Y011566D01*
X029216Y011532D01*
X029231Y011496D01*
X029243Y011458D01*
X029251Y011420D01*
X029255Y011381D01*
X029255Y011341D01*
X029251Y011302D01*
X029243Y011264D01*
X029231Y011226D01*
X029216Y011190D01*
X029197Y011156D01*
X029175Y011123D01*
X029150Y011093D01*
X029122Y011066D01*
X029091Y011041D01*
X029058Y011020D01*
X029023Y011002D01*
X028986Y010988D01*
X028949Y010977D01*
X028910Y010970D01*
X028871Y010967D01*
X028832Y010968D01*
X028793Y010973D01*
X028754Y010982D01*
X028717Y010994D01*
X028681Y011010D01*
X028647Y011030D01*
X028615Y011053D01*
X028586Y011079D01*
X028559Y011108D01*
X028535Y011139D01*
X028515Y011173D01*
X028498Y011208D01*
X028485Y011245D01*
X028475Y011283D01*
X028469Y011322D01*
X028467Y011361D01*
X032467Y011361D02*
X032469Y011400D01*
X032475Y011439D01*
X032485Y011477D01*
X032498Y011514D01*
X032515Y011549D01*
X032535Y011583D01*
X032559Y011614D01*
X032586Y011643D01*
X032615Y011669D01*
X032647Y011692D01*
X032681Y011712D01*
X032717Y011728D01*
X032754Y011740D01*
X032793Y011749D01*
X032832Y011754D01*
X032871Y011755D01*
X032910Y011752D01*
X032949Y011745D01*
X032986Y011734D01*
X033023Y011720D01*
X033058Y011702D01*
X033091Y011681D01*
X033122Y011656D01*
X033150Y011629D01*
X033175Y011599D01*
X033197Y011566D01*
X033216Y011532D01*
X033231Y011496D01*
X033243Y011458D01*
X033251Y011420D01*
X033255Y011381D01*
X033255Y011341D01*
X033251Y011302D01*
X033243Y011264D01*
X033231Y011226D01*
X033216Y011190D01*
X033197Y011156D01*
X033175Y011123D01*
X033150Y011093D01*
X033122Y011066D01*
X033091Y011041D01*
X033058Y011020D01*
X033023Y011002D01*
X032986Y010988D01*
X032949Y010977D01*
X032910Y010970D01*
X032871Y010967D01*
X032832Y010968D01*
X032793Y010973D01*
X032754Y010982D01*
X032717Y010994D01*
X032681Y011010D01*
X032647Y011030D01*
X032615Y011053D01*
X032586Y011079D01*
X032559Y011108D01*
X032535Y011139D01*
X032515Y011173D01*
X032498Y011208D01*
X032485Y011245D01*
X032475Y011283D01*
X032469Y011322D01*
X032467Y011361D01*
D11*
X027127Y026756D02*
X027004Y026756D01*
X026942Y026818D01*
X026821Y026818D02*
X026759Y026756D01*
X026635Y026756D01*
X026574Y026818D01*
X026574Y027065D01*
X026635Y027127D01*
X026759Y027127D01*
X026821Y027065D01*
X026821Y027003D01*
X026759Y026942D01*
X026574Y026942D01*
X026942Y027065D02*
X027004Y027127D01*
X027127Y027127D01*
X027189Y027065D01*
X027189Y026818D01*
X027127Y026756D01*
X027189Y028881D02*
X026942Y028881D01*
X026821Y028881D02*
X026574Y028881D01*
X026697Y028881D02*
X026697Y029252D01*
X026821Y029128D01*
X027065Y029252D02*
X027065Y028881D01*
X027310Y028943D02*
X027372Y028881D01*
X027495Y028881D01*
X027557Y028943D01*
X027557Y029190D01*
X027495Y029252D01*
X027372Y029252D01*
X027310Y029190D01*
X027189Y029128D02*
X027065Y029252D01*
X035824Y037693D02*
X035885Y037631D01*
X036009Y037631D01*
X036071Y037693D01*
X036071Y037755D01*
X036009Y037817D01*
X035885Y037817D01*
X035824Y037755D01*
X035824Y037693D01*
X035885Y037817D02*
X035824Y037878D01*
X035824Y037940D01*
X035885Y038002D01*
X036009Y038002D01*
X036071Y037940D01*
X036071Y037878D01*
X036009Y037817D01*
X036192Y037940D02*
X036254Y038002D01*
X036377Y038002D01*
X036439Y037940D01*
X036439Y037693D01*
X036377Y037631D01*
X036254Y037631D01*
X036192Y037693D01*
D12*
X030091Y032015D02*
X030014Y032091D01*
X029861Y032091D01*
X029784Y032015D01*
X029631Y031938D02*
X029477Y032091D01*
X029477Y031631D01*
X029324Y031631D02*
X029631Y031631D01*
X029784Y031708D02*
X029861Y031631D01*
X030014Y031631D01*
X030091Y031708D01*
X030091Y032015D01*
X029170Y032015D02*
X029170Y031708D01*
X028863Y032015D01*
X028863Y031708D01*
X028940Y031631D01*
X029094Y031631D01*
X029170Y031708D01*
X029170Y032015D02*
X029094Y032091D01*
X028940Y032091D01*
X028863Y032015D01*
X035256Y027657D02*
X035333Y027734D01*
X035640Y027734D01*
X035716Y027657D01*
X035716Y027503D01*
X035640Y027427D01*
X035563Y027427D01*
X035486Y027503D01*
X035486Y027734D01*
X035256Y027657D02*
X035256Y027503D01*
X035333Y027427D01*
X035256Y027273D02*
X035256Y026966D01*
X035563Y027273D01*
X035640Y027273D01*
X035716Y027196D01*
X035716Y027043D01*
X035640Y026966D01*
X035640Y026813D02*
X035486Y026813D01*
X035409Y026736D01*
X035409Y026506D01*
X035256Y026506D02*
X035716Y026506D01*
X035716Y026736D01*
X035640Y026813D01*
X035409Y026659D02*
X035256Y026813D01*
X037463Y027123D02*
X037572Y027014D01*
X037680Y027014D01*
X037734Y027068D01*
X037734Y027177D01*
X037626Y027285D01*
X037517Y027285D01*
X037463Y027231D01*
X037463Y027123D01*
X037626Y027285D02*
X037626Y027394D01*
X037680Y027448D01*
X037789Y027448D01*
X037897Y027340D01*
X037897Y027231D01*
X037843Y027177D01*
X037734Y027177D01*
X037951Y027068D02*
X038006Y027123D01*
X038114Y027123D01*
X038223Y027014D01*
X038223Y026906D01*
X038331Y026797D02*
X038223Y026689D01*
X038223Y026580D01*
X038385Y026417D01*
X038277Y026309D02*
X038602Y026634D01*
X038440Y026797D01*
X038331Y026797D01*
X038277Y026526D02*
X038060Y026526D01*
X037951Y026634D02*
X037951Y027068D01*
X037734Y026851D02*
X037951Y026634D01*
D13*
X046861Y034611D02*
X046861Y035111D01*
X047111Y035361D01*
X048611Y035361D01*
X048861Y035611D01*
X048861Y036111D01*
X048611Y036361D01*
X047111Y036361D01*
X046861Y036611D01*
X046861Y037111D01*
X047111Y037361D01*
X048611Y037361D01*
X048861Y037611D01*
X048861Y038111D01*
X048611Y038361D01*
X048861Y038611D01*
X048861Y039111D01*
X048611Y039361D01*
X047111Y039361D01*
X046861Y039111D01*
X046861Y038611D01*
X047111Y038361D01*
X048611Y038361D01*
X048611Y037361D02*
X048861Y037111D01*
X048861Y036611D01*
X048611Y036361D01*
X048611Y035361D02*
X048861Y035111D01*
X048861Y034611D01*
X048611Y034361D01*
X047111Y034361D01*
X046861Y034611D01*
X047111Y035361D02*
X046861Y035611D01*
X046861Y036111D01*
X047111Y036361D01*
X047111Y037361D02*
X046861Y037611D01*
X046861Y038111D01*
X047111Y038361D01*
D14*
X049361Y035453D02*
X049286Y035378D01*
X049286Y035153D01*
X049136Y035153D02*
X049586Y035153D01*
X049586Y035378D01*
X049511Y035453D01*
X049361Y035453D01*
X049286Y034993D02*
X049211Y034993D01*
X049136Y034918D01*
X049136Y034768D01*
X049211Y034693D01*
X049361Y034768D02*
X049361Y034918D01*
X049286Y034993D01*
X049511Y034993D02*
X049586Y034918D01*
X049586Y034768D01*
X049511Y034693D01*
X049436Y034693D01*
X049361Y034768D01*
X049136Y034536D02*
X049136Y034386D01*
X049136Y034461D02*
X049586Y034461D01*
X049586Y034386D02*
X049586Y034536D01*
M02*
