G75*
G70*
%OFA0B0*%
%FSLAX24Y24*%
%IPPOS*%
%LPD*%
%AMOC8*
5,1,8,0,0,1.08239X$1,22.5*
%
%ADD10C,0.0000*%
%ADD11C,0.0100*%
%ADD12C,0.0140*%
%ADD13R,0.0512X0.0630*%
%ADD14R,0.0512X0.0591*%
%ADD15C,0.0554*%
%ADD16OC8,0.0850*%
%ADD17OC8,0.1000*%
%ADD18OC8,0.0600*%
%ADD19OC8,0.0630*%
%ADD20R,0.0630X0.0710*%
%ADD21R,0.0710X0.0630*%
%ADD22C,0.0160*%
%ADD23OC8,0.0356*%
%ADD24C,0.0240*%
%ADD25C,0.0120*%
%ADD26C,0.0320*%
%ADD27C,0.0220*%
%ADD28OC8,0.0650*%
%ADD29C,0.0500*%
%ADD30OC8,0.0591*%
%ADD31C,0.0700*%
D10*
X010361Y010361D02*
X010361Y042357D01*
X049731Y042357D01*
X049731Y010361D01*
X010361Y010361D01*
X010967Y011361D02*
X010969Y011400D01*
X010975Y011439D01*
X010985Y011477D01*
X010998Y011514D01*
X011015Y011549D01*
X011035Y011583D01*
X011059Y011614D01*
X011086Y011643D01*
X011115Y011669D01*
X011147Y011692D01*
X011181Y011712D01*
X011217Y011728D01*
X011254Y011740D01*
X011293Y011749D01*
X011332Y011754D01*
X011371Y011755D01*
X011410Y011752D01*
X011449Y011745D01*
X011486Y011734D01*
X011523Y011720D01*
X011558Y011702D01*
X011591Y011681D01*
X011622Y011656D01*
X011650Y011629D01*
X011675Y011599D01*
X011697Y011566D01*
X011716Y011532D01*
X011731Y011496D01*
X011743Y011458D01*
X011751Y011420D01*
X011755Y011381D01*
X011755Y011341D01*
X011751Y011302D01*
X011743Y011264D01*
X011731Y011226D01*
X011716Y011190D01*
X011697Y011156D01*
X011675Y011123D01*
X011650Y011093D01*
X011622Y011066D01*
X011591Y011041D01*
X011558Y011020D01*
X011523Y011002D01*
X011486Y010988D01*
X011449Y010977D01*
X011410Y010970D01*
X011371Y010967D01*
X011332Y010968D01*
X011293Y010973D01*
X011254Y010982D01*
X011217Y010994D01*
X011181Y011010D01*
X011147Y011030D01*
X011115Y011053D01*
X011086Y011079D01*
X011059Y011108D01*
X011035Y011139D01*
X011015Y011173D01*
X010998Y011208D01*
X010985Y011245D01*
X010975Y011283D01*
X010969Y011322D01*
X010967Y011361D01*
X010967Y015361D02*
X010969Y015400D01*
X010975Y015439D01*
X010985Y015477D01*
X010998Y015514D01*
X011015Y015549D01*
X011035Y015583D01*
X011059Y015614D01*
X011086Y015643D01*
X011115Y015669D01*
X011147Y015692D01*
X011181Y015712D01*
X011217Y015728D01*
X011254Y015740D01*
X011293Y015749D01*
X011332Y015754D01*
X011371Y015755D01*
X011410Y015752D01*
X011449Y015745D01*
X011486Y015734D01*
X011523Y015720D01*
X011558Y015702D01*
X011591Y015681D01*
X011622Y015656D01*
X011650Y015629D01*
X011675Y015599D01*
X011697Y015566D01*
X011716Y015532D01*
X011731Y015496D01*
X011743Y015458D01*
X011751Y015420D01*
X011755Y015381D01*
X011755Y015341D01*
X011751Y015302D01*
X011743Y015264D01*
X011731Y015226D01*
X011716Y015190D01*
X011697Y015156D01*
X011675Y015123D01*
X011650Y015093D01*
X011622Y015066D01*
X011591Y015041D01*
X011558Y015020D01*
X011523Y015002D01*
X011486Y014988D01*
X011449Y014977D01*
X011410Y014970D01*
X011371Y014967D01*
X011332Y014968D01*
X011293Y014973D01*
X011254Y014982D01*
X011217Y014994D01*
X011181Y015010D01*
X011147Y015030D01*
X011115Y015053D01*
X011086Y015079D01*
X011059Y015108D01*
X011035Y015139D01*
X011015Y015173D01*
X010998Y015208D01*
X010985Y015245D01*
X010975Y015283D01*
X010969Y015322D01*
X010967Y015361D01*
X010967Y017861D02*
X010969Y017900D01*
X010975Y017939D01*
X010985Y017977D01*
X010998Y018014D01*
X011015Y018049D01*
X011035Y018083D01*
X011059Y018114D01*
X011086Y018143D01*
X011115Y018169D01*
X011147Y018192D01*
X011181Y018212D01*
X011217Y018228D01*
X011254Y018240D01*
X011293Y018249D01*
X011332Y018254D01*
X011371Y018255D01*
X011410Y018252D01*
X011449Y018245D01*
X011486Y018234D01*
X011523Y018220D01*
X011558Y018202D01*
X011591Y018181D01*
X011622Y018156D01*
X011650Y018129D01*
X011675Y018099D01*
X011697Y018066D01*
X011716Y018032D01*
X011731Y017996D01*
X011743Y017958D01*
X011751Y017920D01*
X011755Y017881D01*
X011755Y017841D01*
X011751Y017802D01*
X011743Y017764D01*
X011731Y017726D01*
X011716Y017690D01*
X011697Y017656D01*
X011675Y017623D01*
X011650Y017593D01*
X011622Y017566D01*
X011591Y017541D01*
X011558Y017520D01*
X011523Y017502D01*
X011486Y017488D01*
X011449Y017477D01*
X011410Y017470D01*
X011371Y017467D01*
X011332Y017468D01*
X011293Y017473D01*
X011254Y017482D01*
X011217Y017494D01*
X011181Y017510D01*
X011147Y017530D01*
X011115Y017553D01*
X011086Y017579D01*
X011059Y017608D01*
X011035Y017639D01*
X011015Y017673D01*
X010998Y017708D01*
X010985Y017745D01*
X010975Y017783D01*
X010969Y017822D01*
X010967Y017861D01*
X010967Y021861D02*
X010969Y021900D01*
X010975Y021939D01*
X010985Y021977D01*
X010998Y022014D01*
X011015Y022049D01*
X011035Y022083D01*
X011059Y022114D01*
X011086Y022143D01*
X011115Y022169D01*
X011147Y022192D01*
X011181Y022212D01*
X011217Y022228D01*
X011254Y022240D01*
X011293Y022249D01*
X011332Y022254D01*
X011371Y022255D01*
X011410Y022252D01*
X011449Y022245D01*
X011486Y022234D01*
X011523Y022220D01*
X011558Y022202D01*
X011591Y022181D01*
X011622Y022156D01*
X011650Y022129D01*
X011675Y022099D01*
X011697Y022066D01*
X011716Y022032D01*
X011731Y021996D01*
X011743Y021958D01*
X011751Y021920D01*
X011755Y021881D01*
X011755Y021841D01*
X011751Y021802D01*
X011743Y021764D01*
X011731Y021726D01*
X011716Y021690D01*
X011697Y021656D01*
X011675Y021623D01*
X011650Y021593D01*
X011622Y021566D01*
X011591Y021541D01*
X011558Y021520D01*
X011523Y021502D01*
X011486Y021488D01*
X011449Y021477D01*
X011410Y021470D01*
X011371Y021467D01*
X011332Y021468D01*
X011293Y021473D01*
X011254Y021482D01*
X011217Y021494D01*
X011181Y021510D01*
X011147Y021530D01*
X011115Y021553D01*
X011086Y021579D01*
X011059Y021608D01*
X011035Y021639D01*
X011015Y021673D01*
X010998Y021708D01*
X010985Y021745D01*
X010975Y021783D01*
X010969Y021822D01*
X010967Y021861D01*
X010967Y024111D02*
X010969Y024150D01*
X010975Y024189D01*
X010985Y024227D01*
X010998Y024264D01*
X011015Y024299D01*
X011035Y024333D01*
X011059Y024364D01*
X011086Y024393D01*
X011115Y024419D01*
X011147Y024442D01*
X011181Y024462D01*
X011217Y024478D01*
X011254Y024490D01*
X011293Y024499D01*
X011332Y024504D01*
X011371Y024505D01*
X011410Y024502D01*
X011449Y024495D01*
X011486Y024484D01*
X011523Y024470D01*
X011558Y024452D01*
X011591Y024431D01*
X011622Y024406D01*
X011650Y024379D01*
X011675Y024349D01*
X011697Y024316D01*
X011716Y024282D01*
X011731Y024246D01*
X011743Y024208D01*
X011751Y024170D01*
X011755Y024131D01*
X011755Y024091D01*
X011751Y024052D01*
X011743Y024014D01*
X011731Y023976D01*
X011716Y023940D01*
X011697Y023906D01*
X011675Y023873D01*
X011650Y023843D01*
X011622Y023816D01*
X011591Y023791D01*
X011558Y023770D01*
X011523Y023752D01*
X011486Y023738D01*
X011449Y023727D01*
X011410Y023720D01*
X011371Y023717D01*
X011332Y023718D01*
X011293Y023723D01*
X011254Y023732D01*
X011217Y023744D01*
X011181Y023760D01*
X011147Y023780D01*
X011115Y023803D01*
X011086Y023829D01*
X011059Y023858D01*
X011035Y023889D01*
X011015Y023923D01*
X010998Y023958D01*
X010985Y023995D01*
X010975Y024033D01*
X010969Y024072D01*
X010967Y024111D01*
X010967Y028111D02*
X010969Y028150D01*
X010975Y028189D01*
X010985Y028227D01*
X010998Y028264D01*
X011015Y028299D01*
X011035Y028333D01*
X011059Y028364D01*
X011086Y028393D01*
X011115Y028419D01*
X011147Y028442D01*
X011181Y028462D01*
X011217Y028478D01*
X011254Y028490D01*
X011293Y028499D01*
X011332Y028504D01*
X011371Y028505D01*
X011410Y028502D01*
X011449Y028495D01*
X011486Y028484D01*
X011523Y028470D01*
X011558Y028452D01*
X011591Y028431D01*
X011622Y028406D01*
X011650Y028379D01*
X011675Y028349D01*
X011697Y028316D01*
X011716Y028282D01*
X011731Y028246D01*
X011743Y028208D01*
X011751Y028170D01*
X011755Y028131D01*
X011755Y028091D01*
X011751Y028052D01*
X011743Y028014D01*
X011731Y027976D01*
X011716Y027940D01*
X011697Y027906D01*
X011675Y027873D01*
X011650Y027843D01*
X011622Y027816D01*
X011591Y027791D01*
X011558Y027770D01*
X011523Y027752D01*
X011486Y027738D01*
X011449Y027727D01*
X011410Y027720D01*
X011371Y027717D01*
X011332Y027718D01*
X011293Y027723D01*
X011254Y027732D01*
X011217Y027744D01*
X011181Y027760D01*
X011147Y027780D01*
X011115Y027803D01*
X011086Y027829D01*
X011059Y027858D01*
X011035Y027889D01*
X011015Y027923D01*
X010998Y027958D01*
X010985Y027995D01*
X010975Y028033D01*
X010969Y028072D01*
X010967Y028111D01*
X010967Y030611D02*
X010969Y030650D01*
X010975Y030689D01*
X010985Y030727D01*
X010998Y030764D01*
X011015Y030799D01*
X011035Y030833D01*
X011059Y030864D01*
X011086Y030893D01*
X011115Y030919D01*
X011147Y030942D01*
X011181Y030962D01*
X011217Y030978D01*
X011254Y030990D01*
X011293Y030999D01*
X011332Y031004D01*
X011371Y031005D01*
X011410Y031002D01*
X011449Y030995D01*
X011486Y030984D01*
X011523Y030970D01*
X011558Y030952D01*
X011591Y030931D01*
X011622Y030906D01*
X011650Y030879D01*
X011675Y030849D01*
X011697Y030816D01*
X011716Y030782D01*
X011731Y030746D01*
X011743Y030708D01*
X011751Y030670D01*
X011755Y030631D01*
X011755Y030591D01*
X011751Y030552D01*
X011743Y030514D01*
X011731Y030476D01*
X011716Y030440D01*
X011697Y030406D01*
X011675Y030373D01*
X011650Y030343D01*
X011622Y030316D01*
X011591Y030291D01*
X011558Y030270D01*
X011523Y030252D01*
X011486Y030238D01*
X011449Y030227D01*
X011410Y030220D01*
X011371Y030217D01*
X011332Y030218D01*
X011293Y030223D01*
X011254Y030232D01*
X011217Y030244D01*
X011181Y030260D01*
X011147Y030280D01*
X011115Y030303D01*
X011086Y030329D01*
X011059Y030358D01*
X011035Y030389D01*
X011015Y030423D01*
X010998Y030458D01*
X010985Y030495D01*
X010975Y030533D01*
X010969Y030572D01*
X010967Y030611D01*
X010967Y034611D02*
X010969Y034650D01*
X010975Y034689D01*
X010985Y034727D01*
X010998Y034764D01*
X011015Y034799D01*
X011035Y034833D01*
X011059Y034864D01*
X011086Y034893D01*
X011115Y034919D01*
X011147Y034942D01*
X011181Y034962D01*
X011217Y034978D01*
X011254Y034990D01*
X011293Y034999D01*
X011332Y035004D01*
X011371Y035005D01*
X011410Y035002D01*
X011449Y034995D01*
X011486Y034984D01*
X011523Y034970D01*
X011558Y034952D01*
X011591Y034931D01*
X011622Y034906D01*
X011650Y034879D01*
X011675Y034849D01*
X011697Y034816D01*
X011716Y034782D01*
X011731Y034746D01*
X011743Y034708D01*
X011751Y034670D01*
X011755Y034631D01*
X011755Y034591D01*
X011751Y034552D01*
X011743Y034514D01*
X011731Y034476D01*
X011716Y034440D01*
X011697Y034406D01*
X011675Y034373D01*
X011650Y034343D01*
X011622Y034316D01*
X011591Y034291D01*
X011558Y034270D01*
X011523Y034252D01*
X011486Y034238D01*
X011449Y034227D01*
X011410Y034220D01*
X011371Y034217D01*
X011332Y034218D01*
X011293Y034223D01*
X011254Y034232D01*
X011217Y034244D01*
X011181Y034260D01*
X011147Y034280D01*
X011115Y034303D01*
X011086Y034329D01*
X011059Y034358D01*
X011035Y034389D01*
X011015Y034423D01*
X010998Y034458D01*
X010985Y034495D01*
X010975Y034533D01*
X010969Y034572D01*
X010967Y034611D01*
X010967Y036861D02*
X010969Y036900D01*
X010975Y036939D01*
X010985Y036977D01*
X010998Y037014D01*
X011015Y037049D01*
X011035Y037083D01*
X011059Y037114D01*
X011086Y037143D01*
X011115Y037169D01*
X011147Y037192D01*
X011181Y037212D01*
X011217Y037228D01*
X011254Y037240D01*
X011293Y037249D01*
X011332Y037254D01*
X011371Y037255D01*
X011410Y037252D01*
X011449Y037245D01*
X011486Y037234D01*
X011523Y037220D01*
X011558Y037202D01*
X011591Y037181D01*
X011622Y037156D01*
X011650Y037129D01*
X011675Y037099D01*
X011697Y037066D01*
X011716Y037032D01*
X011731Y036996D01*
X011743Y036958D01*
X011751Y036920D01*
X011755Y036881D01*
X011755Y036841D01*
X011751Y036802D01*
X011743Y036764D01*
X011731Y036726D01*
X011716Y036690D01*
X011697Y036656D01*
X011675Y036623D01*
X011650Y036593D01*
X011622Y036566D01*
X011591Y036541D01*
X011558Y036520D01*
X011523Y036502D01*
X011486Y036488D01*
X011449Y036477D01*
X011410Y036470D01*
X011371Y036467D01*
X011332Y036468D01*
X011293Y036473D01*
X011254Y036482D01*
X011217Y036494D01*
X011181Y036510D01*
X011147Y036530D01*
X011115Y036553D01*
X011086Y036579D01*
X011059Y036608D01*
X011035Y036639D01*
X011015Y036673D01*
X010998Y036708D01*
X010985Y036745D01*
X010975Y036783D01*
X010969Y036822D01*
X010967Y036861D01*
X010967Y040861D02*
X010969Y040900D01*
X010975Y040939D01*
X010985Y040977D01*
X010998Y041014D01*
X011015Y041049D01*
X011035Y041083D01*
X011059Y041114D01*
X011086Y041143D01*
X011115Y041169D01*
X011147Y041192D01*
X011181Y041212D01*
X011217Y041228D01*
X011254Y041240D01*
X011293Y041249D01*
X011332Y041254D01*
X011371Y041255D01*
X011410Y041252D01*
X011449Y041245D01*
X011486Y041234D01*
X011523Y041220D01*
X011558Y041202D01*
X011591Y041181D01*
X011622Y041156D01*
X011650Y041129D01*
X011675Y041099D01*
X011697Y041066D01*
X011716Y041032D01*
X011731Y040996D01*
X011743Y040958D01*
X011751Y040920D01*
X011755Y040881D01*
X011755Y040841D01*
X011751Y040802D01*
X011743Y040764D01*
X011731Y040726D01*
X011716Y040690D01*
X011697Y040656D01*
X011675Y040623D01*
X011650Y040593D01*
X011622Y040566D01*
X011591Y040541D01*
X011558Y040520D01*
X011523Y040502D01*
X011486Y040488D01*
X011449Y040477D01*
X011410Y040470D01*
X011371Y040467D01*
X011332Y040468D01*
X011293Y040473D01*
X011254Y040482D01*
X011217Y040494D01*
X011181Y040510D01*
X011147Y040530D01*
X011115Y040553D01*
X011086Y040579D01*
X011059Y040608D01*
X011035Y040639D01*
X011015Y040673D01*
X010998Y040708D01*
X010985Y040745D01*
X010975Y040783D01*
X010969Y040822D01*
X010967Y040861D01*
X015717Y011361D02*
X015719Y011400D01*
X015725Y011439D01*
X015735Y011477D01*
X015748Y011514D01*
X015765Y011549D01*
X015785Y011583D01*
X015809Y011614D01*
X015836Y011643D01*
X015865Y011669D01*
X015897Y011692D01*
X015931Y011712D01*
X015967Y011728D01*
X016004Y011740D01*
X016043Y011749D01*
X016082Y011754D01*
X016121Y011755D01*
X016160Y011752D01*
X016199Y011745D01*
X016236Y011734D01*
X016273Y011720D01*
X016308Y011702D01*
X016341Y011681D01*
X016372Y011656D01*
X016400Y011629D01*
X016425Y011599D01*
X016447Y011566D01*
X016466Y011532D01*
X016481Y011496D01*
X016493Y011458D01*
X016501Y011420D01*
X016505Y011381D01*
X016505Y011341D01*
X016501Y011302D01*
X016493Y011264D01*
X016481Y011226D01*
X016466Y011190D01*
X016447Y011156D01*
X016425Y011123D01*
X016400Y011093D01*
X016372Y011066D01*
X016341Y011041D01*
X016308Y011020D01*
X016273Y011002D01*
X016236Y010988D01*
X016199Y010977D01*
X016160Y010970D01*
X016121Y010967D01*
X016082Y010968D01*
X016043Y010973D01*
X016004Y010982D01*
X015967Y010994D01*
X015931Y011010D01*
X015897Y011030D01*
X015865Y011053D01*
X015836Y011079D01*
X015809Y011108D01*
X015785Y011139D01*
X015765Y011173D01*
X015748Y011208D01*
X015735Y011245D01*
X015725Y011283D01*
X015719Y011322D01*
X015717Y011361D01*
X019717Y011361D02*
X019719Y011400D01*
X019725Y011439D01*
X019735Y011477D01*
X019748Y011514D01*
X019765Y011549D01*
X019785Y011583D01*
X019809Y011614D01*
X019836Y011643D01*
X019865Y011669D01*
X019897Y011692D01*
X019931Y011712D01*
X019967Y011728D01*
X020004Y011740D01*
X020043Y011749D01*
X020082Y011754D01*
X020121Y011755D01*
X020160Y011752D01*
X020199Y011745D01*
X020236Y011734D01*
X020273Y011720D01*
X020308Y011702D01*
X020341Y011681D01*
X020372Y011656D01*
X020400Y011629D01*
X020425Y011599D01*
X020447Y011566D01*
X020466Y011532D01*
X020481Y011496D01*
X020493Y011458D01*
X020501Y011420D01*
X020505Y011381D01*
X020505Y011341D01*
X020501Y011302D01*
X020493Y011264D01*
X020481Y011226D01*
X020466Y011190D01*
X020447Y011156D01*
X020425Y011123D01*
X020400Y011093D01*
X020372Y011066D01*
X020341Y011041D01*
X020308Y011020D01*
X020273Y011002D01*
X020236Y010988D01*
X020199Y010977D01*
X020160Y010970D01*
X020121Y010967D01*
X020082Y010968D01*
X020043Y010973D01*
X020004Y010982D01*
X019967Y010994D01*
X019931Y011010D01*
X019897Y011030D01*
X019865Y011053D01*
X019836Y011079D01*
X019809Y011108D01*
X019785Y011139D01*
X019765Y011173D01*
X019748Y011208D01*
X019735Y011245D01*
X019725Y011283D01*
X019719Y011322D01*
X019717Y011361D01*
X022217Y011361D02*
X022219Y011400D01*
X022225Y011439D01*
X022235Y011477D01*
X022248Y011514D01*
X022265Y011549D01*
X022285Y011583D01*
X022309Y011614D01*
X022336Y011643D01*
X022365Y011669D01*
X022397Y011692D01*
X022431Y011712D01*
X022467Y011728D01*
X022504Y011740D01*
X022543Y011749D01*
X022582Y011754D01*
X022621Y011755D01*
X022660Y011752D01*
X022699Y011745D01*
X022736Y011734D01*
X022773Y011720D01*
X022808Y011702D01*
X022841Y011681D01*
X022872Y011656D01*
X022900Y011629D01*
X022925Y011599D01*
X022947Y011566D01*
X022966Y011532D01*
X022981Y011496D01*
X022993Y011458D01*
X023001Y011420D01*
X023005Y011381D01*
X023005Y011341D01*
X023001Y011302D01*
X022993Y011264D01*
X022981Y011226D01*
X022966Y011190D01*
X022947Y011156D01*
X022925Y011123D01*
X022900Y011093D01*
X022872Y011066D01*
X022841Y011041D01*
X022808Y011020D01*
X022773Y011002D01*
X022736Y010988D01*
X022699Y010977D01*
X022660Y010970D01*
X022621Y010967D01*
X022582Y010968D01*
X022543Y010973D01*
X022504Y010982D01*
X022467Y010994D01*
X022431Y011010D01*
X022397Y011030D01*
X022365Y011053D01*
X022336Y011079D01*
X022309Y011108D01*
X022285Y011139D01*
X022265Y011173D01*
X022248Y011208D01*
X022235Y011245D01*
X022225Y011283D01*
X022219Y011322D01*
X022217Y011361D01*
X026217Y011361D02*
X026219Y011400D01*
X026225Y011439D01*
X026235Y011477D01*
X026248Y011514D01*
X026265Y011549D01*
X026285Y011583D01*
X026309Y011614D01*
X026336Y011643D01*
X026365Y011669D01*
X026397Y011692D01*
X026431Y011712D01*
X026467Y011728D01*
X026504Y011740D01*
X026543Y011749D01*
X026582Y011754D01*
X026621Y011755D01*
X026660Y011752D01*
X026699Y011745D01*
X026736Y011734D01*
X026773Y011720D01*
X026808Y011702D01*
X026841Y011681D01*
X026872Y011656D01*
X026900Y011629D01*
X026925Y011599D01*
X026947Y011566D01*
X026966Y011532D01*
X026981Y011496D01*
X026993Y011458D01*
X027001Y011420D01*
X027005Y011381D01*
X027005Y011341D01*
X027001Y011302D01*
X026993Y011264D01*
X026981Y011226D01*
X026966Y011190D01*
X026947Y011156D01*
X026925Y011123D01*
X026900Y011093D01*
X026872Y011066D01*
X026841Y011041D01*
X026808Y011020D01*
X026773Y011002D01*
X026736Y010988D01*
X026699Y010977D01*
X026660Y010970D01*
X026621Y010967D01*
X026582Y010968D01*
X026543Y010973D01*
X026504Y010982D01*
X026467Y010994D01*
X026431Y011010D01*
X026397Y011030D01*
X026365Y011053D01*
X026336Y011079D01*
X026309Y011108D01*
X026285Y011139D01*
X026265Y011173D01*
X026248Y011208D01*
X026235Y011245D01*
X026225Y011283D01*
X026219Y011322D01*
X026217Y011361D01*
X028467Y011361D02*
X028469Y011400D01*
X028475Y011439D01*
X028485Y011477D01*
X028498Y011514D01*
X028515Y011549D01*
X028535Y011583D01*
X028559Y011614D01*
X028586Y011643D01*
X028615Y011669D01*
X028647Y011692D01*
X028681Y011712D01*
X028717Y011728D01*
X028754Y011740D01*
X028793Y011749D01*
X028832Y011754D01*
X028871Y011755D01*
X028910Y011752D01*
X028949Y011745D01*
X028986Y011734D01*
X029023Y011720D01*
X029058Y011702D01*
X029091Y011681D01*
X029122Y011656D01*
X029150Y011629D01*
X029175Y011599D01*
X029197Y011566D01*
X029216Y011532D01*
X029231Y011496D01*
X029243Y011458D01*
X029251Y011420D01*
X029255Y011381D01*
X029255Y011341D01*
X029251Y011302D01*
X029243Y011264D01*
X029231Y011226D01*
X029216Y011190D01*
X029197Y011156D01*
X029175Y011123D01*
X029150Y011093D01*
X029122Y011066D01*
X029091Y011041D01*
X029058Y011020D01*
X029023Y011002D01*
X028986Y010988D01*
X028949Y010977D01*
X028910Y010970D01*
X028871Y010967D01*
X028832Y010968D01*
X028793Y010973D01*
X028754Y010982D01*
X028717Y010994D01*
X028681Y011010D01*
X028647Y011030D01*
X028615Y011053D01*
X028586Y011079D01*
X028559Y011108D01*
X028535Y011139D01*
X028515Y011173D01*
X028498Y011208D01*
X028485Y011245D01*
X028475Y011283D01*
X028469Y011322D01*
X028467Y011361D01*
X032467Y011361D02*
X032469Y011400D01*
X032475Y011439D01*
X032485Y011477D01*
X032498Y011514D01*
X032515Y011549D01*
X032535Y011583D01*
X032559Y011614D01*
X032586Y011643D01*
X032615Y011669D01*
X032647Y011692D01*
X032681Y011712D01*
X032717Y011728D01*
X032754Y011740D01*
X032793Y011749D01*
X032832Y011754D01*
X032871Y011755D01*
X032910Y011752D01*
X032949Y011745D01*
X032986Y011734D01*
X033023Y011720D01*
X033058Y011702D01*
X033091Y011681D01*
X033122Y011656D01*
X033150Y011629D01*
X033175Y011599D01*
X033197Y011566D01*
X033216Y011532D01*
X033231Y011496D01*
X033243Y011458D01*
X033251Y011420D01*
X033255Y011381D01*
X033255Y011341D01*
X033251Y011302D01*
X033243Y011264D01*
X033231Y011226D01*
X033216Y011190D01*
X033197Y011156D01*
X033175Y011123D01*
X033150Y011093D01*
X033122Y011066D01*
X033091Y011041D01*
X033058Y011020D01*
X033023Y011002D01*
X032986Y010988D01*
X032949Y010977D01*
X032910Y010970D01*
X032871Y010967D01*
X032832Y010968D01*
X032793Y010973D01*
X032754Y010982D01*
X032717Y010994D01*
X032681Y011010D01*
X032647Y011030D01*
X032615Y011053D01*
X032586Y011079D01*
X032559Y011108D01*
X032535Y011139D01*
X032515Y011173D01*
X032498Y011208D01*
X032485Y011245D01*
X032475Y011283D01*
X032469Y011322D01*
X032467Y011361D01*
D11*
X032257Y011346D02*
X029465Y011346D01*
X029465Y011248D02*
X032257Y011248D01*
X032257Y011241D02*
X032349Y011019D01*
X032519Y010849D01*
X032741Y010757D01*
X032981Y010757D01*
X033203Y010849D01*
X033373Y011019D01*
X033465Y011241D01*
X033465Y011481D01*
X033373Y011703D01*
X033203Y011873D01*
X032981Y011965D01*
X032741Y011965D01*
X032519Y011873D01*
X032349Y011703D01*
X032257Y011481D01*
X032257Y011241D01*
X032295Y011149D02*
X029427Y011149D01*
X029465Y011241D02*
X029373Y011019D01*
X029203Y010849D01*
X028981Y010757D01*
X028741Y010757D01*
X028519Y010849D01*
X028349Y011019D01*
X028257Y011241D01*
X028257Y011481D01*
X028349Y011703D01*
X028519Y011873D01*
X028741Y011965D01*
X028981Y011965D01*
X029203Y011873D01*
X029373Y011703D01*
X029465Y011481D01*
X029465Y011241D01*
X029465Y011445D02*
X032257Y011445D01*
X032283Y011543D02*
X029439Y011543D01*
X029398Y011642D02*
X032324Y011642D01*
X032387Y011741D02*
X029335Y011741D01*
X029236Y011839D02*
X032485Y011839D01*
X032676Y011938D02*
X029046Y011938D01*
X028676Y011938D02*
X026796Y011938D01*
X026731Y011965D02*
X026491Y011965D01*
X026269Y011873D01*
X026099Y011703D01*
X026007Y011481D01*
X026007Y011241D01*
X026099Y011019D01*
X026269Y010849D01*
X026491Y010757D01*
X026731Y010757D01*
X026953Y010849D01*
X027123Y011019D01*
X027215Y011241D01*
X027215Y011481D01*
X027123Y011703D01*
X026953Y011873D01*
X026731Y011965D01*
X026986Y011839D02*
X028485Y011839D01*
X028387Y011741D02*
X027085Y011741D01*
X027148Y011642D02*
X028324Y011642D01*
X028283Y011543D02*
X027189Y011543D01*
X027215Y011445D02*
X028257Y011445D01*
X028257Y011346D02*
X027215Y011346D01*
X027215Y011248D02*
X028257Y011248D01*
X028295Y011149D02*
X027177Y011149D01*
X027136Y011051D02*
X028336Y011051D01*
X028416Y010952D02*
X027056Y010952D01*
X026957Y010854D02*
X028514Y010854D01*
X029207Y010854D02*
X032514Y010854D01*
X032416Y010952D02*
X029306Y010952D01*
X029386Y011051D02*
X032336Y011051D01*
X033207Y010854D02*
X044101Y010854D01*
X044101Y010952D02*
X033306Y010952D01*
X033386Y011051D02*
X044101Y011051D01*
X044101Y011149D02*
X033427Y011149D01*
X033465Y011248D02*
X043951Y011248D01*
X043973Y011226D02*
X044101Y011226D01*
X044101Y010571D01*
X010571Y010571D01*
X010571Y041861D01*
X012474Y041861D01*
X012420Y041807D01*
X012347Y041733D01*
X012307Y041638D01*
X012307Y041538D01*
X012307Y041434D01*
X012347Y041339D01*
X012407Y041278D01*
X012407Y041234D01*
X012447Y041139D01*
X012520Y041066D01*
X012615Y041026D01*
X012815Y041026D01*
X012919Y041026D01*
X013014Y041066D01*
X013032Y041083D01*
X013050Y041066D01*
X013145Y041026D01*
X013249Y041026D01*
X013344Y041066D01*
X013412Y041133D01*
X013479Y041066D01*
X013575Y041026D01*
X013678Y041026D01*
X013774Y041066D01*
X013899Y041191D01*
X013924Y041166D01*
X014024Y041066D01*
X014119Y041026D01*
X014223Y041026D01*
X014319Y041026D01*
X014423Y041026D01*
X014518Y041066D01*
X014593Y041140D01*
X014668Y041066D01*
X014764Y041026D01*
X014867Y041026D01*
X015067Y041026D01*
X015163Y041066D01*
X015236Y041139D01*
X015263Y041166D01*
X015336Y041239D01*
X015376Y041334D01*
X015376Y041838D01*
X015366Y041861D01*
X015912Y041861D01*
X015857Y041807D01*
X015784Y041733D01*
X015744Y041638D01*
X015744Y041234D01*
X015784Y041139D01*
X015857Y041066D01*
X015953Y041026D01*
X016056Y041026D01*
X016152Y041066D01*
X016205Y041118D01*
X016257Y041066D01*
X016353Y041026D01*
X016456Y041026D01*
X016527Y041055D01*
X016597Y041026D01*
X016897Y041026D01*
X017001Y041026D01*
X017096Y041066D01*
X017114Y041083D01*
X017132Y041066D01*
X017227Y041026D01*
X017531Y041026D01*
X017594Y041052D01*
X017657Y041026D01*
X017760Y041026D01*
X017856Y041066D01*
X017981Y041191D01*
X018006Y041166D01*
X018106Y041066D01*
X018201Y041026D01*
X018305Y041026D01*
X018605Y041026D01*
X018675Y041055D01*
X018746Y041026D01*
X019046Y041026D01*
X019149Y041026D01*
X019245Y041066D01*
X019320Y041140D01*
X019395Y041066D01*
X019490Y041026D01*
X019594Y041026D01*
X019894Y041026D01*
X019989Y041066D01*
X020014Y041090D01*
X020039Y041066D01*
X020135Y041026D01*
X020335Y041026D01*
X020438Y041026D01*
X020534Y041066D01*
X020609Y041140D01*
X020611Y041139D01*
X020684Y041066D01*
X020779Y041026D01*
X020979Y041026D01*
X021083Y041026D01*
X021178Y041066D01*
X021352Y041239D01*
X021391Y041334D01*
X021391Y041438D01*
X021352Y041533D01*
X021349Y041536D01*
X021352Y041539D01*
X021391Y041635D01*
X021391Y041738D01*
X021391Y041838D01*
X021382Y041861D01*
X021827Y041861D01*
X021800Y041834D01*
X021760Y041738D01*
X021760Y041238D01*
X021760Y041134D01*
X021800Y041039D01*
X021900Y040939D01*
X021942Y040896D01*
X021891Y040896D01*
X021789Y040854D01*
X021523Y040588D01*
X021480Y040485D01*
X021480Y040374D01*
X021480Y040187D01*
X021523Y040084D01*
X021602Y040005D01*
X021789Y039819D01*
X021891Y039776D01*
X022003Y039776D01*
X022083Y039809D01*
X022162Y039776D01*
X022554Y039776D01*
X022657Y039819D01*
X022680Y039842D01*
X022704Y039819D01*
X022807Y039776D01*
X023087Y039776D01*
X023199Y039776D01*
X023301Y039819D01*
X023311Y039828D01*
X023321Y039819D01*
X023423Y039776D01*
X023535Y039776D01*
X023638Y039819D01*
X023825Y040005D01*
X023903Y040084D01*
X023946Y040187D01*
X023946Y040374D01*
X023946Y040485D01*
X023903Y040588D01*
X023638Y040854D01*
X023535Y040896D01*
X023423Y040896D01*
X023321Y040854D01*
X023242Y040775D01*
X023212Y040704D01*
X023199Y040710D01*
X023087Y040710D01*
X022807Y040710D01*
X022704Y040667D01*
X022680Y040643D01*
X022657Y040667D01*
X022554Y040710D01*
X022443Y040710D01*
X022212Y040710D01*
X022185Y040775D01*
X022134Y040826D01*
X022272Y040826D01*
X022367Y040865D01*
X022441Y040939D01*
X022480Y041034D01*
X022480Y041078D01*
X022541Y041139D01*
X022542Y041140D01*
X022617Y041066D01*
X022713Y041026D01*
X022816Y041026D01*
X023013Y041026D01*
X023117Y041026D01*
X023212Y041066D01*
X023285Y041139D01*
X023325Y041234D01*
X023325Y041861D01*
X023894Y041861D01*
X023894Y041543D01*
X023806Y041506D01*
X023733Y041433D01*
X023694Y041338D01*
X023694Y041234D01*
X023733Y041139D01*
X023806Y041066D01*
X023902Y041026D01*
X024406Y041026D01*
X024476Y041055D01*
X024546Y041026D01*
X025050Y041026D01*
X025146Y041066D01*
X025171Y041090D01*
X025195Y041066D01*
X025291Y041026D01*
X025491Y041026D01*
X025595Y041026D01*
X025690Y041066D01*
X025715Y041090D01*
X025740Y041066D01*
X025835Y041026D01*
X026236Y041026D01*
X026339Y041026D01*
X026435Y041066D01*
X026508Y041139D01*
X026547Y041234D01*
X026547Y041338D01*
X026508Y041433D01*
X026393Y041548D01*
X026435Y041566D01*
X026508Y041639D01*
X026547Y041735D01*
X026547Y041838D01*
X026538Y041861D01*
X026969Y041861D01*
X026941Y041834D01*
X026902Y041738D01*
X026902Y041634D01*
X026902Y041434D01*
X026941Y041339D01*
X027014Y041266D01*
X027214Y041066D01*
X027310Y041026D01*
X027413Y041026D01*
X027484Y041055D01*
X027554Y041026D01*
X027958Y041026D01*
X028053Y041066D01*
X028071Y041083D01*
X028089Y041066D01*
X028184Y041026D01*
X028287Y041026D01*
X028383Y041066D01*
X028583Y041266D01*
X028656Y041339D01*
X028696Y041434D01*
X028696Y041634D01*
X028696Y041738D01*
X028656Y041834D01*
X028629Y041861D01*
X030726Y041861D01*
X030726Y041132D01*
X030547Y041311D01*
X030411Y041311D01*
X030411Y040911D01*
X030311Y040911D01*
X030311Y041311D01*
X030175Y041311D01*
X029911Y041047D01*
X029911Y040911D01*
X030311Y040911D01*
X030311Y040811D01*
X030411Y040811D01*
X030411Y040411D01*
X030547Y040411D01*
X030726Y040590D01*
X030726Y040132D01*
X030547Y040311D01*
X030411Y040311D01*
X030411Y039911D01*
X030311Y039911D01*
X030311Y040311D01*
X030175Y040311D01*
X029911Y040047D01*
X029911Y039911D01*
X030311Y039911D01*
X030311Y039811D01*
X030411Y039811D01*
X030411Y039411D01*
X030547Y039411D01*
X030726Y039590D01*
X030726Y035094D01*
X029196Y033564D01*
X029196Y039411D01*
X029311Y039411D01*
X029311Y039811D01*
X029411Y039811D01*
X029411Y039911D01*
X029311Y039911D01*
X029311Y040311D01*
X029221Y040311D01*
X029261Y040351D01*
X029572Y040351D01*
X029871Y040650D01*
X029871Y041072D01*
X029572Y041371D01*
X029150Y041371D01*
X028851Y041072D01*
X028851Y040761D01*
X028786Y040696D01*
X028644Y040696D01*
X028475Y040626D01*
X028346Y040496D01*
X028276Y040327D01*
X028276Y035575D01*
X027905Y035946D01*
X027317Y035946D01*
X026901Y035530D01*
X026901Y034942D01*
X027317Y034526D01*
X027905Y034526D01*
X028276Y034897D01*
X028276Y032926D01*
X026361Y031011D01*
X025446Y031926D01*
X025446Y037481D01*
X025491Y037527D01*
X025491Y037945D01*
X025195Y038241D01*
X024777Y038241D01*
X024481Y037945D01*
X024481Y037527D01*
X024526Y037481D01*
X024526Y031827D01*
X024526Y031644D01*
X024596Y031475D01*
X025250Y030821D01*
X023019Y030821D01*
X022850Y030751D01*
X022721Y030621D01*
X018971Y026871D01*
X018901Y026702D01*
X018901Y026519D01*
X018901Y025407D01*
X018826Y025332D01*
X018826Y024889D01*
X019139Y024576D01*
X019582Y024576D01*
X019896Y024889D01*
X019896Y025332D01*
X019821Y025407D01*
X019821Y026420D01*
X023301Y029901D01*
X025901Y029901D01*
X025901Y029195D01*
X025901Y029193D01*
X025886Y029178D01*
X025861Y029117D01*
X025826Y029082D01*
X025826Y029033D01*
X025801Y028972D01*
X025801Y026375D01*
X025886Y026169D01*
X026044Y026011D01*
X036669Y015386D01*
X036875Y015301D01*
X037097Y015301D01*
X038722Y015301D01*
X038783Y015326D01*
X038832Y015326D01*
X038867Y015361D01*
X038928Y015386D01*
X039086Y015544D01*
X039111Y015605D01*
X039146Y015639D01*
X039146Y015689D01*
X039171Y015750D01*
X039171Y015972D01*
X039146Y016033D01*
X039146Y016082D01*
X039111Y016117D01*
X039086Y016178D01*
X038928Y016336D01*
X038867Y016361D01*
X038832Y016396D01*
X038783Y016396D01*
X038722Y016421D01*
X037218Y016421D01*
X026921Y026718D01*
X026921Y027043D01*
X026941Y027031D01*
X026979Y027021D01*
X027205Y027021D01*
X027205Y027436D01*
X027305Y027436D01*
X027305Y027536D01*
X027661Y027536D01*
X027661Y027821D01*
X027650Y027859D01*
X027631Y027893D01*
X027603Y027921D01*
X027568Y027941D01*
X027530Y027951D01*
X027305Y027951D01*
X027305Y027536D01*
X027205Y027536D01*
X027205Y027951D01*
X026979Y027951D01*
X026941Y027941D01*
X026921Y027929D01*
X026921Y028972D01*
X026896Y029033D01*
X026896Y029082D01*
X026861Y029117D01*
X026855Y029131D01*
X026903Y029179D01*
X026907Y029176D01*
X026941Y029156D01*
X026979Y029146D01*
X027205Y029146D01*
X027205Y029561D01*
X027305Y029561D01*
X027305Y029661D01*
X027661Y029661D01*
X027661Y029946D01*
X027650Y029984D01*
X027631Y030018D01*
X027603Y030046D01*
X027568Y030066D01*
X027530Y030076D01*
X027305Y030076D01*
X027305Y029661D01*
X027205Y029661D01*
X027205Y030076D01*
X026979Y030076D01*
X026941Y030066D01*
X026907Y030046D01*
X026903Y030043D01*
X026821Y030125D01*
X026821Y030170D01*
X027851Y031200D01*
X027851Y027663D01*
X027851Y027559D01*
X027891Y027464D01*
X037141Y018214D01*
X037214Y018141D01*
X037309Y018101D01*
X042253Y018101D01*
X044101Y016253D01*
X044101Y012496D01*
X043973Y012496D01*
X043601Y012124D01*
X043601Y011598D01*
X043973Y011226D01*
X043852Y011346D02*
X033465Y011346D01*
X033465Y011445D02*
X043754Y011445D01*
X043655Y011543D02*
X033439Y011543D01*
X033398Y011642D02*
X043601Y011642D01*
X043601Y011741D02*
X033335Y011741D01*
X033236Y011839D02*
X043601Y011839D01*
X043601Y011938D02*
X033046Y011938D01*
X032137Y012948D02*
X032274Y013085D01*
X032348Y013264D01*
X032348Y013458D01*
X032274Y013637D01*
X032137Y013774D01*
X031958Y013848D01*
X031764Y013848D01*
X031585Y013774D01*
X031448Y013637D01*
X031374Y013458D01*
X031374Y013264D01*
X031448Y013085D01*
X031585Y012948D01*
X031764Y012874D01*
X031958Y012874D01*
X032137Y012948D01*
X032077Y012923D02*
X044101Y012923D01*
X044101Y012825D02*
X013515Y012825D01*
X013458Y012848D02*
X013637Y012774D01*
X013774Y012637D01*
X013848Y012458D01*
X013848Y012264D01*
X013774Y012085D01*
X013637Y011948D01*
X013458Y011874D01*
X013264Y011874D01*
X013085Y011948D01*
X012948Y012085D01*
X012874Y012264D01*
X012874Y012458D01*
X012948Y012637D01*
X013085Y012774D01*
X013264Y012848D01*
X013458Y012848D01*
X013458Y012874D02*
X013637Y012948D01*
X013774Y013085D01*
X013848Y013264D01*
X013848Y013458D01*
X013774Y013637D01*
X013637Y013774D01*
X013458Y013848D01*
X013264Y013848D01*
X013085Y013774D01*
X012948Y013637D01*
X012874Y013458D01*
X012874Y013264D01*
X012948Y013085D01*
X013085Y012948D01*
X013264Y012874D01*
X013458Y012874D01*
X013577Y012923D02*
X017895Y012923D01*
X017835Y012948D02*
X018014Y012874D01*
X018208Y012874D01*
X018387Y012948D01*
X018524Y013085D01*
X018598Y013264D01*
X018598Y013458D01*
X018524Y013637D01*
X018387Y013774D01*
X018208Y013848D01*
X018014Y013848D01*
X017835Y013774D01*
X017698Y013637D01*
X017624Y013458D01*
X017624Y013264D01*
X017698Y013085D01*
X017835Y012948D01*
X017761Y013022D02*
X013711Y013022D01*
X013788Y013120D02*
X017683Y013120D01*
X017643Y013219D02*
X013829Y013219D01*
X013848Y013317D02*
X017624Y013317D01*
X017624Y013416D02*
X013848Y013416D01*
X013825Y013514D02*
X017647Y013514D01*
X017688Y013613D02*
X013784Y013613D01*
X013699Y013711D02*
X017772Y013711D01*
X017922Y013810D02*
X013550Y013810D01*
X013172Y013810D02*
X010571Y013810D01*
X010571Y013909D02*
X044101Y013909D01*
X044101Y014007D02*
X010571Y014007D01*
X010571Y014106D02*
X044101Y014106D01*
X044101Y014204D02*
X010571Y014204D01*
X010571Y014303D02*
X044101Y014303D01*
X044101Y014401D02*
X010571Y014401D01*
X010571Y014500D02*
X044101Y014500D01*
X044101Y014598D02*
X010571Y014598D01*
X010571Y014697D02*
X044101Y014697D01*
X044101Y014795D02*
X011573Y014795D01*
X011481Y014757D02*
X011703Y014849D01*
X011873Y015019D01*
X011965Y015241D01*
X011965Y015481D01*
X011873Y015703D01*
X011703Y015873D01*
X011481Y015965D01*
X011241Y015965D01*
X011019Y015873D01*
X010849Y015703D01*
X010757Y015481D01*
X010757Y015241D01*
X010849Y015019D01*
X011019Y014849D01*
X011241Y014757D01*
X011481Y014757D01*
X011748Y014894D02*
X044101Y014894D01*
X044101Y014992D02*
X011846Y014992D01*
X011903Y015091D02*
X044101Y015091D01*
X044101Y015190D02*
X011943Y015190D01*
X011965Y015288D02*
X044101Y015288D01*
X044101Y015387D02*
X038929Y015387D01*
X039027Y015485D02*
X044101Y015485D01*
X044101Y015584D02*
X039102Y015584D01*
X039146Y015682D02*
X044101Y015682D01*
X044101Y015781D02*
X039171Y015781D01*
X039171Y015879D02*
X044101Y015879D01*
X044101Y015978D02*
X039169Y015978D01*
X039146Y016076D02*
X044101Y016076D01*
X044101Y016175D02*
X039087Y016175D01*
X038990Y016274D02*
X044081Y016274D01*
X043982Y016372D02*
X038856Y016372D01*
X037168Y016471D02*
X043884Y016471D01*
X043785Y016569D02*
X037070Y016569D01*
X036971Y016668D02*
X043686Y016668D01*
X043588Y016766D02*
X036873Y016766D01*
X036774Y016865D02*
X043489Y016865D01*
X043391Y016963D02*
X036675Y016963D01*
X036577Y017062D02*
X043292Y017062D01*
X043194Y017160D02*
X036478Y017160D01*
X036380Y017259D02*
X043095Y017259D01*
X042997Y017358D02*
X036281Y017358D01*
X036183Y017456D02*
X042898Y017456D01*
X042800Y017555D02*
X036084Y017555D01*
X035986Y017653D02*
X042701Y017653D01*
X042602Y017752D02*
X035887Y017752D01*
X035789Y017850D02*
X042504Y017850D01*
X042405Y017949D02*
X035690Y017949D01*
X035591Y018047D02*
X042307Y018047D01*
X042477Y018244D02*
X049581Y018244D01*
X049581Y018146D02*
X042576Y018146D01*
X042675Y018047D02*
X049581Y018047D01*
X049581Y017949D02*
X042773Y017949D01*
X042872Y017850D02*
X049581Y017850D01*
X049581Y017752D02*
X042970Y017752D01*
X043069Y017653D02*
X049581Y017653D01*
X049581Y017555D02*
X043167Y017555D01*
X043266Y017456D02*
X049581Y017456D01*
X049581Y017358D02*
X043364Y017358D01*
X043463Y017259D02*
X049581Y017259D01*
X049581Y017160D02*
X043561Y017160D01*
X043660Y017062D02*
X049581Y017062D01*
X049581Y016963D02*
X043759Y016963D01*
X043857Y016865D02*
X049581Y016865D01*
X049581Y016766D02*
X043956Y016766D01*
X044054Y016668D02*
X049581Y016668D01*
X049581Y016569D02*
X044153Y016569D01*
X044251Y016471D02*
X049581Y016471D01*
X049581Y016372D02*
X044350Y016372D01*
X044361Y016361D02*
X042361Y018361D01*
X037361Y018361D01*
X028111Y027611D01*
X028111Y031545D01*
X029075Y032509D01*
X029136Y032656D01*
X029136Y032816D01*
X029136Y033136D01*
X030986Y034986D01*
X030986Y039600D01*
X031175Y039411D01*
X031311Y039411D01*
X031311Y039811D01*
X031411Y039811D01*
X031411Y039911D01*
X031311Y039911D01*
X031311Y040311D01*
X031175Y040311D01*
X030986Y040122D01*
X030986Y040600D01*
X031175Y040411D01*
X031311Y040411D01*
X031311Y040811D01*
X031411Y040811D01*
X031411Y040911D01*
X031811Y040911D01*
X031811Y041047D01*
X031547Y041311D01*
X031411Y041311D01*
X031411Y040911D01*
X031311Y040911D01*
X031311Y041311D01*
X031175Y041311D01*
X030986Y041122D01*
X030986Y041861D01*
X049581Y041861D01*
X049581Y010511D01*
X044361Y010511D01*
X044361Y011286D01*
X044474Y011286D01*
X044811Y011623D01*
X044811Y011811D01*
X044361Y011811D01*
X044361Y011911D01*
X044811Y011911D01*
X044811Y012099D01*
X044474Y012436D01*
X044361Y012436D01*
X044361Y016361D01*
X044361Y016274D02*
X049581Y016274D01*
X049581Y016175D02*
X044361Y016175D01*
X044361Y016076D02*
X049581Y016076D01*
X049581Y015978D02*
X044361Y015978D01*
X044361Y015879D02*
X049581Y015879D01*
X049581Y015781D02*
X044361Y015781D01*
X044361Y015682D02*
X049581Y015682D01*
X049581Y015584D02*
X044361Y015584D01*
X044361Y015485D02*
X049581Y015485D01*
X049581Y015387D02*
X044361Y015387D01*
X044361Y015288D02*
X049581Y015288D01*
X049581Y015190D02*
X044361Y015190D01*
X044361Y015091D02*
X049581Y015091D01*
X049581Y014992D02*
X044361Y014992D01*
X044361Y014894D02*
X049581Y014894D01*
X049581Y014795D02*
X044361Y014795D01*
X044361Y014697D02*
X049581Y014697D01*
X049581Y014598D02*
X044361Y014598D01*
X044361Y014500D02*
X049581Y014500D01*
X049581Y014401D02*
X044361Y014401D01*
X044361Y014303D02*
X049581Y014303D01*
X049581Y014204D02*
X044361Y014204D01*
X044361Y014106D02*
X049581Y014106D01*
X049581Y014007D02*
X044361Y014007D01*
X044361Y013909D02*
X049581Y013909D01*
X049581Y013810D02*
X044361Y013810D01*
X044361Y013711D02*
X049581Y013711D01*
X049581Y013613D02*
X044361Y013613D01*
X044361Y013514D02*
X049581Y013514D01*
X049581Y013416D02*
X044361Y013416D01*
X044361Y013317D02*
X049581Y013317D01*
X049581Y013219D02*
X044361Y013219D01*
X044361Y013120D02*
X049581Y013120D01*
X049581Y013022D02*
X044361Y013022D01*
X044361Y012923D02*
X049581Y012923D01*
X049581Y012825D02*
X044361Y012825D01*
X044361Y012726D02*
X049581Y012726D01*
X049581Y012627D02*
X044361Y012627D01*
X044361Y012529D02*
X049581Y012529D01*
X049581Y012430D02*
X048605Y012430D01*
X048599Y012436D02*
X048123Y012436D01*
X047786Y012099D01*
X047786Y011623D01*
X048123Y011286D01*
X048599Y011286D01*
X048936Y011623D01*
X048936Y012099D01*
X048599Y012436D01*
X048703Y012332D02*
X049581Y012332D01*
X049581Y012233D02*
X048802Y012233D01*
X048900Y012135D02*
X049581Y012135D01*
X049581Y012036D02*
X048936Y012036D01*
X048936Y011938D02*
X049581Y011938D01*
X049581Y011839D02*
X048936Y011839D01*
X048936Y011741D02*
X049581Y011741D01*
X049581Y011642D02*
X048936Y011642D01*
X048857Y011543D02*
X049581Y011543D01*
X049581Y011445D02*
X048758Y011445D01*
X048660Y011346D02*
X049581Y011346D01*
X049581Y011248D02*
X044361Y011248D01*
X044361Y011149D02*
X049581Y011149D01*
X049581Y011051D02*
X044361Y011051D01*
X044361Y010952D02*
X049581Y010952D01*
X049581Y010854D02*
X044361Y010854D01*
X044361Y010755D02*
X049581Y010755D01*
X049581Y010657D02*
X044361Y010657D01*
X044361Y010558D02*
X049581Y010558D01*
X048062Y011346D02*
X044535Y011346D01*
X044633Y011445D02*
X047964Y011445D01*
X047865Y011543D02*
X044732Y011543D01*
X044811Y011642D02*
X047786Y011642D01*
X047786Y011741D02*
X044811Y011741D01*
X044811Y011938D02*
X047786Y011938D01*
X047786Y012036D02*
X044811Y012036D01*
X044775Y012135D02*
X047822Y012135D01*
X047920Y012233D02*
X044677Y012233D01*
X044578Y012332D02*
X048019Y012332D01*
X048117Y012430D02*
X044480Y012430D01*
X044101Y012529D02*
X013819Y012529D01*
X013848Y012430D02*
X043907Y012430D01*
X043809Y012332D02*
X013848Y012332D01*
X013835Y012233D02*
X043710Y012233D01*
X043612Y012135D02*
X013794Y012135D01*
X013725Y012036D02*
X043601Y012036D01*
X044101Y012627D02*
X013778Y012627D01*
X013685Y012726D02*
X044101Y012726D01*
X044101Y013022D02*
X032211Y013022D01*
X032288Y013120D02*
X044101Y013120D01*
X044101Y013219D02*
X032329Y013219D01*
X032348Y013317D02*
X044101Y013317D01*
X044101Y013416D02*
X032348Y013416D01*
X032325Y013514D02*
X044101Y013514D01*
X044101Y013613D02*
X032284Y013613D01*
X032199Y013711D02*
X044101Y013711D01*
X044101Y013810D02*
X032050Y013810D01*
X031672Y013810D02*
X031050Y013810D01*
X031137Y013774D02*
X030958Y013848D01*
X030764Y013848D01*
X030585Y013774D01*
X030448Y013637D01*
X030374Y013458D01*
X030374Y013264D01*
X030448Y013085D01*
X030585Y012948D01*
X030764Y012874D01*
X030958Y012874D01*
X031137Y012948D01*
X031274Y013085D01*
X031348Y013264D01*
X031348Y013458D01*
X031274Y013637D01*
X031137Y013774D01*
X031199Y013711D02*
X031522Y013711D01*
X031438Y013613D02*
X031284Y013613D01*
X031325Y013514D02*
X031397Y013514D01*
X031374Y013416D02*
X031348Y013416D01*
X031348Y013317D02*
X031374Y013317D01*
X031393Y013219D02*
X031329Y013219D01*
X031288Y013120D02*
X031433Y013120D01*
X031511Y013022D02*
X031211Y013022D01*
X031077Y012923D02*
X031645Y012923D01*
X030645Y012923D02*
X025827Y012923D01*
X025887Y012948D02*
X026024Y013085D01*
X026098Y013264D01*
X026098Y013458D01*
X026024Y013637D01*
X025887Y013774D01*
X025708Y013848D01*
X025514Y013848D01*
X025335Y013774D01*
X025198Y013637D01*
X025124Y013458D01*
X025124Y013264D01*
X025198Y013085D01*
X025335Y012948D01*
X025514Y012874D01*
X025708Y012874D01*
X025887Y012948D01*
X025961Y013022D02*
X030511Y013022D01*
X030433Y013120D02*
X026038Y013120D01*
X026079Y013219D02*
X030393Y013219D01*
X030374Y013317D02*
X026098Y013317D01*
X026098Y013416D02*
X030374Y013416D01*
X030397Y013514D02*
X026075Y013514D01*
X026034Y013613D02*
X030438Y013613D01*
X030522Y013711D02*
X025949Y013711D01*
X025800Y013810D02*
X030672Y013810D01*
X034697Y017358D02*
X011711Y017358D01*
X011703Y017349D02*
X011873Y017519D01*
X011965Y017741D01*
X011965Y017981D01*
X011873Y018203D01*
X011703Y018373D01*
X011481Y018465D01*
X011241Y018465D01*
X011019Y018373D01*
X010849Y018203D01*
X010757Y017981D01*
X010757Y017741D01*
X010849Y017519D01*
X011019Y017349D01*
X011241Y017257D01*
X011481Y017257D01*
X011703Y017349D01*
X011810Y017456D02*
X034599Y017456D01*
X034500Y017555D02*
X011887Y017555D01*
X011928Y017653D02*
X034402Y017653D01*
X034303Y017752D02*
X011965Y017752D01*
X011965Y017850D02*
X034205Y017850D01*
X034106Y017949D02*
X011965Y017949D01*
X011937Y018047D02*
X034008Y018047D01*
X033909Y018146D02*
X011896Y018146D01*
X011831Y018244D02*
X033810Y018244D01*
X033712Y018343D02*
X011733Y018343D01*
X011537Y018441D02*
X013101Y018441D01*
X013085Y018448D02*
X013264Y018374D01*
X013458Y018374D01*
X013637Y018448D01*
X013774Y018585D01*
X013848Y018764D01*
X013848Y018958D01*
X013774Y019137D01*
X013637Y019274D01*
X013458Y019348D01*
X013264Y019348D01*
X013085Y019274D01*
X012948Y019137D01*
X012874Y018958D01*
X012874Y018764D01*
X012948Y018585D01*
X013085Y018448D01*
X012993Y018540D02*
X010571Y018540D01*
X010571Y018441D02*
X011185Y018441D01*
X010989Y018343D02*
X010571Y018343D01*
X010571Y018244D02*
X010891Y018244D01*
X010826Y018146D02*
X010571Y018146D01*
X010571Y018047D02*
X010785Y018047D01*
X010757Y017949D02*
X010571Y017949D01*
X010571Y017850D02*
X010757Y017850D01*
X010757Y017752D02*
X010571Y017752D01*
X010571Y017653D02*
X010794Y017653D01*
X010834Y017555D02*
X010571Y017555D01*
X010571Y017456D02*
X010912Y017456D01*
X011011Y017358D02*
X010571Y017358D01*
X010571Y017259D02*
X011237Y017259D01*
X011485Y017259D02*
X034796Y017259D01*
X034894Y017160D02*
X010571Y017160D01*
X010571Y017062D02*
X034993Y017062D01*
X035092Y016963D02*
X010571Y016963D01*
X010571Y016865D02*
X035190Y016865D01*
X035289Y016766D02*
X010571Y016766D01*
X010571Y016668D02*
X035387Y016668D01*
X035486Y016569D02*
X010571Y016569D01*
X010571Y016471D02*
X035584Y016471D01*
X035683Y016372D02*
X010571Y016372D01*
X010571Y016274D02*
X035781Y016274D01*
X035880Y016175D02*
X010571Y016175D01*
X010571Y016076D02*
X035978Y016076D01*
X036077Y015978D02*
X010571Y015978D01*
X010571Y015879D02*
X011035Y015879D01*
X010927Y015781D02*
X010571Y015781D01*
X010571Y015682D02*
X010841Y015682D01*
X010800Y015584D02*
X010571Y015584D01*
X010571Y015485D02*
X010759Y015485D01*
X010757Y015387D02*
X010571Y015387D01*
X010571Y015288D02*
X010757Y015288D01*
X010778Y015190D02*
X010571Y015190D01*
X010571Y015091D02*
X010819Y015091D01*
X010876Y014992D02*
X010571Y014992D01*
X010571Y014894D02*
X010974Y014894D01*
X011149Y014795D02*
X010571Y014795D01*
X010571Y013711D02*
X013022Y013711D01*
X012938Y013613D02*
X010571Y013613D01*
X010571Y013514D02*
X012897Y013514D01*
X012874Y013416D02*
X010571Y013416D01*
X010571Y013317D02*
X012874Y013317D01*
X012893Y013219D02*
X010571Y013219D01*
X010571Y013120D02*
X012933Y013120D01*
X013011Y013022D02*
X010571Y013022D01*
X010571Y012923D02*
X013145Y012923D01*
X013207Y012825D02*
X010571Y012825D01*
X010571Y012726D02*
X013037Y012726D01*
X012944Y012627D02*
X010571Y012627D01*
X010571Y012529D02*
X012903Y012529D01*
X012874Y012430D02*
X010571Y012430D01*
X010571Y012332D02*
X012874Y012332D01*
X012886Y012233D02*
X010571Y012233D01*
X010571Y012135D02*
X012927Y012135D01*
X012997Y012036D02*
X010571Y012036D01*
X010571Y011938D02*
X011176Y011938D01*
X011241Y011965D02*
X011019Y011873D01*
X010849Y011703D01*
X010757Y011481D01*
X010757Y011241D01*
X010849Y011019D01*
X011019Y010849D01*
X011241Y010757D01*
X011481Y010757D01*
X011703Y010849D01*
X011873Y011019D01*
X011965Y011241D01*
X011965Y011481D01*
X011873Y011703D01*
X011703Y011873D01*
X011481Y011965D01*
X011241Y011965D01*
X010985Y011839D02*
X010571Y011839D01*
X010571Y011741D02*
X010887Y011741D01*
X010824Y011642D02*
X010571Y011642D01*
X010571Y011543D02*
X010783Y011543D01*
X010757Y011445D02*
X010571Y011445D01*
X010571Y011346D02*
X010757Y011346D01*
X010757Y011248D02*
X010571Y011248D01*
X010571Y011149D02*
X010795Y011149D01*
X010836Y011051D02*
X010571Y011051D01*
X010571Y010952D02*
X010916Y010952D01*
X011014Y010854D02*
X010571Y010854D01*
X010571Y010755D02*
X044101Y010755D01*
X044101Y010657D02*
X010571Y010657D01*
X011707Y010854D02*
X015764Y010854D01*
X015769Y010849D02*
X015991Y010757D01*
X016231Y010757D01*
X016453Y010849D01*
X016623Y011019D01*
X016715Y011241D01*
X016715Y011481D01*
X016623Y011703D01*
X016453Y011873D01*
X016231Y011965D01*
X015991Y011965D01*
X015769Y011873D01*
X015599Y011703D01*
X015507Y011481D01*
X015507Y011241D01*
X015599Y011019D01*
X015769Y010849D01*
X015666Y010952D02*
X011806Y010952D01*
X011886Y011051D02*
X015586Y011051D01*
X015545Y011149D02*
X011927Y011149D01*
X011965Y011248D02*
X015507Y011248D01*
X015507Y011346D02*
X011965Y011346D01*
X011965Y011445D02*
X015507Y011445D01*
X015533Y011543D02*
X011939Y011543D01*
X011898Y011642D02*
X015574Y011642D01*
X015637Y011741D02*
X011835Y011741D01*
X011736Y011839D02*
X015735Y011839D01*
X015926Y011938D02*
X013612Y011938D01*
X013110Y011938D02*
X011546Y011938D01*
X011965Y015387D02*
X036668Y015387D01*
X036570Y015485D02*
X011963Y015485D01*
X011922Y015584D02*
X036471Y015584D01*
X036373Y015682D02*
X011881Y015682D01*
X011795Y015781D02*
X036274Y015781D01*
X036176Y015879D02*
X011687Y015879D01*
X010571Y018639D02*
X012926Y018639D01*
X012885Y018737D02*
X010571Y018737D01*
X010571Y018836D02*
X012874Y018836D01*
X012874Y018934D02*
X010571Y018934D01*
X010571Y019033D02*
X012905Y019033D01*
X012946Y019131D02*
X010571Y019131D01*
X010571Y019230D02*
X013041Y019230D01*
X013216Y019328D02*
X010571Y019328D01*
X010571Y019427D02*
X013136Y019427D01*
X013085Y019448D02*
X013264Y019374D01*
X013458Y019374D01*
X013637Y019448D01*
X013774Y019585D01*
X013848Y019764D01*
X013848Y019958D01*
X013774Y020137D01*
X013637Y020274D01*
X013458Y020348D01*
X013264Y020348D01*
X013085Y020274D01*
X012948Y020137D01*
X012874Y019958D01*
X012874Y019764D01*
X012948Y019585D01*
X013085Y019448D01*
X013007Y019525D02*
X010571Y019525D01*
X010571Y019624D02*
X012932Y019624D01*
X012891Y019723D02*
X010571Y019723D01*
X010571Y019821D02*
X012874Y019821D01*
X012874Y019920D02*
X010571Y019920D01*
X010571Y020018D02*
X012899Y020018D01*
X012940Y020117D02*
X010571Y020117D01*
X010571Y020215D02*
X013026Y020215D01*
X013181Y020314D02*
X010571Y020314D01*
X010571Y020412D02*
X031643Y020412D01*
X031741Y020314D02*
X013541Y020314D01*
X013696Y020215D02*
X031840Y020215D01*
X031938Y020117D02*
X013782Y020117D01*
X013823Y020018D02*
X032037Y020018D01*
X032135Y019920D02*
X013848Y019920D01*
X013848Y019821D02*
X032234Y019821D01*
X032332Y019723D02*
X013831Y019723D01*
X013790Y019624D02*
X032431Y019624D01*
X032529Y019525D02*
X013714Y019525D01*
X013586Y019427D02*
X032628Y019427D01*
X032726Y019328D02*
X013505Y019328D01*
X013681Y019230D02*
X032825Y019230D01*
X032924Y019131D02*
X013776Y019131D01*
X013817Y019033D02*
X033022Y019033D01*
X033121Y018934D02*
X013848Y018934D01*
X013848Y018836D02*
X033219Y018836D01*
X033318Y018737D02*
X013837Y018737D01*
X013796Y018639D02*
X033416Y018639D01*
X033515Y018540D02*
X013729Y018540D01*
X013621Y018441D02*
X033613Y018441D01*
X034508Y019131D02*
X036223Y019131D01*
X036321Y019033D02*
X034606Y019033D01*
X034705Y018934D02*
X036420Y018934D01*
X036519Y018836D02*
X034803Y018836D01*
X034902Y018737D02*
X036617Y018737D01*
X036716Y018639D02*
X035000Y018639D01*
X035099Y018540D02*
X036814Y018540D01*
X036913Y018441D02*
X035197Y018441D01*
X035296Y018343D02*
X037011Y018343D01*
X037110Y018244D02*
X035394Y018244D01*
X035493Y018146D02*
X037208Y018146D01*
X037280Y018441D02*
X049581Y018441D01*
X049581Y018343D02*
X042379Y018343D01*
X040761Y018861D02*
X046085Y018861D01*
X046146Y018886D01*
X046183Y018886D01*
X046208Y018912D01*
X046269Y018937D01*
X046410Y019078D01*
X046435Y019139D01*
X046461Y019164D01*
X046461Y019201D01*
X046486Y019261D01*
X046486Y019460D01*
X046461Y019521D01*
X046461Y019558D01*
X046435Y019583D01*
X046410Y019644D01*
X046269Y019785D01*
X046208Y019810D01*
X046183Y019836D01*
X046146Y019836D01*
X046085Y019861D01*
X041068Y019861D01*
X040611Y020318D01*
X040611Y024272D01*
X040725Y024158D01*
X040997Y024158D01*
X041015Y024176D01*
X041923Y024176D01*
X042037Y024223D01*
X042124Y024310D01*
X043584Y025771D01*
X043804Y025771D01*
X044076Y026043D01*
X044076Y026429D01*
X043804Y026701D01*
X043418Y026701D01*
X043146Y026429D01*
X043146Y026209D01*
X041733Y024796D01*
X041015Y024796D01*
X040997Y024814D01*
X040725Y024814D01*
X040611Y024700D01*
X040611Y027011D01*
X040611Y028960D01*
X040611Y029761D01*
X040611Y029960D01*
X040535Y030144D01*
X036785Y033894D01*
X036644Y034035D01*
X036460Y034111D01*
X036217Y034111D01*
X036217Y037899D01*
X036229Y037896D01*
X036455Y037896D01*
X036455Y038311D01*
X036555Y038311D01*
X036555Y038411D01*
X036911Y038411D01*
X036911Y038696D01*
X036900Y038734D01*
X036881Y038768D01*
X036853Y038796D01*
X036818Y038816D01*
X036780Y038826D01*
X036555Y038826D01*
X036555Y038411D01*
X036455Y038411D01*
X036455Y038826D01*
X036229Y038826D01*
X036191Y038816D01*
X036157Y038796D01*
X036129Y038768D01*
X036116Y038745D01*
X036035Y038826D01*
X035959Y038826D01*
X035500Y039285D01*
X035317Y039361D01*
X035118Y039361D01*
X032761Y039361D01*
X032701Y039336D01*
X032664Y039336D01*
X032639Y039310D01*
X032578Y039285D01*
X032437Y039144D01*
X032412Y039083D01*
X032386Y039058D01*
X032386Y039021D01*
X032361Y038960D01*
X032361Y038761D01*
X032386Y038701D01*
X032386Y038664D01*
X032412Y038639D01*
X032437Y038578D01*
X032578Y038437D01*
X032639Y038412D01*
X032664Y038386D01*
X032701Y038386D01*
X032761Y038361D01*
X035010Y038361D01*
X035217Y038154D01*
X035217Y034111D01*
X031761Y034111D01*
X031578Y034035D01*
X031437Y033894D01*
X029687Y032144D01*
X029611Y031960D01*
X029611Y031761D01*
X029611Y031500D01*
X029585Y031526D01*
X029551Y031546D01*
X029513Y031556D01*
X029287Y031556D01*
X029287Y031161D01*
X029187Y031161D01*
X029187Y031556D01*
X028961Y031556D01*
X028923Y031546D01*
X028889Y031526D01*
X028861Y031498D01*
X028841Y031464D01*
X028831Y031426D01*
X028831Y031161D01*
X029187Y031161D01*
X029187Y031061D01*
X029287Y031061D01*
X029287Y030666D01*
X029513Y030666D01*
X029551Y030676D01*
X029585Y030696D01*
X029611Y030722D01*
X029611Y030722D01*
X029611Y030261D01*
X029687Y030078D01*
X029828Y029937D01*
X030011Y029861D01*
X030210Y029861D01*
X030394Y029937D01*
X030535Y030078D01*
X030611Y030261D01*
X030611Y031360D01*
X030611Y031654D01*
X032068Y033111D01*
X036154Y033111D01*
X039611Y029654D01*
X039611Y028960D01*
X039611Y027421D01*
X039265Y027421D01*
X038909Y027777D01*
X039215Y028083D01*
X039256Y028182D01*
X039256Y028290D01*
X039256Y029354D01*
X039314Y029413D01*
X039314Y029684D01*
X039122Y029876D01*
X038850Y029876D01*
X038658Y029684D01*
X038658Y029413D01*
X038716Y029354D01*
X038716Y028348D01*
X038527Y028159D01*
X038055Y028630D01*
X037931Y028630D01*
X037597Y028296D01*
X036765Y028296D01*
X036747Y028314D01*
X036608Y028314D01*
X036581Y028341D01*
X035805Y028341D01*
X035877Y028413D01*
X035877Y028651D01*
X037158Y028651D01*
X037158Y028600D01*
X037350Y028408D01*
X037622Y028408D01*
X037814Y028600D01*
X037814Y028872D01*
X037631Y029055D01*
X038358Y029783D01*
X038497Y029783D01*
X038689Y029975D01*
X038689Y030247D01*
X038497Y030439D01*
X038225Y030439D01*
X038033Y030247D01*
X038033Y030108D01*
X037266Y029341D01*
X032970Y029341D01*
X032887Y029423D01*
X032940Y029476D01*
X035157Y029476D01*
X035225Y029408D01*
X035497Y029408D01*
X035689Y029600D01*
X035689Y029872D01*
X035497Y030064D01*
X035225Y030064D01*
X035157Y029996D01*
X032940Y029996D01*
X032872Y030064D01*
X032600Y030064D01*
X032408Y029872D01*
X032408Y029600D01*
X032584Y029423D01*
X032408Y029247D01*
X032408Y028975D01*
X032600Y028783D01*
X032861Y028783D01*
X032767Y028689D01*
X032600Y028689D01*
X032408Y028497D01*
X032408Y028225D01*
X032600Y028033D01*
X032872Y028033D01*
X032986Y028147D01*
X033100Y028033D01*
X033239Y028033D01*
X033381Y027891D01*
X033516Y027756D01*
X033766Y027756D01*
X033956Y027756D01*
X034331Y028131D01*
X035141Y028131D01*
X035391Y027881D01*
X035581Y027881D01*
X036283Y027881D01*
X036283Y027850D01*
X036475Y027658D01*
X036747Y027658D01*
X036765Y027676D01*
X037582Y027676D01*
X037813Y027445D01*
X037624Y027256D01*
X036564Y027256D01*
X036564Y027497D01*
X036372Y027689D01*
X036100Y027689D01*
X036032Y027621D01*
X035241Y027621D01*
X035241Y027923D01*
X035153Y028011D01*
X034319Y028011D01*
X034231Y027923D01*
X034231Y027621D01*
X033940Y027621D01*
X033872Y027689D01*
X033600Y027689D01*
X033408Y027497D01*
X033408Y027256D01*
X033305Y027256D01*
X033247Y027314D01*
X032975Y027314D01*
X032783Y027122D01*
X032783Y026850D01*
X032975Y026658D01*
X033247Y026658D01*
X033305Y026716D01*
X034231Y026716D01*
X034231Y026476D01*
X034686Y026476D01*
X034686Y026376D01*
X034786Y026376D01*
X034786Y026476D01*
X035241Y026476D01*
X035241Y026716D01*
X037682Y026716D01*
X037790Y026716D01*
X037889Y026757D01*
X038195Y027063D01*
X038666Y026591D01*
X038791Y026591D01*
X039000Y026801D01*
X039611Y026801D01*
X039611Y020448D01*
X039464Y020448D01*
X039338Y020575D01*
X039191Y020636D01*
X039031Y020636D01*
X038884Y020575D01*
X038772Y020463D01*
X038711Y020316D01*
X038711Y020156D01*
X038772Y020009D01*
X038959Y019822D01*
X039072Y019709D01*
X039219Y019648D01*
X039866Y019648D01*
X039890Y019625D01*
X040437Y019078D01*
X040578Y018937D01*
X040761Y018861D01*
X040585Y018934D02*
X036788Y018934D01*
X036886Y018836D02*
X049581Y018836D01*
X049581Y018934D02*
X046262Y018934D01*
X046365Y019033D02*
X049581Y019033D01*
X049581Y019131D02*
X046432Y019131D01*
X046473Y019230D02*
X049581Y019230D01*
X049581Y019328D02*
X046486Y019328D01*
X046486Y019427D02*
X049581Y019427D01*
X049581Y019525D02*
X046461Y019525D01*
X046418Y019624D02*
X049581Y019624D01*
X049581Y019723D02*
X046331Y019723D01*
X046197Y019821D02*
X049581Y019821D01*
X049581Y019920D02*
X041009Y019920D01*
X040911Y020018D02*
X049581Y020018D01*
X049581Y020117D02*
X040812Y020117D01*
X040714Y020215D02*
X049581Y020215D01*
X049581Y020314D02*
X040615Y020314D01*
X040611Y020412D02*
X049581Y020412D01*
X049581Y020511D02*
X040611Y020511D01*
X040611Y020609D02*
X049581Y020609D01*
X049581Y020708D02*
X040611Y020708D01*
X040611Y020807D02*
X049581Y020807D01*
X049581Y020905D02*
X040611Y020905D01*
X040611Y021004D02*
X049581Y021004D01*
X049581Y021102D02*
X040611Y021102D01*
X040611Y021201D02*
X049581Y021201D01*
X049581Y021299D02*
X040611Y021299D01*
X040611Y021398D02*
X049581Y021398D01*
X049581Y021496D02*
X040611Y021496D01*
X040611Y021595D02*
X049581Y021595D01*
X049581Y021693D02*
X040611Y021693D01*
X040611Y021792D02*
X049581Y021792D01*
X049581Y021891D02*
X040611Y021891D01*
X040611Y021989D02*
X049581Y021989D01*
X049581Y022088D02*
X040611Y022088D01*
X040611Y022186D02*
X049581Y022186D01*
X049581Y022285D02*
X040611Y022285D01*
X040611Y022383D02*
X049581Y022383D01*
X049581Y022482D02*
X040611Y022482D01*
X040611Y022580D02*
X049581Y022580D01*
X049581Y022679D02*
X040611Y022679D01*
X040611Y022777D02*
X049581Y022777D01*
X049581Y022876D02*
X040611Y022876D01*
X040611Y022974D02*
X049581Y022974D01*
X049581Y023073D02*
X040611Y023073D01*
X040611Y023172D02*
X049581Y023172D01*
X049581Y023270D02*
X040611Y023270D01*
X040611Y023369D02*
X049581Y023369D01*
X049581Y023467D02*
X040611Y023467D01*
X040611Y023566D02*
X049581Y023566D01*
X049581Y023664D02*
X040611Y023664D01*
X040611Y023763D02*
X049581Y023763D01*
X049581Y023861D02*
X040611Y023861D01*
X040611Y023960D02*
X049581Y023960D01*
X049581Y024058D02*
X040611Y024058D01*
X040611Y024157D02*
X049581Y024157D01*
X049581Y024256D02*
X042069Y024256D01*
X042167Y024354D02*
X049581Y024354D01*
X049581Y024453D02*
X042266Y024453D01*
X042365Y024551D02*
X049581Y024551D01*
X049581Y024650D02*
X042463Y024650D01*
X042562Y024748D02*
X049581Y024748D01*
X049581Y024847D02*
X042660Y024847D01*
X042759Y024945D02*
X049581Y024945D01*
X049581Y025044D02*
X042857Y025044D01*
X042956Y025142D02*
X049581Y025142D01*
X049581Y025241D02*
X043054Y025241D01*
X043153Y025340D02*
X049581Y025340D01*
X049581Y025438D02*
X043251Y025438D01*
X043350Y025537D02*
X049581Y025537D01*
X049581Y025635D02*
X043449Y025635D01*
X043547Y025734D02*
X049581Y025734D01*
X049581Y025832D02*
X043865Y025832D01*
X043963Y025931D02*
X049581Y025931D01*
X049581Y026029D02*
X044062Y026029D01*
X044076Y026128D02*
X049581Y026128D01*
X049581Y026226D02*
X044076Y026226D01*
X044076Y026325D02*
X049581Y026325D01*
X049581Y026424D02*
X044076Y026424D01*
X043982Y026522D02*
X049581Y026522D01*
X049581Y026621D02*
X043884Y026621D01*
X043338Y026621D02*
X041746Y026621D01*
X041746Y026719D02*
X049581Y026719D01*
X049581Y026818D02*
X041746Y026818D01*
X041746Y026916D02*
X049581Y026916D01*
X049581Y027015D02*
X041746Y027015D01*
X041746Y027113D02*
X049581Y027113D01*
X049581Y027212D02*
X041746Y027212D01*
X041746Y027310D02*
X049581Y027310D01*
X049581Y027409D02*
X041746Y027409D01*
X041746Y027507D02*
X049581Y027507D01*
X049581Y027606D02*
X041746Y027606D01*
X041746Y027705D02*
X049581Y027705D01*
X049581Y027803D02*
X041746Y027803D01*
X041746Y027902D02*
X049581Y027902D01*
X049581Y028000D02*
X041746Y028000D01*
X041746Y028099D02*
X049581Y028099D01*
X049581Y028197D02*
X041746Y028197D01*
X041746Y028296D02*
X049581Y028296D01*
X049581Y028394D02*
X041746Y028394D01*
X041746Y028493D02*
X049581Y028493D01*
X049581Y028591D02*
X041746Y028591D01*
X041746Y028690D02*
X049581Y028690D01*
X049581Y028789D02*
X041746Y028789D01*
X041746Y028887D02*
X049581Y028887D01*
X049581Y028986D02*
X041746Y028986D01*
X041746Y029084D02*
X049581Y029084D01*
X049581Y029183D02*
X041746Y029183D01*
X041746Y029281D02*
X049581Y029281D01*
X049581Y029380D02*
X041746Y029380D01*
X041746Y029478D02*
X049581Y029478D01*
X049581Y029577D02*
X041746Y029577D01*
X041746Y029675D02*
X049581Y029675D01*
X049581Y029774D02*
X041746Y029774D01*
X041746Y029873D02*
X049581Y029873D01*
X049581Y029971D02*
X041746Y029971D01*
X041746Y030070D02*
X049581Y030070D01*
X049581Y030168D02*
X041746Y030168D01*
X041746Y030267D02*
X049581Y030267D01*
X049581Y030365D02*
X041746Y030365D01*
X041746Y030464D02*
X049581Y030464D01*
X049581Y030562D02*
X041746Y030562D01*
X041746Y030661D02*
X049581Y030661D01*
X049581Y030759D02*
X041746Y030759D01*
X041746Y030858D02*
X049581Y030858D01*
X049581Y030956D02*
X041746Y030956D01*
X041746Y031055D02*
X049581Y031055D01*
X049581Y031154D02*
X041746Y031154D01*
X041746Y031252D02*
X049581Y031252D01*
X049581Y031351D02*
X041746Y031351D01*
X041746Y031449D02*
X049581Y031449D01*
X049581Y031548D02*
X041746Y031548D01*
X041746Y031646D02*
X049581Y031646D01*
X049581Y031745D02*
X041746Y031745D01*
X041746Y031843D02*
X049581Y031843D01*
X049581Y031942D02*
X041746Y031942D01*
X041746Y032040D02*
X049581Y032040D01*
X049581Y032139D02*
X041746Y032139D01*
X041746Y032238D02*
X049581Y032238D01*
X049581Y032336D02*
X041746Y032336D01*
X041746Y032435D02*
X049581Y032435D01*
X049581Y032533D02*
X041746Y032533D01*
X041746Y032632D02*
X049581Y032632D01*
X049581Y032730D02*
X041746Y032730D01*
X041746Y032829D02*
X049581Y032829D01*
X049581Y032927D02*
X041746Y032927D01*
X041746Y033026D02*
X049581Y033026D01*
X049581Y033124D02*
X041746Y033124D01*
X041746Y033223D02*
X049581Y033223D01*
X049581Y033322D02*
X041746Y033322D01*
X041746Y033420D02*
X049581Y033420D01*
X049581Y033519D02*
X041746Y033519D01*
X041746Y033617D02*
X049581Y033617D01*
X049581Y033716D02*
X041746Y033716D01*
X041746Y033814D02*
X049581Y033814D01*
X049581Y033913D02*
X041746Y033913D01*
X041746Y034011D02*
X049581Y034011D01*
X049581Y034110D02*
X041746Y034110D01*
X041746Y034208D02*
X049581Y034208D01*
X049581Y034307D02*
X041746Y034307D01*
X041746Y034406D02*
X049581Y034406D01*
X049581Y034504D02*
X048640Y034504D01*
X048547Y034411D02*
X048811Y034675D01*
X048811Y035047D01*
X048547Y035311D01*
X048175Y035311D01*
X047911Y035047D01*
X047911Y034675D01*
X048175Y034411D01*
X048547Y034411D01*
X048739Y034603D02*
X049581Y034603D01*
X049581Y034701D02*
X048811Y034701D01*
X048811Y034800D02*
X049581Y034800D01*
X049581Y034898D02*
X048811Y034898D01*
X048811Y034997D02*
X049581Y034997D01*
X049581Y035095D02*
X048763Y035095D01*
X048664Y035194D02*
X049581Y035194D01*
X049581Y035292D02*
X048566Y035292D01*
X048547Y035411D02*
X048411Y035411D01*
X048411Y035811D01*
X048411Y035911D01*
X048311Y035911D01*
X048311Y036311D01*
X048175Y036311D01*
X047911Y036047D01*
X047911Y035911D01*
X048311Y035911D01*
X048311Y035811D01*
X047911Y035811D01*
X047911Y035675D01*
X048175Y035411D01*
X048311Y035411D01*
X048311Y035811D01*
X048411Y035811D01*
X048811Y035811D01*
X048811Y035675D01*
X048547Y035411D01*
X048626Y035489D02*
X049581Y035489D01*
X049581Y035391D02*
X047156Y035391D01*
X047175Y035411D02*
X047547Y035411D01*
X047811Y035675D01*
X047811Y036047D01*
X047547Y036311D01*
X047175Y036311D01*
X046966Y036102D01*
X046966Y036620D01*
X047175Y036411D01*
X047547Y036411D01*
X047811Y036675D01*
X047811Y037047D01*
X047547Y037311D01*
X047175Y037311D01*
X046966Y037102D01*
X046966Y037206D01*
X046831Y037341D01*
X046544Y037628D01*
X046353Y037628D01*
X046323Y037598D01*
X039231Y037598D01*
X039174Y037598D01*
X039206Y037631D01*
X046955Y037631D01*
X047175Y037411D01*
X047547Y037411D01*
X047811Y037675D01*
X047811Y038047D01*
X047547Y038311D01*
X047175Y038311D01*
X046955Y038091D01*
X046916Y038091D01*
X047236Y038411D01*
X047547Y038411D01*
X047811Y038675D01*
X047811Y039047D01*
X047547Y039311D01*
X047175Y039311D01*
X046911Y039047D01*
X046911Y038736D01*
X046641Y038466D01*
X038891Y038466D01*
X038756Y038331D01*
X038680Y038256D01*
X038497Y038439D01*
X038225Y038439D01*
X038033Y038247D01*
X038033Y038066D01*
X037786Y037819D01*
X037786Y037653D01*
X037786Y036903D01*
X037903Y036786D01*
X038153Y036536D01*
X038319Y036536D01*
X038569Y036536D01*
X038686Y036653D01*
X039231Y037198D01*
X046323Y037198D01*
X046506Y037016D01*
X046506Y035581D01*
X046506Y035391D01*
X041439Y035391D01*
X041439Y035314D02*
X041439Y035497D01*
X041247Y035689D01*
X040975Y035689D01*
X040783Y035497D01*
X040783Y035225D01*
X040851Y035157D01*
X040851Y025940D01*
X040783Y025872D01*
X040783Y025600D01*
X040897Y025486D01*
X040783Y025372D01*
X040783Y025100D01*
X040975Y024908D01*
X041247Y024908D01*
X041439Y025100D01*
X041439Y025196D01*
X041633Y025391D01*
X041633Y025391D01*
X041706Y025464D01*
X041746Y025559D01*
X041746Y034782D01*
X041814Y034850D01*
X041814Y035122D01*
X041622Y035314D01*
X041439Y035314D01*
X041439Y035489D02*
X046506Y035489D01*
X046506Y035391D02*
X046911Y034986D01*
X046911Y034675D01*
X047175Y034411D01*
X047547Y034411D01*
X047811Y034675D01*
X047811Y035047D01*
X047547Y035311D01*
X047236Y035311D01*
X046966Y035581D01*
X046966Y035620D01*
X047175Y035411D01*
X047096Y035489D02*
X047058Y035489D01*
X046997Y035588D02*
X046966Y035588D01*
X046506Y035588D02*
X041348Y035588D01*
X041249Y035687D02*
X046506Y035687D01*
X046506Y035785D02*
X036217Y035785D01*
X036217Y035687D02*
X040973Y035687D01*
X040874Y035588D02*
X036217Y035588D01*
X036217Y035489D02*
X040783Y035489D01*
X040783Y035391D02*
X036217Y035391D01*
X036217Y035292D02*
X040783Y035292D01*
X040814Y035194D02*
X036217Y035194D01*
X036217Y035095D02*
X040851Y035095D01*
X040851Y034997D02*
X036217Y034997D01*
X036217Y034898D02*
X040851Y034898D01*
X040851Y034800D02*
X036217Y034800D01*
X036217Y034701D02*
X040851Y034701D01*
X040851Y034603D02*
X036217Y034603D01*
X036217Y034504D02*
X040851Y034504D01*
X040851Y034406D02*
X036217Y034406D01*
X036217Y034307D02*
X040851Y034307D01*
X040851Y034208D02*
X036217Y034208D01*
X036463Y034110D02*
X040851Y034110D01*
X040851Y034011D02*
X036668Y034011D01*
X036766Y033913D02*
X040851Y033913D01*
X040851Y033814D02*
X036865Y033814D01*
X036963Y033716D02*
X040851Y033716D01*
X040851Y033617D02*
X037062Y033617D01*
X037160Y033519D02*
X040851Y033519D01*
X040851Y033420D02*
X037259Y033420D01*
X037357Y033322D02*
X040851Y033322D01*
X040851Y033223D02*
X037456Y033223D01*
X037554Y033124D02*
X040851Y033124D01*
X040851Y033026D02*
X037653Y033026D01*
X037752Y032927D02*
X040851Y032927D01*
X040851Y032829D02*
X037850Y032829D01*
X037949Y032730D02*
X040851Y032730D01*
X040851Y032632D02*
X038047Y032632D01*
X038146Y032533D02*
X040851Y032533D01*
X040851Y032435D02*
X038244Y032435D01*
X038343Y032336D02*
X040851Y032336D01*
X040851Y032238D02*
X038441Y032238D01*
X038540Y032139D02*
X040851Y032139D01*
X040851Y032040D02*
X038638Y032040D01*
X038737Y031942D02*
X040851Y031942D01*
X040851Y031843D02*
X038836Y031843D01*
X038934Y031745D02*
X040851Y031745D01*
X040851Y031646D02*
X039033Y031646D01*
X039131Y031548D02*
X040851Y031548D01*
X040851Y031449D02*
X039230Y031449D01*
X039328Y031351D02*
X040851Y031351D01*
X040851Y031252D02*
X039427Y031252D01*
X039525Y031154D02*
X040851Y031154D01*
X040851Y031055D02*
X039624Y031055D01*
X039722Y030956D02*
X040851Y030956D01*
X040851Y030858D02*
X039821Y030858D01*
X039920Y030759D02*
X040851Y030759D01*
X040851Y030661D02*
X040018Y030661D01*
X040117Y030562D02*
X040851Y030562D01*
X040851Y030464D02*
X040215Y030464D01*
X040314Y030365D02*
X040851Y030365D01*
X040851Y030267D02*
X040412Y030267D01*
X040511Y030168D02*
X040851Y030168D01*
X040851Y030070D02*
X040566Y030070D01*
X040606Y029971D02*
X040851Y029971D01*
X040851Y029873D02*
X040611Y029873D01*
X040611Y029774D02*
X040851Y029774D01*
X040851Y029675D02*
X040611Y029675D01*
X040611Y029577D02*
X040851Y029577D01*
X040851Y029478D02*
X040611Y029478D01*
X040611Y029380D02*
X040851Y029380D01*
X040851Y029281D02*
X040611Y029281D01*
X040611Y029183D02*
X040851Y029183D01*
X040851Y029084D02*
X040611Y029084D01*
X040611Y028986D02*
X040851Y028986D01*
X040851Y028887D02*
X040611Y028887D01*
X040611Y028789D02*
X040851Y028789D01*
X040851Y028690D02*
X040611Y028690D01*
X040611Y028591D02*
X040851Y028591D01*
X040851Y028493D02*
X040611Y028493D01*
X040611Y028394D02*
X040851Y028394D01*
X040851Y028296D02*
X040611Y028296D01*
X040611Y028197D02*
X040851Y028197D01*
X040851Y028099D02*
X040611Y028099D01*
X040611Y028000D02*
X040851Y028000D01*
X040851Y027902D02*
X040611Y027902D01*
X040611Y027803D02*
X040851Y027803D01*
X040851Y027705D02*
X040611Y027705D01*
X040611Y027606D02*
X040851Y027606D01*
X040851Y027507D02*
X040611Y027507D01*
X040611Y027409D02*
X040851Y027409D01*
X040851Y027310D02*
X040611Y027310D01*
X040611Y027212D02*
X040851Y027212D01*
X040851Y027113D02*
X040611Y027113D01*
X040611Y027015D02*
X040851Y027015D01*
X040851Y026916D02*
X040611Y026916D01*
X040611Y026818D02*
X040851Y026818D01*
X040851Y026719D02*
X040611Y026719D01*
X040611Y026621D02*
X040851Y026621D01*
X040851Y026522D02*
X040611Y026522D01*
X040611Y026424D02*
X040851Y026424D01*
X040851Y026325D02*
X040611Y026325D01*
X040611Y026226D02*
X040851Y026226D01*
X040851Y026128D02*
X040611Y026128D01*
X040611Y026029D02*
X040851Y026029D01*
X040842Y025931D02*
X040611Y025931D01*
X040611Y025832D02*
X040783Y025832D01*
X040783Y025734D02*
X040611Y025734D01*
X040611Y025635D02*
X040783Y025635D01*
X040846Y025537D02*
X040611Y025537D01*
X040611Y025438D02*
X040849Y025438D01*
X040783Y025340D02*
X040611Y025340D01*
X040611Y025241D02*
X040783Y025241D01*
X040783Y025142D02*
X040611Y025142D01*
X040611Y025044D02*
X040839Y025044D01*
X040938Y024945D02*
X040611Y024945D01*
X040611Y024847D02*
X041783Y024847D01*
X041882Y024945D02*
X041284Y024945D01*
X041383Y025044D02*
X041981Y025044D01*
X042079Y025142D02*
X041439Y025142D01*
X041484Y025241D02*
X042178Y025241D01*
X042276Y025340D02*
X041582Y025340D01*
X041681Y025438D02*
X042375Y025438D01*
X042473Y025537D02*
X041737Y025537D01*
X041746Y025635D02*
X042572Y025635D01*
X042670Y025734D02*
X041746Y025734D01*
X041746Y025832D02*
X042769Y025832D01*
X042867Y025931D02*
X041746Y025931D01*
X041746Y026029D02*
X042966Y026029D01*
X043064Y026128D02*
X041746Y026128D01*
X041746Y026226D02*
X043146Y026226D01*
X043146Y026325D02*
X041746Y026325D01*
X041746Y026424D02*
X043146Y026424D01*
X043239Y026522D02*
X041746Y026522D01*
X040659Y024748D02*
X040611Y024748D01*
X040611Y024256D02*
X040627Y024256D01*
X039611Y024256D02*
X031466Y024256D01*
X031368Y024354D02*
X039611Y024354D01*
X039611Y024453D02*
X031269Y024453D01*
X031171Y024551D02*
X039611Y024551D01*
X039611Y024650D02*
X031072Y024650D01*
X030974Y024748D02*
X039611Y024748D01*
X039611Y024847D02*
X030875Y024847D01*
X030777Y024945D02*
X039611Y024945D01*
X039611Y025044D02*
X030678Y025044D01*
X030579Y025142D02*
X039611Y025142D01*
X039611Y025241D02*
X030481Y025241D01*
X030382Y025340D02*
X039611Y025340D01*
X039611Y025438D02*
X037527Y025438D01*
X037497Y025408D02*
X037689Y025600D01*
X037689Y025872D01*
X037497Y026064D01*
X037225Y026064D01*
X037207Y026046D01*
X036015Y026046D01*
X035997Y026064D01*
X035725Y026064D01*
X035533Y025872D01*
X035533Y025600D01*
X035725Y025408D01*
X035997Y025408D01*
X036015Y025426D01*
X037207Y025426D01*
X037225Y025408D01*
X037497Y025408D01*
X037626Y025537D02*
X039611Y025537D01*
X039611Y025635D02*
X037689Y025635D01*
X037689Y025734D02*
X039611Y025734D01*
X039611Y025832D02*
X037689Y025832D01*
X037630Y025931D02*
X039611Y025931D01*
X039611Y026029D02*
X037531Y026029D01*
X037797Y026719D02*
X038539Y026719D01*
X038637Y026621D02*
X035241Y026621D01*
X035241Y026522D02*
X039611Y026522D01*
X039611Y026424D02*
X034786Y026424D01*
X034786Y026376D02*
X035241Y026376D01*
X035241Y026091D01*
X035231Y026053D01*
X035211Y026019D01*
X035183Y025991D01*
X035149Y025971D01*
X035111Y025961D01*
X034786Y025961D01*
X034786Y026376D01*
X034786Y026325D02*
X034686Y026325D01*
X034686Y026376D02*
X034686Y025961D01*
X034361Y025961D01*
X034323Y025971D01*
X034289Y025991D01*
X034261Y026019D01*
X034241Y026053D01*
X034231Y026091D01*
X034231Y026376D01*
X034686Y026376D01*
X034686Y026424D02*
X029298Y026424D01*
X029200Y026522D02*
X034231Y026522D01*
X034231Y026621D02*
X029101Y026621D01*
X029003Y026719D02*
X032914Y026719D01*
X032815Y026818D02*
X028904Y026818D01*
X028806Y026916D02*
X032783Y026916D01*
X032783Y027015D02*
X028707Y027015D01*
X028609Y027113D02*
X032783Y027113D01*
X032873Y027212D02*
X028510Y027212D01*
X028411Y027310D02*
X032971Y027310D01*
X033250Y027310D02*
X033408Y027310D01*
X033408Y027409D02*
X028313Y027409D01*
X028214Y027507D02*
X033419Y027507D01*
X033517Y027606D02*
X028116Y027606D01*
X028111Y027705D02*
X034231Y027705D01*
X034231Y027803D02*
X034003Y027803D01*
X034102Y027902D02*
X034231Y027902D01*
X034200Y028000D02*
X034308Y028000D01*
X034299Y028099D02*
X035173Y028099D01*
X035164Y028000D02*
X035271Y028000D01*
X035241Y027902D02*
X035370Y027902D01*
X035241Y027803D02*
X036330Y027803D01*
X036428Y027705D02*
X035241Y027705D01*
X034736Y027546D02*
X034801Y027361D01*
X035858Y028394D02*
X037695Y028394D01*
X037707Y028493D02*
X037794Y028493D01*
X037805Y028591D02*
X037892Y028591D01*
X037814Y028690D02*
X038716Y028690D01*
X038716Y028789D02*
X037814Y028789D01*
X037799Y028887D02*
X038716Y028887D01*
X038716Y028986D02*
X037700Y028986D01*
X037659Y029084D02*
X038716Y029084D01*
X038716Y029183D02*
X037758Y029183D01*
X037856Y029281D02*
X038716Y029281D01*
X038691Y029380D02*
X037955Y029380D01*
X038054Y029478D02*
X038658Y029478D01*
X038658Y029577D02*
X038152Y029577D01*
X038251Y029675D02*
X038658Y029675D01*
X038748Y029774D02*
X038349Y029774D01*
X038586Y029873D02*
X038846Y029873D01*
X038685Y029971D02*
X039294Y029971D01*
X039392Y029873D02*
X039126Y029873D01*
X039224Y029774D02*
X039491Y029774D01*
X039589Y029675D02*
X039314Y029675D01*
X039314Y029577D02*
X039611Y029577D01*
X039611Y029478D02*
X039314Y029478D01*
X039281Y029380D02*
X039611Y029380D01*
X039611Y029281D02*
X039256Y029281D01*
X039256Y029183D02*
X039611Y029183D01*
X039611Y029084D02*
X039256Y029084D01*
X039256Y028986D02*
X039611Y028986D01*
X039611Y028887D02*
X039256Y028887D01*
X039256Y028789D02*
X039611Y028789D01*
X039611Y028690D02*
X039256Y028690D01*
X039256Y028591D02*
X039611Y028591D01*
X039611Y028493D02*
X039256Y028493D01*
X039256Y028394D02*
X039611Y028394D01*
X039611Y028296D02*
X039256Y028296D01*
X039256Y028197D02*
X039611Y028197D01*
X039611Y028099D02*
X039221Y028099D01*
X039132Y028000D02*
X039611Y028000D01*
X039611Y027902D02*
X039033Y027902D01*
X038935Y027803D02*
X039611Y027803D01*
X039611Y027705D02*
X038981Y027705D01*
X039080Y027606D02*
X039611Y027606D01*
X039611Y027507D02*
X039178Y027507D01*
X038861Y027111D02*
X038757Y027215D01*
X038440Y026818D02*
X037949Y026818D01*
X038048Y026916D02*
X038342Y026916D01*
X038243Y027015D02*
X038147Y027015D01*
X037777Y027409D02*
X036564Y027409D01*
X036564Y027310D02*
X037679Y027310D01*
X037750Y027507D02*
X036553Y027507D01*
X036455Y027606D02*
X037652Y027606D01*
X037944Y027986D02*
X037965Y028007D01*
X038291Y028394D02*
X038716Y028394D01*
X038716Y028493D02*
X038193Y028493D01*
X038094Y028591D02*
X038716Y028591D01*
X038664Y028296D02*
X038390Y028296D01*
X038489Y028197D02*
X038565Y028197D01*
X037265Y028493D02*
X035877Y028493D01*
X035877Y028591D02*
X037166Y028591D01*
X037305Y029380D02*
X032931Y029380D01*
X032541Y029380D02*
X028111Y029380D01*
X028111Y029478D02*
X032530Y029478D01*
X032431Y029577D02*
X028111Y029577D01*
X028111Y029675D02*
X032408Y029675D01*
X032408Y029774D02*
X028111Y029774D01*
X028111Y029873D02*
X029984Y029873D01*
X029794Y029971D02*
X028111Y029971D01*
X028111Y030070D02*
X029695Y030070D01*
X029650Y030168D02*
X028111Y030168D01*
X028111Y030267D02*
X029611Y030267D01*
X029611Y030365D02*
X028111Y030365D01*
X028111Y030464D02*
X029611Y030464D01*
X029611Y030562D02*
X028111Y030562D01*
X028111Y030661D02*
X029611Y030661D01*
X029287Y030759D02*
X029187Y030759D01*
X029187Y030666D02*
X029187Y031061D01*
X028831Y031061D01*
X028831Y030796D01*
X028841Y030758D01*
X028861Y030724D01*
X028889Y030696D01*
X028923Y030676D01*
X028961Y030666D01*
X029187Y030666D01*
X029187Y030858D02*
X029287Y030858D01*
X029287Y030956D02*
X029187Y030956D01*
X029187Y031055D02*
X029287Y031055D01*
X029187Y031154D02*
X028111Y031154D01*
X028111Y031252D02*
X028831Y031252D01*
X028831Y031351D02*
X028111Y031351D01*
X028111Y031449D02*
X028837Y031449D01*
X028930Y031548D02*
X028113Y031548D01*
X028212Y031646D02*
X029611Y031646D01*
X029611Y031548D02*
X029544Y031548D01*
X029611Y031500D02*
X029611Y031500D01*
X029611Y031745D02*
X028311Y031745D01*
X028409Y031843D02*
X029611Y031843D01*
X029611Y031942D02*
X028508Y031942D01*
X028606Y032040D02*
X029644Y032040D01*
X029685Y032139D02*
X028705Y032139D01*
X028803Y032238D02*
X029781Y032238D01*
X029879Y032336D02*
X028902Y032336D01*
X029000Y032435D02*
X029978Y032435D01*
X030076Y032533D02*
X029085Y032533D01*
X029126Y032632D02*
X030175Y032632D01*
X030273Y032730D02*
X029136Y032730D01*
X029136Y032829D02*
X030372Y032829D01*
X030470Y032927D02*
X029136Y032927D01*
X029136Y033026D02*
X030569Y033026D01*
X030667Y033124D02*
X029136Y033124D01*
X029223Y033223D02*
X030766Y033223D01*
X030864Y033322D02*
X029322Y033322D01*
X029420Y033420D02*
X030963Y033420D01*
X031062Y033519D02*
X029519Y033519D01*
X029617Y033617D02*
X031160Y033617D01*
X031259Y033716D02*
X029716Y033716D01*
X029814Y033814D02*
X031357Y033814D01*
X031437Y033894D02*
X031437Y033894D01*
X031456Y033913D02*
X029913Y033913D01*
X030011Y034011D02*
X031554Y034011D01*
X031759Y034110D02*
X030110Y034110D01*
X030208Y034208D02*
X035217Y034208D01*
X035217Y034307D02*
X030307Y034307D01*
X030406Y034406D02*
X035217Y034406D01*
X035217Y034504D02*
X030504Y034504D01*
X030603Y034603D02*
X035217Y034603D01*
X035217Y034701D02*
X030701Y034701D01*
X030800Y034800D02*
X035217Y034800D01*
X035217Y034898D02*
X030898Y034898D01*
X030986Y034997D02*
X035217Y034997D01*
X035217Y035095D02*
X030986Y035095D01*
X030986Y035194D02*
X035217Y035194D01*
X035217Y035292D02*
X030986Y035292D01*
X030986Y035391D02*
X035217Y035391D01*
X035217Y035489D02*
X030986Y035489D01*
X030986Y035588D02*
X035217Y035588D01*
X035217Y035687D02*
X030986Y035687D01*
X030986Y035785D02*
X035217Y035785D01*
X035217Y035884D02*
X030986Y035884D01*
X030986Y035982D02*
X035217Y035982D01*
X035217Y036081D02*
X030986Y036081D01*
X030986Y036179D02*
X035217Y036179D01*
X035217Y036278D02*
X030986Y036278D01*
X030986Y036376D02*
X035217Y036376D01*
X035217Y036475D02*
X030986Y036475D01*
X030986Y036573D02*
X035217Y036573D01*
X035217Y036672D02*
X030986Y036672D01*
X030986Y036771D02*
X035217Y036771D01*
X035217Y036869D02*
X030986Y036869D01*
X030986Y036968D02*
X035217Y036968D01*
X035217Y037066D02*
X030986Y037066D01*
X030986Y037165D02*
X035217Y037165D01*
X035217Y037263D02*
X030986Y037263D01*
X030986Y037362D02*
X035217Y037362D01*
X035217Y037460D02*
X030986Y037460D01*
X030986Y037559D02*
X035217Y037559D01*
X035217Y037657D02*
X030986Y037657D01*
X030986Y037756D02*
X035217Y037756D01*
X035217Y037855D02*
X030986Y037855D01*
X030986Y037953D02*
X035217Y037953D01*
X035217Y038052D02*
X030986Y038052D01*
X030986Y038150D02*
X035217Y038150D01*
X035122Y038249D02*
X030986Y038249D01*
X030986Y038347D02*
X035024Y038347D01*
X035748Y039037D02*
X046911Y039037D01*
X046911Y038939D02*
X035847Y038939D01*
X035945Y038840D02*
X046911Y038840D01*
X046911Y038741D02*
X036896Y038741D01*
X036911Y038643D02*
X046818Y038643D01*
X046719Y038544D02*
X036911Y038544D01*
X036911Y038446D02*
X038871Y038446D01*
X038772Y038347D02*
X038589Y038347D01*
X038361Y038111D02*
X037986Y037736D01*
X037986Y036986D01*
X038236Y036736D01*
X038486Y036736D01*
X039148Y037398D01*
X046449Y037398D01*
X046613Y037559D02*
X047027Y037559D01*
X047125Y037460D02*
X046712Y037460D01*
X046810Y037362D02*
X049581Y037362D01*
X049581Y037460D02*
X048597Y037460D01*
X048547Y037411D02*
X048811Y037675D01*
X048811Y037811D01*
X048411Y037811D01*
X048411Y037911D01*
X048311Y037911D01*
X048311Y038311D01*
X048175Y038311D01*
X047911Y038047D01*
X047911Y037911D01*
X048311Y037911D01*
X048311Y037811D01*
X047911Y037811D01*
X047911Y037675D01*
X048175Y037411D01*
X048311Y037411D01*
X048311Y037811D01*
X048411Y037811D01*
X048411Y037411D01*
X048547Y037411D01*
X048547Y037311D02*
X048411Y037311D01*
X048411Y036911D01*
X048311Y036911D01*
X048311Y037311D01*
X048175Y037311D01*
X047911Y037047D01*
X047911Y036911D01*
X048311Y036911D01*
X048311Y036811D01*
X047911Y036811D01*
X047911Y036675D01*
X048175Y036411D01*
X048311Y036411D01*
X048311Y036811D01*
X048411Y036811D01*
X048411Y036911D01*
X048811Y036911D01*
X048811Y037047D01*
X048547Y037311D01*
X048595Y037263D02*
X049581Y037263D01*
X049581Y037165D02*
X048694Y037165D01*
X048792Y037066D02*
X049581Y037066D01*
X049581Y036968D02*
X048811Y036968D01*
X048811Y036811D02*
X048411Y036811D01*
X048411Y036411D01*
X048547Y036411D01*
X048811Y036675D01*
X048811Y036811D01*
X048811Y036771D02*
X049581Y036771D01*
X049581Y036869D02*
X048411Y036869D01*
X048411Y036771D02*
X048311Y036771D01*
X048311Y036869D02*
X047811Y036869D01*
X047811Y036771D02*
X047911Y036771D01*
X047913Y036672D02*
X047808Y036672D01*
X047710Y036573D02*
X048012Y036573D01*
X048111Y036475D02*
X047611Y036475D01*
X047580Y036278D02*
X048141Y036278D01*
X048043Y036179D02*
X047679Y036179D01*
X047777Y036081D02*
X047944Y036081D01*
X047911Y035982D02*
X047811Y035982D01*
X047811Y035884D02*
X048311Y035884D01*
X048311Y035982D02*
X048411Y035982D01*
X048411Y035911D02*
X048411Y036311D01*
X048547Y036311D01*
X048811Y036047D01*
X048811Y035911D01*
X048411Y035911D01*
X048411Y035884D02*
X049581Y035884D01*
X049581Y035982D02*
X048811Y035982D01*
X048777Y036081D02*
X049581Y036081D01*
X049581Y036179D02*
X048679Y036179D01*
X048580Y036278D02*
X049581Y036278D01*
X049581Y036376D02*
X046966Y036376D01*
X046966Y036278D02*
X047141Y036278D01*
X047043Y036179D02*
X046966Y036179D01*
X046966Y036475D02*
X047111Y036475D01*
X047012Y036573D02*
X046966Y036573D01*
X046506Y036573D02*
X038606Y036573D01*
X038705Y036672D02*
X046506Y036672D01*
X046506Y036771D02*
X038803Y036771D01*
X038902Y036869D02*
X046506Y036869D01*
X046506Y036968D02*
X039000Y036968D01*
X039099Y037066D02*
X046455Y037066D01*
X046357Y037165D02*
X039198Y037165D01*
X038116Y036573D02*
X036217Y036573D01*
X036217Y036475D02*
X046506Y036475D01*
X046506Y036376D02*
X036217Y036376D01*
X036217Y036278D02*
X046506Y036278D01*
X046506Y036179D02*
X036217Y036179D01*
X036217Y036081D02*
X046506Y036081D01*
X046506Y035982D02*
X036217Y035982D01*
X036217Y035884D02*
X046506Y035884D01*
X046604Y035292D02*
X041643Y035292D01*
X041742Y035194D02*
X046703Y035194D01*
X046801Y035095D02*
X041814Y035095D01*
X041814Y034997D02*
X046900Y034997D01*
X046911Y034898D02*
X041814Y034898D01*
X041764Y034800D02*
X046911Y034800D01*
X046911Y034701D02*
X041746Y034701D01*
X041746Y034603D02*
X046983Y034603D01*
X047081Y034504D02*
X041746Y034504D01*
X038017Y036672D02*
X036217Y036672D01*
X036217Y036771D02*
X037918Y036771D01*
X037820Y036869D02*
X036217Y036869D01*
X036217Y036968D02*
X037786Y036968D01*
X037786Y037066D02*
X036217Y037066D01*
X036217Y037165D02*
X037786Y037165D01*
X037786Y037263D02*
X036217Y037263D01*
X036217Y037362D02*
X037786Y037362D01*
X037786Y037460D02*
X036217Y037460D01*
X036217Y037559D02*
X037786Y037559D01*
X037786Y037657D02*
X036217Y037657D01*
X036217Y037756D02*
X037786Y037756D01*
X037822Y037855D02*
X036217Y037855D01*
X036455Y037953D02*
X036555Y037953D01*
X036555Y037896D02*
X036780Y037896D01*
X036818Y037906D01*
X036853Y037926D01*
X036881Y037954D01*
X036900Y037988D01*
X036911Y038026D01*
X036911Y038311D01*
X036555Y038311D01*
X036555Y037896D01*
X036555Y038052D02*
X036455Y038052D01*
X036455Y038150D02*
X036555Y038150D01*
X036555Y038249D02*
X036455Y038249D01*
X036555Y038347D02*
X038133Y038347D01*
X038035Y038249D02*
X036911Y038249D01*
X036911Y038150D02*
X038033Y038150D01*
X038019Y038052D02*
X036911Y038052D01*
X036880Y037953D02*
X037920Y037953D01*
X036555Y038446D02*
X036455Y038446D01*
X036455Y038544D02*
X036555Y038544D01*
X036555Y038643D02*
X036455Y038643D01*
X036455Y038741D02*
X036555Y038741D01*
X036547Y039411D02*
X036175Y039411D01*
X035911Y039675D01*
X035911Y040047D01*
X036175Y040311D01*
X036547Y040311D01*
X036811Y040047D01*
X036811Y039675D01*
X036547Y039411D01*
X036568Y039431D02*
X037154Y039431D01*
X037175Y039411D02*
X037547Y039411D01*
X037811Y039675D01*
X037811Y040047D01*
X037547Y040311D01*
X037175Y040311D01*
X036911Y040047D01*
X036911Y039675D01*
X037175Y039411D01*
X037056Y039530D02*
X036666Y039530D01*
X036765Y039628D02*
X036957Y039628D01*
X036911Y039727D02*
X036811Y039727D01*
X036811Y039825D02*
X036911Y039825D01*
X036911Y039924D02*
X036811Y039924D01*
X036811Y040022D02*
X036911Y040022D01*
X036985Y040121D02*
X036737Y040121D01*
X036639Y040220D02*
X037083Y040220D01*
X037175Y040411D02*
X037547Y040411D01*
X037811Y040675D01*
X037811Y041047D01*
X037547Y041311D01*
X037175Y041311D01*
X036911Y041047D01*
X036911Y040675D01*
X037175Y040411D01*
X037169Y040417D02*
X036553Y040417D01*
X036547Y040411D02*
X036811Y040675D01*
X036811Y041047D01*
X036547Y041311D01*
X036175Y041311D01*
X035911Y041047D01*
X035911Y040675D01*
X036175Y040411D01*
X036547Y040411D01*
X036652Y040515D02*
X037070Y040515D01*
X036972Y040614D02*
X036750Y040614D01*
X036811Y040712D02*
X036911Y040712D01*
X036911Y040811D02*
X036811Y040811D01*
X036811Y040909D02*
X036911Y040909D01*
X036911Y041008D02*
X036811Y041008D01*
X036752Y041106D02*
X036970Y041106D01*
X037069Y041205D02*
X036653Y041205D01*
X036555Y041304D02*
X037167Y041304D01*
X037555Y041304D02*
X038167Y041304D01*
X038175Y041311D02*
X037911Y041047D01*
X037911Y040675D01*
X038175Y040411D01*
X038547Y040411D01*
X038811Y040675D01*
X038811Y041047D01*
X038547Y041311D01*
X038175Y041311D01*
X038069Y041205D02*
X037653Y041205D01*
X037752Y041106D02*
X037970Y041106D01*
X037911Y041008D02*
X037811Y041008D01*
X037811Y040909D02*
X037911Y040909D01*
X037911Y040811D02*
X037811Y040811D01*
X037811Y040712D02*
X037911Y040712D01*
X037972Y040614D02*
X037750Y040614D01*
X037652Y040515D02*
X038070Y040515D01*
X038169Y040417D02*
X037553Y040417D01*
X037639Y040220D02*
X038083Y040220D01*
X038175Y040311D02*
X037911Y040047D01*
X037911Y039675D01*
X038175Y039411D01*
X038547Y039411D01*
X038811Y039675D01*
X038811Y040047D01*
X038547Y040311D01*
X038175Y040311D01*
X037985Y040121D02*
X037737Y040121D01*
X037811Y040022D02*
X037911Y040022D01*
X037911Y039924D02*
X037811Y039924D01*
X037811Y039825D02*
X037911Y039825D01*
X037911Y039727D02*
X037811Y039727D01*
X037765Y039628D02*
X037957Y039628D01*
X038056Y039530D02*
X037666Y039530D01*
X037568Y039431D02*
X038154Y039431D01*
X038568Y039431D02*
X039154Y039431D01*
X039175Y039411D02*
X039547Y039411D01*
X039811Y039675D01*
X039811Y040047D01*
X039547Y040311D01*
X039175Y040311D01*
X038911Y040047D01*
X038911Y039675D01*
X039175Y039411D01*
X039056Y039530D02*
X038666Y039530D01*
X038765Y039628D02*
X038957Y039628D01*
X038911Y039727D02*
X038811Y039727D01*
X038811Y039825D02*
X038911Y039825D01*
X038911Y039924D02*
X038811Y039924D01*
X038811Y040022D02*
X038911Y040022D01*
X038985Y040121D02*
X038737Y040121D01*
X038639Y040220D02*
X039083Y040220D01*
X039175Y040411D02*
X039547Y040411D01*
X039811Y040675D01*
X039811Y041047D01*
X039547Y041311D01*
X039175Y041311D01*
X038911Y041047D01*
X038911Y040675D01*
X039175Y040411D01*
X039169Y040417D02*
X038553Y040417D01*
X038652Y040515D02*
X039070Y040515D01*
X038972Y040614D02*
X038750Y040614D01*
X038811Y040712D02*
X038911Y040712D01*
X038911Y040811D02*
X038811Y040811D01*
X038811Y040909D02*
X038911Y040909D01*
X038911Y041008D02*
X038811Y041008D01*
X038752Y041106D02*
X038970Y041106D01*
X039069Y041205D02*
X038653Y041205D01*
X038555Y041304D02*
X039167Y041304D01*
X039555Y041304D02*
X040167Y041304D01*
X040175Y041311D02*
X039911Y041047D01*
X039911Y040675D01*
X040175Y040411D01*
X040547Y040411D01*
X040811Y040675D01*
X040811Y041047D01*
X040547Y041311D01*
X040175Y041311D01*
X040069Y041205D02*
X039653Y041205D01*
X039752Y041106D02*
X039970Y041106D01*
X039911Y041008D02*
X039811Y041008D01*
X039811Y040909D02*
X039911Y040909D01*
X039911Y040811D02*
X039811Y040811D01*
X039811Y040712D02*
X039911Y040712D01*
X039972Y040614D02*
X039750Y040614D01*
X039652Y040515D02*
X040070Y040515D01*
X040169Y040417D02*
X039553Y040417D01*
X039639Y040220D02*
X040083Y040220D01*
X040175Y040311D02*
X039911Y040047D01*
X039911Y039675D01*
X040175Y039411D01*
X040547Y039411D01*
X040811Y039675D01*
X040811Y040047D01*
X040547Y040311D01*
X040175Y040311D01*
X039985Y040121D02*
X039737Y040121D01*
X039811Y040022D02*
X039911Y040022D01*
X039911Y039924D02*
X039811Y039924D01*
X039811Y039825D02*
X039911Y039825D01*
X039911Y039727D02*
X039811Y039727D01*
X039765Y039628D02*
X039957Y039628D01*
X040056Y039530D02*
X039666Y039530D01*
X039568Y039431D02*
X040154Y039431D01*
X040568Y039431D02*
X049581Y039431D01*
X049581Y039333D02*
X035385Y039333D01*
X035547Y039411D02*
X035175Y039411D01*
X034911Y039675D01*
X034911Y040047D01*
X035175Y040311D01*
X035547Y040311D01*
X035811Y040047D01*
X035811Y039675D01*
X035547Y039411D01*
X035568Y039431D02*
X036154Y039431D01*
X036056Y039530D02*
X035666Y039530D01*
X035765Y039628D02*
X035957Y039628D01*
X035911Y039727D02*
X035811Y039727D01*
X035811Y039825D02*
X035911Y039825D01*
X035911Y039924D02*
X035811Y039924D01*
X035811Y040022D02*
X035911Y040022D01*
X035985Y040121D02*
X035737Y040121D01*
X035639Y040220D02*
X036083Y040220D01*
X036169Y040417D02*
X035553Y040417D01*
X035547Y040411D02*
X035811Y040675D01*
X035811Y041047D01*
X035547Y041311D01*
X035175Y041311D01*
X034911Y041047D01*
X034911Y040675D01*
X035175Y040411D01*
X035547Y040411D01*
X035652Y040515D02*
X036070Y040515D01*
X035972Y040614D02*
X035750Y040614D01*
X035811Y040712D02*
X035911Y040712D01*
X035911Y040811D02*
X035811Y040811D01*
X035811Y040909D02*
X035911Y040909D01*
X035911Y041008D02*
X035811Y041008D01*
X035752Y041106D02*
X035970Y041106D01*
X036069Y041205D02*
X035653Y041205D01*
X035555Y041304D02*
X036167Y041304D01*
X035167Y041304D02*
X034555Y041304D01*
X034547Y041311D02*
X034175Y041311D01*
X033911Y041047D01*
X033911Y040675D01*
X034175Y040411D01*
X034547Y040411D01*
X034811Y040675D01*
X034811Y041047D01*
X034547Y041311D01*
X034653Y041205D02*
X035069Y041205D01*
X034970Y041106D02*
X034752Y041106D01*
X034811Y041008D02*
X034911Y041008D01*
X034911Y040909D02*
X034811Y040909D01*
X034811Y040811D02*
X034911Y040811D01*
X034911Y040712D02*
X034811Y040712D01*
X034750Y040614D02*
X034972Y040614D01*
X035070Y040515D02*
X034652Y040515D01*
X034553Y040417D02*
X035169Y040417D01*
X035083Y040220D02*
X034639Y040220D01*
X034547Y040311D02*
X034175Y040311D01*
X033911Y040047D01*
X033911Y039675D01*
X034175Y039411D01*
X034547Y039411D01*
X034811Y039675D01*
X034811Y040047D01*
X034547Y040311D01*
X034737Y040121D02*
X034985Y040121D01*
X034911Y040022D02*
X034811Y040022D01*
X034811Y039924D02*
X034911Y039924D01*
X034911Y039825D02*
X034811Y039825D01*
X034811Y039727D02*
X034911Y039727D01*
X034957Y039628D02*
X034765Y039628D01*
X034666Y039530D02*
X035056Y039530D01*
X035154Y039431D02*
X034568Y039431D01*
X034154Y039431D02*
X033568Y039431D01*
X033547Y039411D02*
X033811Y039675D01*
X033811Y040047D01*
X033547Y040311D01*
X033175Y040311D01*
X032911Y040047D01*
X032911Y039675D01*
X033175Y039411D01*
X033547Y039411D01*
X033666Y039530D02*
X034056Y039530D01*
X033957Y039628D02*
X033765Y039628D01*
X033811Y039727D02*
X033911Y039727D01*
X033911Y039825D02*
X033811Y039825D01*
X033811Y039924D02*
X033911Y039924D01*
X033911Y040022D02*
X033811Y040022D01*
X033737Y040121D02*
X033985Y040121D01*
X034083Y040220D02*
X033639Y040220D01*
X033547Y040411D02*
X033811Y040675D01*
X033811Y041047D01*
X033547Y041311D01*
X033175Y041311D01*
X032911Y041047D01*
X032911Y040675D01*
X033175Y040411D01*
X033547Y040411D01*
X033553Y040417D02*
X034169Y040417D01*
X034070Y040515D02*
X033652Y040515D01*
X033750Y040614D02*
X033972Y040614D01*
X033911Y040712D02*
X033811Y040712D01*
X033811Y040811D02*
X033911Y040811D01*
X033911Y040909D02*
X033811Y040909D01*
X033811Y041008D02*
X033911Y041008D01*
X033970Y041106D02*
X033752Y041106D01*
X033653Y041205D02*
X034069Y041205D01*
X034167Y041304D02*
X033555Y041304D01*
X033167Y041304D02*
X032555Y041304D01*
X032547Y041311D02*
X032175Y041311D01*
X031911Y041047D01*
X031911Y040675D01*
X032175Y040411D01*
X032547Y040411D01*
X032811Y040675D01*
X032811Y041047D01*
X032547Y041311D01*
X032653Y041205D02*
X033069Y041205D01*
X032970Y041106D02*
X032752Y041106D01*
X032811Y041008D02*
X032911Y041008D01*
X032911Y040909D02*
X032811Y040909D01*
X032811Y040811D02*
X032911Y040811D01*
X032911Y040712D02*
X032811Y040712D01*
X032750Y040614D02*
X032972Y040614D01*
X033070Y040515D02*
X032652Y040515D01*
X032553Y040417D02*
X033169Y040417D01*
X033083Y040220D02*
X032639Y040220D01*
X032547Y040311D02*
X032175Y040311D01*
X031911Y040047D01*
X031911Y039675D01*
X032175Y039411D01*
X032547Y039411D01*
X032811Y039675D01*
X032811Y040047D01*
X032547Y040311D01*
X032737Y040121D02*
X032985Y040121D01*
X032911Y040022D02*
X032811Y040022D01*
X032811Y039924D02*
X032911Y039924D01*
X032911Y039825D02*
X032811Y039825D01*
X032811Y039727D02*
X032911Y039727D01*
X032957Y039628D02*
X032765Y039628D01*
X032666Y039530D02*
X033056Y039530D01*
X033154Y039431D02*
X032568Y039431D01*
X032661Y039333D02*
X030986Y039333D01*
X030986Y039431D02*
X031154Y039431D01*
X031056Y039530D02*
X030986Y039530D01*
X030726Y039530D02*
X030666Y039530D01*
X030726Y039431D02*
X030568Y039431D01*
X030411Y039431D02*
X030311Y039431D01*
X030311Y039411D02*
X030311Y039811D01*
X029911Y039811D01*
X029911Y039675D01*
X030175Y039411D01*
X030311Y039411D01*
X030311Y039530D02*
X030411Y039530D01*
X030411Y039628D02*
X030311Y039628D01*
X030311Y039727D02*
X030411Y039727D01*
X030311Y039825D02*
X029411Y039825D01*
X029411Y039811D02*
X029811Y039811D01*
X029811Y039675D01*
X029547Y039411D01*
X029411Y039411D01*
X029411Y039811D01*
X029411Y039727D02*
X029311Y039727D01*
X029311Y039628D02*
X029411Y039628D01*
X029411Y039530D02*
X029311Y039530D01*
X029311Y039431D02*
X029411Y039431D01*
X029568Y039431D02*
X030154Y039431D01*
X030056Y039530D02*
X029666Y039530D01*
X029765Y039628D02*
X029957Y039628D01*
X029911Y039727D02*
X029811Y039727D01*
X029811Y039911D02*
X029811Y040047D01*
X029547Y040311D01*
X029411Y040311D01*
X029411Y039911D01*
X029811Y039911D01*
X029811Y039924D02*
X029911Y039924D01*
X029911Y040022D02*
X029811Y040022D01*
X029737Y040121D02*
X029985Y040121D01*
X030083Y040220D02*
X029639Y040220D01*
X029638Y040417D02*
X030169Y040417D01*
X030175Y040411D02*
X030311Y040411D01*
X030311Y040811D01*
X029911Y040811D01*
X029911Y040675D01*
X030175Y040411D01*
X030311Y040417D02*
X030411Y040417D01*
X030411Y040515D02*
X030311Y040515D01*
X030311Y040614D02*
X030411Y040614D01*
X030411Y040712D02*
X030311Y040712D01*
X030311Y040909D02*
X029871Y040909D01*
X029871Y040811D02*
X029911Y040811D01*
X029911Y040712D02*
X029871Y040712D01*
X029835Y040614D02*
X029972Y040614D01*
X030070Y040515D02*
X029736Y040515D01*
X029411Y040220D02*
X029311Y040220D01*
X029311Y040121D02*
X029411Y040121D01*
X029411Y040022D02*
X029311Y040022D01*
X029311Y039924D02*
X029411Y039924D01*
X029228Y040318D02*
X030726Y040318D01*
X030726Y040220D02*
X030639Y040220D01*
X030553Y040417D02*
X030726Y040417D01*
X030726Y040515D02*
X030652Y040515D01*
X030986Y040515D02*
X031070Y040515D01*
X030986Y040417D02*
X031169Y040417D01*
X031311Y040417D02*
X031411Y040417D01*
X031411Y040411D02*
X031547Y040411D01*
X031811Y040675D01*
X031811Y040811D01*
X031411Y040811D01*
X031411Y040411D01*
X031411Y040311D02*
X031411Y039911D01*
X031811Y039911D01*
X031811Y040047D01*
X031547Y040311D01*
X031411Y040311D01*
X031411Y040220D02*
X031311Y040220D01*
X031311Y040121D02*
X031411Y040121D01*
X031411Y040022D02*
X031311Y040022D01*
X031311Y039924D02*
X031411Y039924D01*
X031411Y039825D02*
X031911Y039825D01*
X031911Y039727D02*
X031811Y039727D01*
X031811Y039675D02*
X031811Y039811D01*
X031411Y039811D01*
X031411Y039411D01*
X031547Y039411D01*
X031811Y039675D01*
X031765Y039628D02*
X031957Y039628D01*
X032056Y039530D02*
X031666Y039530D01*
X031568Y039431D02*
X032154Y039431D01*
X032434Y039136D02*
X030986Y039136D01*
X030986Y039234D02*
X032527Y039234D01*
X032386Y039037D02*
X030986Y039037D01*
X030986Y038939D02*
X032361Y038939D01*
X032361Y038840D02*
X030986Y038840D01*
X030986Y038741D02*
X032369Y038741D01*
X032408Y038643D02*
X030986Y038643D01*
X030986Y038544D02*
X032470Y038544D01*
X032569Y038446D02*
X030986Y038446D01*
X030726Y038446D02*
X029196Y038446D01*
X029196Y038544D02*
X030726Y038544D01*
X030726Y038643D02*
X029196Y038643D01*
X029196Y038741D02*
X030726Y038741D01*
X030726Y038840D02*
X029196Y038840D01*
X029196Y038939D02*
X030726Y038939D01*
X030726Y039037D02*
X029196Y039037D01*
X029196Y039136D02*
X030726Y039136D01*
X030726Y039234D02*
X029196Y039234D01*
X029196Y039333D02*
X030726Y039333D01*
X031311Y039431D02*
X031411Y039431D01*
X031411Y039530D02*
X031311Y039530D01*
X031311Y039628D02*
X031411Y039628D01*
X031411Y039727D02*
X031311Y039727D01*
X031811Y039924D02*
X031911Y039924D01*
X031911Y040022D02*
X031811Y040022D01*
X031737Y040121D02*
X031985Y040121D01*
X032083Y040220D02*
X031639Y040220D01*
X031553Y040417D02*
X032169Y040417D01*
X032070Y040515D02*
X031652Y040515D01*
X031750Y040614D02*
X031972Y040614D01*
X031911Y040712D02*
X031811Y040712D01*
X031811Y040811D02*
X031911Y040811D01*
X031911Y040909D02*
X031411Y040909D01*
X031411Y041008D02*
X031311Y041008D01*
X031311Y041106D02*
X031411Y041106D01*
X031411Y041205D02*
X031311Y041205D01*
X031311Y041304D02*
X031411Y041304D01*
X031555Y041304D02*
X032167Y041304D01*
X032069Y041205D02*
X031653Y041205D01*
X031752Y041106D02*
X031970Y041106D01*
X031911Y041008D02*
X031811Y041008D01*
X031411Y040712D02*
X031311Y040712D01*
X031311Y040614D02*
X031411Y040614D01*
X031411Y040515D02*
X031311Y040515D01*
X031083Y040220D02*
X030986Y040220D01*
X030986Y040318D02*
X049581Y040318D01*
X049581Y040220D02*
X040639Y040220D01*
X040737Y040121D02*
X049581Y040121D01*
X049581Y040022D02*
X040811Y040022D01*
X040811Y039924D02*
X049581Y039924D01*
X049581Y039825D02*
X040811Y039825D01*
X040811Y039727D02*
X049581Y039727D01*
X049581Y039628D02*
X040765Y039628D01*
X040666Y039530D02*
X049581Y039530D01*
X049581Y039234D02*
X048624Y039234D01*
X048547Y039311D02*
X048411Y039311D01*
X048411Y038911D01*
X048311Y038911D01*
X048311Y039311D01*
X048175Y039311D01*
X047911Y039047D01*
X047911Y038911D01*
X048311Y038911D01*
X048311Y038811D01*
X047911Y038811D01*
X047911Y038675D01*
X048175Y038411D01*
X048311Y038411D01*
X048311Y038811D01*
X048411Y038811D01*
X048411Y038911D01*
X048811Y038911D01*
X048811Y039047D01*
X048547Y039311D01*
X048411Y039234D02*
X048311Y039234D01*
X048311Y039136D02*
X048411Y039136D01*
X048411Y039037D02*
X048311Y039037D01*
X048311Y038939D02*
X048411Y038939D01*
X048411Y038840D02*
X049581Y038840D01*
X049581Y038939D02*
X048811Y038939D01*
X048811Y039037D02*
X049581Y039037D01*
X049581Y039136D02*
X048723Y039136D01*
X048811Y038811D02*
X048411Y038811D01*
X048411Y038411D01*
X048547Y038411D01*
X048811Y038675D01*
X048811Y038811D01*
X048811Y038741D02*
X049581Y038741D01*
X049581Y038643D02*
X048779Y038643D01*
X048681Y038544D02*
X049581Y038544D01*
X049581Y038446D02*
X048582Y038446D01*
X048547Y038311D02*
X048411Y038311D01*
X048411Y037911D01*
X048811Y037911D01*
X048811Y038047D01*
X048547Y038311D01*
X048610Y038249D02*
X049581Y038249D01*
X049581Y038347D02*
X047172Y038347D01*
X047112Y038249D02*
X047074Y038249D01*
X047014Y038150D02*
X046975Y038150D01*
X047610Y038249D02*
X048112Y038249D01*
X048014Y038150D02*
X047708Y038150D01*
X047807Y038052D02*
X047915Y038052D01*
X047911Y037953D02*
X047811Y037953D01*
X047811Y037855D02*
X048311Y037855D01*
X048311Y037953D02*
X048411Y037953D01*
X048411Y037855D02*
X049581Y037855D01*
X049581Y037953D02*
X048811Y037953D01*
X048807Y038052D02*
X049581Y038052D01*
X049581Y038150D02*
X048708Y038150D01*
X048411Y038150D02*
X048311Y038150D01*
X048311Y038052D02*
X048411Y038052D01*
X048411Y038249D02*
X048311Y038249D01*
X048311Y038446D02*
X048411Y038446D01*
X048411Y038544D02*
X048311Y038544D01*
X048311Y038643D02*
X048411Y038643D01*
X048411Y038741D02*
X048311Y038741D01*
X048311Y038840D02*
X047811Y038840D01*
X047811Y038939D02*
X047911Y038939D01*
X047911Y039037D02*
X047811Y039037D01*
X047723Y039136D02*
X047999Y039136D01*
X048098Y039234D02*
X047624Y039234D01*
X047098Y039234D02*
X035551Y039234D01*
X035650Y039136D02*
X046999Y039136D01*
X047681Y038544D02*
X048041Y038544D01*
X048140Y038446D02*
X047582Y038446D01*
X047779Y038643D02*
X047943Y038643D01*
X047911Y038741D02*
X047811Y038741D01*
X047811Y037756D02*
X047911Y037756D01*
X047928Y037657D02*
X047794Y037657D01*
X047695Y037559D02*
X048027Y037559D01*
X048125Y037460D02*
X047597Y037460D01*
X047595Y037263D02*
X048127Y037263D01*
X048028Y037165D02*
X047694Y037165D01*
X047792Y037066D02*
X047930Y037066D01*
X047911Y036968D02*
X047811Y036968D01*
X048311Y036968D02*
X048411Y036968D01*
X048411Y037066D02*
X048311Y037066D01*
X048311Y037165D02*
X048411Y037165D01*
X048411Y037263D02*
X048311Y037263D01*
X048311Y037460D02*
X048411Y037460D01*
X048411Y037559D02*
X048311Y037559D01*
X048311Y037657D02*
X048411Y037657D01*
X048411Y037756D02*
X048311Y037756D01*
X048695Y037559D02*
X049581Y037559D01*
X049581Y037657D02*
X048794Y037657D01*
X048811Y037756D02*
X049581Y037756D01*
X049581Y036672D02*
X048808Y036672D01*
X048710Y036573D02*
X049581Y036573D01*
X049581Y036475D02*
X048611Y036475D01*
X048411Y036475D02*
X048311Y036475D01*
X048311Y036573D02*
X048411Y036573D01*
X048411Y036672D02*
X048311Y036672D01*
X048311Y036278D02*
X048411Y036278D01*
X048411Y036179D02*
X048311Y036179D01*
X048311Y036081D02*
X048411Y036081D01*
X048411Y035785D02*
X048311Y035785D01*
X048311Y035687D02*
X048411Y035687D01*
X048411Y035588D02*
X048311Y035588D01*
X048311Y035489D02*
X048411Y035489D01*
X048096Y035489D02*
X047626Y035489D01*
X047724Y035588D02*
X047997Y035588D01*
X047911Y035687D02*
X047811Y035687D01*
X047811Y035785D02*
X047911Y035785D01*
X048156Y035292D02*
X047566Y035292D01*
X047664Y035194D02*
X048057Y035194D01*
X047959Y035095D02*
X047763Y035095D01*
X047811Y034997D02*
X047911Y034997D01*
X047911Y034898D02*
X047811Y034898D01*
X047811Y034800D02*
X047911Y034800D01*
X047911Y034701D02*
X047811Y034701D01*
X047739Y034603D02*
X047983Y034603D01*
X048081Y034504D02*
X047640Y034504D01*
X048724Y035588D02*
X049581Y035588D01*
X049581Y035687D02*
X048811Y035687D01*
X048811Y035785D02*
X049581Y035785D01*
X047127Y037263D02*
X046909Y037263D01*
X046966Y037165D02*
X047028Y037165D01*
X049581Y040417D02*
X040553Y040417D01*
X040652Y040515D02*
X049581Y040515D01*
X049581Y040614D02*
X040750Y040614D01*
X040811Y040712D02*
X049581Y040712D01*
X049581Y040811D02*
X040811Y040811D01*
X040811Y040909D02*
X049581Y040909D01*
X049581Y041008D02*
X040811Y041008D01*
X040752Y041106D02*
X049581Y041106D01*
X049581Y041205D02*
X040653Y041205D01*
X040555Y041304D02*
X049581Y041304D01*
X049581Y041402D02*
X030986Y041402D01*
X030986Y041304D02*
X031167Y041304D01*
X031069Y041205D02*
X030986Y041205D01*
X030726Y041205D02*
X030653Y041205D01*
X030726Y041304D02*
X030555Y041304D01*
X030411Y041304D02*
X030311Y041304D01*
X030311Y041205D02*
X030411Y041205D01*
X030411Y041106D02*
X030311Y041106D01*
X030311Y041008D02*
X030411Y041008D01*
X030167Y041304D02*
X029640Y041304D01*
X029738Y041205D02*
X030069Y041205D01*
X029970Y041106D02*
X029837Y041106D01*
X029871Y041008D02*
X029911Y041008D01*
X029082Y041304D02*
X028621Y041304D01*
X028683Y041402D02*
X030726Y041402D01*
X030726Y041501D02*
X028696Y041501D01*
X028696Y041599D02*
X030726Y041599D01*
X030726Y041698D02*
X028696Y041698D01*
X028672Y041796D02*
X030726Y041796D01*
X030986Y041796D02*
X049581Y041796D01*
X049581Y041698D02*
X030986Y041698D01*
X030986Y041599D02*
X049581Y041599D01*
X049581Y041501D02*
X030986Y041501D01*
X030411Y040220D02*
X030311Y040220D01*
X030311Y040121D02*
X030411Y040121D01*
X030411Y040022D02*
X030311Y040022D01*
X030311Y039924D02*
X030411Y039924D01*
X030726Y038347D02*
X029196Y038347D01*
X029196Y038249D02*
X030726Y038249D01*
X030726Y038150D02*
X029196Y038150D01*
X029196Y038052D02*
X030726Y038052D01*
X030726Y037953D02*
X029196Y037953D01*
X029196Y037855D02*
X030726Y037855D01*
X030726Y037756D02*
X029196Y037756D01*
X029196Y037657D02*
X030726Y037657D01*
X030726Y037559D02*
X029196Y037559D01*
X029196Y037460D02*
X030726Y037460D01*
X030726Y037362D02*
X029196Y037362D01*
X029196Y037263D02*
X030726Y037263D01*
X030726Y037165D02*
X029196Y037165D01*
X029196Y037066D02*
X030726Y037066D01*
X030726Y036968D02*
X029196Y036968D01*
X029196Y036869D02*
X030726Y036869D01*
X030726Y036771D02*
X029196Y036771D01*
X029196Y036672D02*
X030726Y036672D01*
X030726Y036573D02*
X029196Y036573D01*
X029196Y036475D02*
X030726Y036475D01*
X030726Y036376D02*
X029196Y036376D01*
X029196Y036278D02*
X030726Y036278D01*
X030726Y036179D02*
X029196Y036179D01*
X029196Y036081D02*
X030726Y036081D01*
X030726Y035982D02*
X029196Y035982D01*
X029196Y035884D02*
X030726Y035884D01*
X030726Y035785D02*
X029196Y035785D01*
X029196Y035687D02*
X030726Y035687D01*
X030726Y035588D02*
X029196Y035588D01*
X029196Y035489D02*
X030726Y035489D01*
X030726Y035391D02*
X029196Y035391D01*
X029196Y035292D02*
X030726Y035292D01*
X030726Y035194D02*
X029196Y035194D01*
X029196Y035095D02*
X030726Y035095D01*
X030629Y034997D02*
X029196Y034997D01*
X029196Y034898D02*
X030531Y034898D01*
X030432Y034800D02*
X029196Y034800D01*
X029196Y034701D02*
X030334Y034701D01*
X030235Y034603D02*
X029196Y034603D01*
X029196Y034504D02*
X030136Y034504D01*
X030038Y034406D02*
X029196Y034406D01*
X029196Y034307D02*
X029939Y034307D01*
X029841Y034208D02*
X029196Y034208D01*
X029196Y034110D02*
X029742Y034110D01*
X029644Y034011D02*
X029196Y034011D01*
X029196Y033913D02*
X029545Y033913D01*
X029447Y033814D02*
X029196Y033814D01*
X029196Y033716D02*
X029348Y033716D01*
X029250Y033617D02*
X029196Y033617D01*
X028276Y033617D02*
X025446Y033617D01*
X025446Y033519D02*
X028276Y033519D01*
X028276Y033420D02*
X025446Y033420D01*
X025446Y033322D02*
X028276Y033322D01*
X028276Y033223D02*
X025446Y033223D01*
X025446Y033124D02*
X028276Y033124D01*
X028276Y033026D02*
X025446Y033026D01*
X025446Y032927D02*
X028276Y032927D01*
X028178Y032829D02*
X025446Y032829D01*
X025446Y032730D02*
X028080Y032730D01*
X027981Y032632D02*
X025446Y032632D01*
X025446Y032533D02*
X027883Y032533D01*
X027784Y032435D02*
X025446Y032435D01*
X025446Y032336D02*
X027686Y032336D01*
X027587Y032238D02*
X025446Y032238D01*
X025446Y032139D02*
X027489Y032139D01*
X027390Y032040D02*
X025446Y032040D01*
X025446Y031942D02*
X027291Y031942D01*
X027193Y031843D02*
X025529Y031843D01*
X025628Y031745D02*
X027094Y031745D01*
X026996Y031646D02*
X025726Y031646D01*
X025825Y031548D02*
X026897Y031548D01*
X026799Y031449D02*
X025923Y031449D01*
X026022Y031351D02*
X026700Y031351D01*
X026602Y031252D02*
X026120Y031252D01*
X026219Y031154D02*
X026503Y031154D01*
X026405Y031055D02*
X026317Y031055D01*
X027016Y030365D02*
X027851Y030365D01*
X027851Y030267D02*
X026917Y030267D01*
X026821Y030168D02*
X027851Y030168D01*
X027851Y030070D02*
X027554Y030070D01*
X027654Y029971D02*
X027851Y029971D01*
X027851Y029873D02*
X027661Y029873D01*
X027661Y029774D02*
X027851Y029774D01*
X027851Y029675D02*
X027661Y029675D01*
X027661Y029561D02*
X027305Y029561D01*
X027305Y029146D01*
X027530Y029146D01*
X027568Y029156D01*
X027603Y029176D01*
X027631Y029204D01*
X027650Y029238D01*
X027661Y029276D01*
X027661Y029561D01*
X027661Y029478D02*
X027851Y029478D01*
X027851Y029380D02*
X027661Y029380D01*
X027661Y029281D02*
X027851Y029281D01*
X027851Y029183D02*
X027609Y029183D01*
X027851Y029084D02*
X026894Y029084D01*
X026915Y028986D02*
X027851Y028986D01*
X027851Y028887D02*
X026921Y028887D01*
X026921Y028789D02*
X027851Y028789D01*
X027851Y028690D02*
X026921Y028690D01*
X026921Y028591D02*
X027851Y028591D01*
X027851Y028493D02*
X026921Y028493D01*
X026921Y028394D02*
X027851Y028394D01*
X027851Y028296D02*
X026921Y028296D01*
X026921Y028197D02*
X027851Y028197D01*
X027851Y028099D02*
X026921Y028099D01*
X026921Y028000D02*
X027851Y028000D01*
X027851Y027902D02*
X027622Y027902D01*
X027661Y027803D02*
X027851Y027803D01*
X027851Y027705D02*
X027661Y027705D01*
X027661Y027606D02*
X027851Y027606D01*
X027872Y027507D02*
X027305Y027507D01*
X027305Y027436D02*
X027661Y027436D01*
X027661Y027151D01*
X027650Y027113D01*
X027631Y027079D01*
X027603Y027051D01*
X027568Y027031D01*
X027530Y027021D01*
X027305Y027021D01*
X027305Y027436D01*
X027305Y027409D02*
X027205Y027409D01*
X027205Y027310D02*
X027305Y027310D01*
X027305Y027212D02*
X027205Y027212D01*
X027205Y027113D02*
X027305Y027113D01*
X027650Y027113D02*
X028241Y027113D01*
X028339Y027015D02*
X026921Y027015D01*
X026921Y026916D02*
X028438Y026916D01*
X028536Y026818D02*
X026921Y026818D01*
X026921Y026719D02*
X028635Y026719D01*
X028734Y026621D02*
X027018Y026621D01*
X027117Y026522D02*
X028832Y026522D01*
X028931Y026424D02*
X027215Y026424D01*
X027314Y026325D02*
X029029Y026325D01*
X029128Y026226D02*
X027412Y026226D01*
X027511Y026128D02*
X029226Y026128D01*
X029325Y026029D02*
X027609Y026029D01*
X027708Y025931D02*
X029423Y025931D01*
X029522Y025832D02*
X027807Y025832D01*
X027905Y025734D02*
X029620Y025734D01*
X029719Y025635D02*
X028004Y025635D01*
X028102Y025537D02*
X029818Y025537D01*
X029916Y025438D02*
X028201Y025438D01*
X028299Y025340D02*
X030015Y025340D01*
X030113Y025241D02*
X028398Y025241D01*
X028496Y025142D02*
X030212Y025142D01*
X030310Y025044D02*
X028595Y025044D01*
X028693Y024945D02*
X030409Y024945D01*
X030507Y024847D02*
X028792Y024847D01*
X028891Y024748D02*
X030606Y024748D01*
X030704Y024650D02*
X028989Y024650D01*
X029088Y024551D02*
X030803Y024551D01*
X030902Y024453D02*
X029186Y024453D01*
X029285Y024354D02*
X031000Y024354D01*
X031099Y024256D02*
X029383Y024256D01*
X029482Y024157D02*
X031197Y024157D01*
X031296Y024058D02*
X029580Y024058D01*
X029679Y023960D02*
X031394Y023960D01*
X031493Y023861D02*
X029777Y023861D01*
X029876Y023763D02*
X031591Y023763D01*
X031690Y023664D02*
X029975Y023664D01*
X030073Y023566D02*
X031788Y023566D01*
X031887Y023467D02*
X030172Y023467D01*
X030270Y023369D02*
X031986Y023369D01*
X032084Y023270D02*
X030369Y023270D01*
X030467Y023172D02*
X032183Y023172D01*
X032281Y023073D02*
X030566Y023073D01*
X030664Y022974D02*
X032380Y022974D01*
X032478Y022876D02*
X030763Y022876D01*
X030861Y022777D02*
X032577Y022777D01*
X032675Y022679D02*
X030960Y022679D01*
X031059Y022580D02*
X032774Y022580D01*
X032872Y022482D02*
X031157Y022482D01*
X031256Y022383D02*
X032971Y022383D01*
X033069Y022285D02*
X031354Y022285D01*
X031453Y022186D02*
X033168Y022186D01*
X033267Y022088D02*
X031551Y022088D01*
X031650Y021989D02*
X033365Y021989D01*
X033464Y021891D02*
X031748Y021891D01*
X031847Y021792D02*
X033562Y021792D01*
X033661Y021693D02*
X031945Y021693D01*
X032044Y021595D02*
X033759Y021595D01*
X033858Y021496D02*
X032142Y021496D01*
X032241Y021398D02*
X033956Y021398D01*
X034055Y021299D02*
X032340Y021299D01*
X032438Y021201D02*
X034153Y021201D01*
X034252Y021102D02*
X032537Y021102D01*
X032635Y021004D02*
X034351Y021004D01*
X034449Y020905D02*
X032734Y020905D01*
X032832Y020807D02*
X034548Y020807D01*
X034646Y020708D02*
X032931Y020708D01*
X033029Y020609D02*
X034745Y020609D01*
X034843Y020511D02*
X033128Y020511D01*
X033226Y020412D02*
X034942Y020412D01*
X035040Y020314D02*
X033325Y020314D01*
X033424Y020215D02*
X035139Y020215D01*
X035237Y020117D02*
X033522Y020117D01*
X033621Y020018D02*
X035336Y020018D01*
X035435Y019920D02*
X033719Y019920D01*
X033818Y019821D02*
X035533Y019821D01*
X035632Y019723D02*
X033916Y019723D01*
X034015Y019624D02*
X035730Y019624D01*
X035829Y019525D02*
X034113Y019525D01*
X034212Y019427D02*
X035927Y019427D01*
X036026Y019328D02*
X034310Y019328D01*
X034409Y019230D02*
X036124Y019230D01*
X036295Y019427D02*
X040088Y019427D01*
X040186Y019328D02*
X036394Y019328D01*
X036492Y019230D02*
X040285Y019230D01*
X040383Y019131D02*
X036591Y019131D01*
X036689Y019033D02*
X040482Y019033D01*
X039989Y019525D02*
X036196Y019525D01*
X036098Y019624D02*
X039891Y019624D01*
X039059Y019723D02*
X035999Y019723D01*
X035901Y019821D02*
X038960Y019821D01*
X038862Y019920D02*
X035802Y019920D01*
X035704Y020018D02*
X038768Y020018D01*
X038727Y020117D02*
X035605Y020117D01*
X035507Y020215D02*
X038711Y020215D01*
X038711Y020314D02*
X035408Y020314D01*
X035310Y020412D02*
X038751Y020412D01*
X038820Y020511D02*
X035211Y020511D01*
X035112Y020609D02*
X038967Y020609D01*
X039254Y020609D02*
X039611Y020609D01*
X039611Y020511D02*
X039402Y020511D01*
X039611Y020708D02*
X035014Y020708D01*
X034915Y020807D02*
X039611Y020807D01*
X039611Y020905D02*
X034817Y020905D01*
X034718Y021004D02*
X039611Y021004D01*
X039611Y021102D02*
X034620Y021102D01*
X034521Y021201D02*
X039611Y021201D01*
X039611Y021299D02*
X034423Y021299D01*
X034324Y021398D02*
X039611Y021398D01*
X039611Y021496D02*
X034226Y021496D01*
X034127Y021595D02*
X039611Y021595D01*
X039611Y021693D02*
X034028Y021693D01*
X033930Y021792D02*
X039611Y021792D01*
X039611Y021891D02*
X033831Y021891D01*
X033733Y021989D02*
X039611Y021989D01*
X039611Y022088D02*
X033634Y022088D01*
X033536Y022186D02*
X039611Y022186D01*
X039611Y022285D02*
X033437Y022285D01*
X033339Y022383D02*
X039611Y022383D01*
X039611Y022482D02*
X033240Y022482D01*
X033142Y022580D02*
X039611Y022580D01*
X039611Y022679D02*
X033043Y022679D01*
X032944Y022777D02*
X039611Y022777D01*
X039611Y022876D02*
X032846Y022876D01*
X032747Y022974D02*
X039611Y022974D01*
X039611Y023073D02*
X032649Y023073D01*
X032550Y023172D02*
X039611Y023172D01*
X039611Y023270D02*
X032452Y023270D01*
X032353Y023369D02*
X039611Y023369D01*
X039611Y023467D02*
X032255Y023467D01*
X032156Y023566D02*
X039611Y023566D01*
X039611Y023664D02*
X032058Y023664D01*
X031959Y023763D02*
X039611Y023763D01*
X039611Y023861D02*
X031861Y023861D01*
X031762Y023960D02*
X039611Y023960D01*
X039611Y024058D02*
X031663Y024058D01*
X031565Y024157D02*
X039611Y024157D01*
X039611Y026128D02*
X035241Y026128D01*
X035241Y026226D02*
X039611Y026226D01*
X039611Y026325D02*
X035241Y026325D01*
X035217Y026029D02*
X035690Y026029D01*
X035592Y025931D02*
X029791Y025931D01*
X029693Y026029D02*
X034255Y026029D01*
X034231Y026128D02*
X029594Y026128D01*
X029495Y026226D02*
X034231Y026226D01*
X034231Y026325D02*
X029397Y026325D01*
X029890Y025832D02*
X035533Y025832D01*
X035533Y025734D02*
X029988Y025734D01*
X030087Y025635D02*
X035533Y025635D01*
X035596Y025537D02*
X030185Y025537D01*
X030284Y025438D02*
X035695Y025438D01*
X034786Y026029D02*
X034686Y026029D01*
X034686Y026128D02*
X034786Y026128D01*
X034786Y026226D02*
X034686Y026226D01*
X033469Y027803D02*
X028111Y027803D01*
X028111Y027902D02*
X033370Y027902D01*
X033271Y028000D02*
X028111Y028000D01*
X028111Y028099D02*
X032534Y028099D01*
X032436Y028197D02*
X028111Y028197D01*
X028111Y028296D02*
X032408Y028296D01*
X032408Y028394D02*
X028111Y028394D01*
X028111Y028493D02*
X032408Y028493D01*
X032502Y028591D02*
X028111Y028591D01*
X028111Y028690D02*
X032768Y028690D01*
X032594Y028789D02*
X028111Y028789D01*
X028111Y028887D02*
X032496Y028887D01*
X032408Y028986D02*
X028111Y028986D01*
X028111Y029084D02*
X032408Y029084D01*
X032408Y029183D02*
X028111Y029183D01*
X028111Y029281D02*
X032442Y029281D01*
X032409Y029873D02*
X030238Y029873D01*
X030428Y029971D02*
X032507Y029971D01*
X030611Y030267D02*
X038053Y030267D01*
X038033Y030168D02*
X030572Y030168D01*
X030527Y030070D02*
X037994Y030070D01*
X037896Y029971D02*
X035590Y029971D01*
X035688Y029873D02*
X037797Y029873D01*
X037699Y029774D02*
X035689Y029774D01*
X035689Y029675D02*
X037600Y029675D01*
X037502Y029577D02*
X035666Y029577D01*
X035567Y029478D02*
X037403Y029478D01*
X038151Y030365D02*
X030611Y030365D01*
X030611Y030464D02*
X038801Y030464D01*
X038702Y030562D02*
X030611Y030562D01*
X030611Y030661D02*
X038604Y030661D01*
X038505Y030759D02*
X030611Y030759D01*
X030611Y030858D02*
X038407Y030858D01*
X038308Y030956D02*
X030611Y030956D01*
X030611Y031055D02*
X038210Y031055D01*
X038111Y031154D02*
X030611Y031154D01*
X030611Y031252D02*
X038013Y031252D01*
X037914Y031351D02*
X030611Y031351D01*
X030611Y031449D02*
X037816Y031449D01*
X037717Y031548D02*
X030611Y031548D01*
X030611Y031646D02*
X037618Y031646D01*
X037520Y031745D02*
X030702Y031745D01*
X030800Y031843D02*
X037421Y031843D01*
X037323Y031942D02*
X030899Y031942D01*
X030998Y032040D02*
X037224Y032040D01*
X037126Y032139D02*
X031096Y032139D01*
X031195Y032238D02*
X037027Y032238D01*
X036929Y032336D02*
X031293Y032336D01*
X031392Y032435D02*
X036830Y032435D01*
X036732Y032533D02*
X031490Y032533D01*
X031589Y032632D02*
X036633Y032632D01*
X036534Y032730D02*
X031687Y032730D01*
X031786Y032829D02*
X036436Y032829D01*
X036337Y032927D02*
X031884Y032927D01*
X031983Y033026D02*
X036239Y033026D01*
X036361Y033611D02*
X035717Y033755D01*
X038571Y030365D02*
X038900Y030365D01*
X038998Y030267D02*
X038669Y030267D01*
X038689Y030168D02*
X039097Y030168D01*
X039195Y030070D02*
X038689Y030070D01*
X035548Y028548D02*
X035486Y028611D01*
X033034Y028099D02*
X032938Y028099D01*
X029985Y031111D02*
X029985Y031135D01*
X030111Y031261D01*
X029287Y031252D02*
X029187Y031252D01*
X029187Y031351D02*
X029287Y031351D01*
X029287Y031449D02*
X029187Y031449D01*
X029187Y031548D02*
X029287Y031548D01*
X028831Y031055D02*
X028111Y031055D01*
X028111Y030956D02*
X028831Y030956D01*
X028831Y030858D02*
X028111Y030858D01*
X028111Y030759D02*
X028841Y030759D01*
X027851Y030759D02*
X027410Y030759D01*
X027311Y030661D02*
X027851Y030661D01*
X027851Y030562D02*
X027213Y030562D01*
X027114Y030464D02*
X027851Y030464D01*
X027851Y030858D02*
X027508Y030858D01*
X027607Y030956D02*
X027851Y030956D01*
X027851Y031055D02*
X027706Y031055D01*
X027804Y031154D02*
X027851Y031154D01*
X027305Y030070D02*
X027205Y030070D01*
X027205Y029971D02*
X027305Y029971D01*
X027305Y029873D02*
X027205Y029873D01*
X027205Y029774D02*
X027305Y029774D01*
X027305Y029675D02*
X027205Y029675D01*
X027305Y029577D02*
X027851Y029577D01*
X027305Y029478D02*
X027205Y029478D01*
X027205Y029380D02*
X027305Y029380D01*
X027305Y029281D02*
X027205Y029281D01*
X027205Y029183D02*
X027305Y029183D01*
X026956Y030070D02*
X026876Y030070D01*
X025901Y029873D02*
X023273Y029873D01*
X023174Y029774D02*
X025901Y029774D01*
X025901Y029675D02*
X023076Y029675D01*
X022977Y029577D02*
X025901Y029577D01*
X025901Y029478D02*
X022879Y029478D01*
X022780Y029380D02*
X025901Y029380D01*
X025901Y029281D02*
X022682Y029281D01*
X022583Y029183D02*
X025891Y029183D01*
X025828Y029084D02*
X022485Y029084D01*
X022386Y028986D02*
X025806Y028986D01*
X025801Y028887D02*
X022288Y028887D01*
X022189Y028789D02*
X025801Y028789D01*
X025801Y028690D02*
X022091Y028690D01*
X021992Y028591D02*
X025801Y028591D01*
X025801Y028493D02*
X021893Y028493D01*
X021795Y028394D02*
X025801Y028394D01*
X025801Y028296D02*
X021696Y028296D01*
X021598Y028197D02*
X025801Y028197D01*
X025801Y028099D02*
X021499Y028099D01*
X021401Y028000D02*
X025801Y028000D01*
X025801Y027902D02*
X021302Y027902D01*
X021204Y027803D02*
X025801Y027803D01*
X025801Y027705D02*
X021105Y027705D01*
X021007Y027606D02*
X025801Y027606D01*
X025801Y027507D02*
X020908Y027507D01*
X020809Y027409D02*
X025801Y027409D01*
X025801Y027310D02*
X020711Y027310D01*
X020612Y027212D02*
X025801Y027212D01*
X025801Y027113D02*
X020514Y027113D01*
X020415Y027015D02*
X025801Y027015D01*
X025801Y026916D02*
X020317Y026916D01*
X020218Y026818D02*
X025801Y026818D01*
X025801Y026719D02*
X020120Y026719D01*
X020021Y026621D02*
X025801Y026621D01*
X025801Y026522D02*
X019923Y026522D01*
X019824Y026424D02*
X025801Y026424D01*
X025821Y026325D02*
X019821Y026325D01*
X019821Y026226D02*
X025862Y026226D01*
X025927Y026128D02*
X019821Y026128D01*
X019821Y026029D02*
X026026Y026029D01*
X026124Y025931D02*
X019821Y025931D01*
X019821Y025832D02*
X026223Y025832D01*
X026321Y025734D02*
X019821Y025734D01*
X019821Y025635D02*
X026420Y025635D01*
X026518Y025537D02*
X019821Y025537D01*
X019821Y025438D02*
X026617Y025438D01*
X026715Y025340D02*
X019889Y025340D01*
X019896Y025241D02*
X026814Y025241D01*
X026912Y025142D02*
X019896Y025142D01*
X019896Y025044D02*
X027011Y025044D01*
X027110Y024945D02*
X019896Y024945D01*
X019853Y024847D02*
X027208Y024847D01*
X027307Y024748D02*
X019755Y024748D01*
X019656Y024650D02*
X027405Y024650D01*
X027504Y024551D02*
X011774Y024551D01*
X011703Y024623D02*
X011481Y024715D01*
X011241Y024715D01*
X011019Y024623D01*
X010849Y024453D01*
X010757Y024231D01*
X010757Y023991D01*
X010849Y023769D01*
X011019Y023599D01*
X011241Y023507D01*
X011481Y023507D01*
X011703Y023599D01*
X011873Y023769D01*
X011965Y023991D01*
X011965Y024231D01*
X011873Y024453D01*
X011703Y024623D01*
X011638Y024650D02*
X013201Y024650D01*
X013264Y024624D02*
X013458Y024624D01*
X013637Y024698D01*
X013774Y024835D01*
X013848Y025014D01*
X013848Y025208D01*
X013774Y025387D01*
X013637Y025524D01*
X013458Y025598D01*
X013264Y025598D01*
X013085Y025524D01*
X012948Y025387D01*
X012874Y025208D01*
X012874Y025014D01*
X012948Y024835D01*
X013085Y024698D01*
X013264Y024624D01*
X013520Y024650D02*
X019066Y024650D01*
X018967Y024748D02*
X013687Y024748D01*
X013779Y024847D02*
X018869Y024847D01*
X018826Y024945D02*
X013820Y024945D01*
X013848Y025044D02*
X018826Y025044D01*
X018826Y025142D02*
X013848Y025142D01*
X013834Y025241D02*
X018826Y025241D01*
X018833Y025340D02*
X013794Y025340D01*
X013723Y025438D02*
X018901Y025438D01*
X018901Y025537D02*
X013606Y025537D01*
X013485Y025635D02*
X018901Y025635D01*
X018901Y025734D02*
X013673Y025734D01*
X013637Y025698D02*
X013774Y025835D01*
X013848Y026014D01*
X013848Y026208D01*
X013774Y026387D01*
X013637Y026524D01*
X013458Y026598D01*
X013264Y026598D01*
X013085Y026524D01*
X012948Y026387D01*
X012874Y026208D01*
X012874Y026014D01*
X012948Y025835D01*
X013085Y025698D01*
X013264Y025624D01*
X013458Y025624D01*
X013637Y025698D01*
X013771Y025832D02*
X018901Y025832D01*
X018901Y025931D02*
X013814Y025931D01*
X013848Y026029D02*
X018901Y026029D01*
X018901Y026128D02*
X013848Y026128D01*
X013840Y026226D02*
X018901Y026226D01*
X018901Y026325D02*
X013800Y026325D01*
X013737Y026424D02*
X018901Y026424D01*
X018901Y026522D02*
X013639Y026522D01*
X013083Y026522D02*
X010571Y026522D01*
X010571Y026424D02*
X012985Y026424D01*
X012922Y026325D02*
X010571Y026325D01*
X010571Y026226D02*
X012881Y026226D01*
X012874Y026128D02*
X010571Y026128D01*
X010571Y026029D02*
X012874Y026029D01*
X012908Y025931D02*
X010571Y025931D01*
X010571Y025832D02*
X012951Y025832D01*
X013049Y025734D02*
X010571Y025734D01*
X010571Y025635D02*
X013237Y025635D01*
X013116Y025537D02*
X010571Y025537D01*
X010571Y025438D02*
X012999Y025438D01*
X012928Y025340D02*
X010571Y025340D01*
X010571Y025241D02*
X012888Y025241D01*
X012874Y025142D02*
X010571Y025142D01*
X010571Y025044D02*
X012874Y025044D01*
X012902Y024945D02*
X010571Y024945D01*
X010571Y024847D02*
X012943Y024847D01*
X013035Y024748D02*
X010571Y024748D01*
X010571Y024650D02*
X011084Y024650D01*
X010947Y024551D02*
X010571Y024551D01*
X010571Y024453D02*
X010849Y024453D01*
X010808Y024354D02*
X010571Y024354D01*
X010571Y024256D02*
X010767Y024256D01*
X010757Y024157D02*
X010571Y024157D01*
X010571Y024058D02*
X010757Y024058D01*
X010770Y023960D02*
X010571Y023960D01*
X010571Y023861D02*
X010811Y023861D01*
X010855Y023763D02*
X010571Y023763D01*
X010571Y023664D02*
X010954Y023664D01*
X011100Y023566D02*
X010571Y023566D01*
X010571Y023467D02*
X028588Y023467D01*
X028686Y023369D02*
X010571Y023369D01*
X010571Y023270D02*
X028785Y023270D01*
X028883Y023172D02*
X010571Y023172D01*
X010571Y023073D02*
X028982Y023073D01*
X029080Y022974D02*
X010571Y022974D01*
X010571Y022876D02*
X029179Y022876D01*
X029277Y022777D02*
X010571Y022777D01*
X010571Y022679D02*
X029376Y022679D01*
X029475Y022580D02*
X010571Y022580D01*
X010571Y022482D02*
X029573Y022482D01*
X029672Y022383D02*
X011678Y022383D01*
X011703Y022373D02*
X011481Y022465D01*
X011241Y022465D01*
X011019Y022373D01*
X010849Y022203D01*
X010757Y021981D01*
X010757Y021741D01*
X010849Y021519D01*
X011019Y021349D01*
X011241Y021257D01*
X011481Y021257D01*
X011703Y021349D01*
X011873Y021519D01*
X011965Y021741D01*
X011965Y021981D01*
X011873Y022203D01*
X011703Y022373D01*
X011791Y022285D02*
X029770Y022285D01*
X029869Y022186D02*
X011880Y022186D01*
X011920Y022088D02*
X029967Y022088D01*
X030066Y021989D02*
X011961Y021989D01*
X011965Y021891D02*
X030164Y021891D01*
X030263Y021792D02*
X011965Y021792D01*
X011945Y021693D02*
X030361Y021693D01*
X030460Y021595D02*
X011904Y021595D01*
X011850Y021496D02*
X030559Y021496D01*
X030657Y021398D02*
X011752Y021398D01*
X011582Y021299D02*
X030756Y021299D01*
X030854Y021201D02*
X010571Y021201D01*
X010571Y021299D02*
X011139Y021299D01*
X010970Y021398D02*
X010571Y021398D01*
X010571Y021496D02*
X010872Y021496D01*
X010818Y021595D02*
X010571Y021595D01*
X010571Y021693D02*
X010777Y021693D01*
X010757Y021792D02*
X010571Y021792D01*
X010571Y021891D02*
X010757Y021891D01*
X010761Y021989D02*
X010571Y021989D01*
X010571Y022088D02*
X010801Y022088D01*
X010842Y022186D02*
X010571Y022186D01*
X010571Y022285D02*
X010931Y022285D01*
X011044Y022383D02*
X010571Y022383D01*
X010571Y021102D02*
X030953Y021102D01*
X031051Y021004D02*
X010571Y021004D01*
X010571Y020905D02*
X031150Y020905D01*
X031248Y020807D02*
X010571Y020807D01*
X010571Y020708D02*
X031347Y020708D01*
X031445Y020609D02*
X010571Y020609D01*
X010571Y020511D02*
X031544Y020511D01*
X028489Y023566D02*
X011622Y023566D01*
X011768Y023664D02*
X028391Y023664D01*
X028292Y023763D02*
X011867Y023763D01*
X011911Y023861D02*
X028194Y023861D01*
X028095Y023960D02*
X011952Y023960D01*
X011965Y024058D02*
X027996Y024058D01*
X027898Y024157D02*
X011965Y024157D01*
X011954Y024256D02*
X027799Y024256D01*
X027701Y024354D02*
X011914Y024354D01*
X011873Y024453D02*
X027602Y024453D01*
X027661Y027212D02*
X028142Y027212D01*
X028044Y027310D02*
X027661Y027310D01*
X027661Y027409D02*
X027945Y027409D01*
X027305Y027606D02*
X027205Y027606D01*
X027205Y027705D02*
X027305Y027705D01*
X027305Y027803D02*
X027205Y027803D01*
X027205Y027902D02*
X027305Y027902D01*
X025213Y030858D02*
X011912Y030858D01*
X011873Y030953D02*
X011703Y031123D01*
X011481Y031215D01*
X011241Y031215D01*
X011019Y031123D01*
X010849Y030953D01*
X010757Y030731D01*
X010757Y030491D01*
X010849Y030269D01*
X011019Y030099D01*
X011241Y030007D01*
X011481Y030007D01*
X011703Y030099D01*
X011873Y030269D01*
X011965Y030491D01*
X011965Y030731D01*
X011873Y030953D01*
X011869Y030956D02*
X025115Y030956D01*
X025016Y031055D02*
X011771Y031055D01*
X011628Y031154D02*
X013192Y031154D01*
X013264Y031124D02*
X013458Y031124D01*
X013637Y031198D01*
X013774Y031335D01*
X013848Y031514D01*
X013848Y031708D01*
X013774Y031887D01*
X013637Y032024D01*
X013458Y032098D01*
X013264Y032098D01*
X013085Y032024D01*
X012948Y031887D01*
X012874Y031708D01*
X012874Y031514D01*
X012948Y031335D01*
X013085Y031198D01*
X013264Y031124D01*
X013031Y031252D02*
X010571Y031252D01*
X010571Y031154D02*
X011094Y031154D01*
X010951Y031055D02*
X010571Y031055D01*
X010571Y030956D02*
X010853Y030956D01*
X010810Y030858D02*
X010571Y030858D01*
X010571Y030759D02*
X010769Y030759D01*
X010757Y030661D02*
X010571Y030661D01*
X010571Y030562D02*
X010757Y030562D01*
X010768Y030464D02*
X010571Y030464D01*
X010571Y030365D02*
X010809Y030365D01*
X010851Y030267D02*
X010571Y030267D01*
X010571Y030168D02*
X010950Y030168D01*
X011090Y030070D02*
X010571Y030070D01*
X010571Y029971D02*
X022071Y029971D01*
X022169Y030070D02*
X011632Y030070D01*
X011772Y030168D02*
X022268Y030168D01*
X022366Y030267D02*
X011870Y030267D01*
X011913Y030365D02*
X022465Y030365D01*
X022563Y030464D02*
X011953Y030464D01*
X011965Y030562D02*
X022662Y030562D01*
X022760Y030661D02*
X011965Y030661D01*
X011953Y030759D02*
X022871Y030759D01*
X021972Y029873D02*
X010571Y029873D01*
X010571Y029774D02*
X021873Y029774D01*
X021775Y029675D02*
X010571Y029675D01*
X010571Y029577D02*
X021676Y029577D01*
X021578Y029478D02*
X010571Y029478D01*
X010571Y029380D02*
X021479Y029380D01*
X021381Y029281D02*
X010571Y029281D01*
X010571Y029183D02*
X021282Y029183D01*
X021184Y029084D02*
X010571Y029084D01*
X010571Y028986D02*
X021085Y028986D01*
X020987Y028887D02*
X010571Y028887D01*
X010571Y028789D02*
X020888Y028789D01*
X020789Y028690D02*
X011540Y028690D01*
X011481Y028715D02*
X011703Y028623D01*
X011873Y028453D01*
X011965Y028231D01*
X011965Y027991D01*
X011873Y027769D01*
X011703Y027599D01*
X011481Y027507D01*
X011241Y027507D01*
X011019Y027599D01*
X010849Y027769D01*
X010757Y027991D01*
X010757Y028231D01*
X010849Y028453D01*
X011019Y028623D01*
X011241Y028715D01*
X011481Y028715D01*
X011734Y028591D02*
X020691Y028591D01*
X020592Y028493D02*
X011833Y028493D01*
X011897Y028394D02*
X020494Y028394D01*
X020395Y028296D02*
X011938Y028296D01*
X011965Y028197D02*
X020297Y028197D01*
X020198Y028099D02*
X011965Y028099D01*
X011965Y028000D02*
X020100Y028000D01*
X020001Y027902D02*
X011928Y027902D01*
X011887Y027803D02*
X019903Y027803D01*
X019804Y027705D02*
X011808Y027705D01*
X011710Y027606D02*
X019706Y027606D01*
X019607Y027507D02*
X011482Y027507D01*
X011240Y027507D02*
X010571Y027507D01*
X010571Y027409D02*
X019508Y027409D01*
X019410Y027310D02*
X010571Y027310D01*
X010571Y027212D02*
X019311Y027212D01*
X019213Y027113D02*
X010571Y027113D01*
X010571Y027015D02*
X019114Y027015D01*
X019016Y026916D02*
X010571Y026916D01*
X010571Y026818D02*
X018949Y026818D01*
X018908Y026719D02*
X010571Y026719D01*
X010571Y026621D02*
X018901Y026621D01*
X013780Y031351D02*
X024721Y031351D01*
X024622Y031449D02*
X013821Y031449D01*
X013848Y031548D02*
X024566Y031548D01*
X024526Y031646D02*
X013848Y031646D01*
X013833Y031745D02*
X024526Y031745D01*
X024526Y031843D02*
X013792Y031843D01*
X013719Y031942D02*
X024526Y031942D01*
X024526Y032040D02*
X013597Y032040D01*
X013495Y032139D02*
X024526Y032139D01*
X024526Y032238D02*
X013676Y032238D01*
X013637Y032198D02*
X013774Y032335D01*
X013848Y032514D01*
X013848Y032708D01*
X013774Y032887D01*
X013637Y033024D01*
X013458Y033098D01*
X013264Y033098D01*
X013085Y033024D01*
X012948Y032887D01*
X012874Y032708D01*
X012874Y032514D01*
X012948Y032335D01*
X013085Y032198D01*
X013264Y032124D01*
X013458Y032124D01*
X013637Y032198D01*
X013774Y032336D02*
X024526Y032336D01*
X024526Y032435D02*
X013815Y032435D01*
X013848Y032533D02*
X024526Y032533D01*
X024526Y032632D02*
X013848Y032632D01*
X013839Y032730D02*
X024526Y032730D01*
X024526Y032829D02*
X013798Y032829D01*
X013733Y032927D02*
X024526Y032927D01*
X024526Y033026D02*
X013632Y033026D01*
X013090Y033026D02*
X010571Y033026D01*
X010571Y033124D02*
X024526Y033124D01*
X024526Y033223D02*
X010571Y033223D01*
X010571Y033322D02*
X024526Y033322D01*
X024526Y033420D02*
X010571Y033420D01*
X010571Y033519D02*
X024526Y033519D01*
X024526Y033617D02*
X010571Y033617D01*
X010571Y033716D02*
X024526Y033716D01*
X024526Y033814D02*
X010571Y033814D01*
X010571Y033913D02*
X024526Y033913D01*
X024526Y034011D02*
X011491Y034011D01*
X011481Y034007D02*
X011703Y034099D01*
X011873Y034269D01*
X011965Y034491D01*
X011965Y034731D01*
X011873Y034953D01*
X011703Y035123D01*
X011481Y035215D01*
X011241Y035215D01*
X011019Y035123D01*
X010849Y034953D01*
X010757Y034731D01*
X010757Y034491D01*
X010849Y034269D01*
X011019Y034099D01*
X011241Y034007D01*
X011481Y034007D01*
X011231Y034011D02*
X010571Y034011D01*
X010571Y034110D02*
X011008Y034110D01*
X010910Y034208D02*
X010571Y034208D01*
X010571Y034307D02*
X010833Y034307D01*
X010793Y034406D02*
X010571Y034406D01*
X010571Y034504D02*
X010757Y034504D01*
X010757Y034603D02*
X010571Y034603D01*
X010571Y034701D02*
X010757Y034701D01*
X010786Y034800D02*
X010571Y034800D01*
X010571Y034898D02*
X010827Y034898D01*
X010893Y034997D02*
X010571Y034997D01*
X010571Y035095D02*
X010992Y035095D01*
X011191Y035194D02*
X010571Y035194D01*
X010571Y035292D02*
X024526Y035292D01*
X024526Y035194D02*
X011531Y035194D01*
X011730Y035095D02*
X024526Y035095D01*
X024526Y034997D02*
X011829Y034997D01*
X011895Y034898D02*
X024526Y034898D01*
X024526Y034800D02*
X011936Y034800D01*
X011965Y034701D02*
X024526Y034701D01*
X024526Y034603D02*
X011965Y034603D01*
X011965Y034504D02*
X024526Y034504D01*
X024526Y034406D02*
X011929Y034406D01*
X011888Y034307D02*
X024526Y034307D01*
X024526Y034208D02*
X011812Y034208D01*
X011714Y034110D02*
X024526Y034110D01*
X025446Y034110D02*
X028276Y034110D01*
X028276Y034208D02*
X025446Y034208D01*
X025446Y034307D02*
X028276Y034307D01*
X028276Y034406D02*
X025446Y034406D01*
X025446Y034504D02*
X028276Y034504D01*
X028276Y034603D02*
X027982Y034603D01*
X028080Y034701D02*
X028276Y034701D01*
X028276Y034800D02*
X028179Y034800D01*
X028263Y035588D02*
X028276Y035588D01*
X028276Y035687D02*
X028164Y035687D01*
X028066Y035785D02*
X028276Y035785D01*
X028276Y035884D02*
X027967Y035884D01*
X028276Y035982D02*
X025446Y035982D01*
X025446Y035884D02*
X027255Y035884D01*
X027156Y035785D02*
X025446Y035785D01*
X025446Y035687D02*
X027058Y035687D01*
X026959Y035588D02*
X025446Y035588D01*
X025446Y035489D02*
X026901Y035489D01*
X026901Y035391D02*
X025446Y035391D01*
X025446Y035292D02*
X026901Y035292D01*
X026901Y035194D02*
X025446Y035194D01*
X025446Y035095D02*
X026901Y035095D01*
X026901Y034997D02*
X025446Y034997D01*
X025446Y034898D02*
X026945Y034898D01*
X027043Y034800D02*
X025446Y034800D01*
X025446Y034701D02*
X027142Y034701D01*
X027240Y034603D02*
X025446Y034603D01*
X025446Y034011D02*
X028276Y034011D01*
X028276Y033913D02*
X025446Y033913D01*
X025446Y033814D02*
X028276Y033814D01*
X028276Y033716D02*
X025446Y033716D01*
X024526Y035391D02*
X010571Y035391D01*
X010571Y035489D02*
X024526Y035489D01*
X024526Y035588D02*
X010571Y035588D01*
X010571Y035687D02*
X024526Y035687D01*
X024526Y035785D02*
X010571Y035785D01*
X010571Y035884D02*
X024526Y035884D01*
X024526Y035982D02*
X010571Y035982D01*
X010571Y036081D02*
X024526Y036081D01*
X024526Y036179D02*
X010571Y036179D01*
X010571Y036278D02*
X011191Y036278D01*
X011241Y036257D02*
X011481Y036257D01*
X011703Y036349D01*
X011873Y036519D01*
X011965Y036741D01*
X011965Y036981D01*
X011873Y037203D01*
X011703Y037373D01*
X011481Y037465D01*
X011241Y037465D01*
X011019Y037373D01*
X010849Y037203D01*
X010757Y036981D01*
X010757Y036741D01*
X010849Y036519D01*
X011019Y036349D01*
X011241Y036257D01*
X010992Y036376D02*
X010571Y036376D01*
X010571Y036475D02*
X010893Y036475D01*
X010827Y036573D02*
X010571Y036573D01*
X010571Y036672D02*
X010786Y036672D01*
X010757Y036771D02*
X010571Y036771D01*
X010571Y036869D02*
X010757Y036869D01*
X010757Y036968D02*
X010571Y036968D01*
X010571Y037066D02*
X010793Y037066D01*
X010833Y037165D02*
X010571Y037165D01*
X010571Y037263D02*
X010910Y037263D01*
X011008Y037362D02*
X010571Y037362D01*
X010571Y037460D02*
X011231Y037460D01*
X011491Y037460D02*
X013073Y037460D01*
X013085Y037448D02*
X013264Y037374D01*
X013458Y037374D01*
X013637Y037448D01*
X013774Y037585D01*
X013848Y037764D01*
X013848Y037958D01*
X013774Y038137D01*
X013637Y038274D01*
X013458Y038348D01*
X013264Y038348D01*
X013085Y038274D01*
X012948Y038137D01*
X012874Y037958D01*
X012874Y037764D01*
X012948Y037585D01*
X013085Y037448D01*
X012974Y037559D02*
X010571Y037559D01*
X010571Y037657D02*
X012918Y037657D01*
X012877Y037756D02*
X010571Y037756D01*
X010571Y037855D02*
X012874Y037855D01*
X012874Y037953D02*
X010571Y037953D01*
X010571Y038052D02*
X012913Y038052D01*
X012961Y038150D02*
X010571Y038150D01*
X010571Y038249D02*
X013060Y038249D01*
X013090Y038446D02*
X010571Y038446D01*
X010571Y038544D02*
X012989Y038544D01*
X012948Y038585D02*
X013085Y038448D01*
X013264Y038374D01*
X013458Y038374D01*
X013637Y038448D01*
X013774Y038585D01*
X013848Y038764D01*
X013848Y038958D01*
X013774Y039137D01*
X013637Y039274D01*
X013458Y039348D01*
X013264Y039348D01*
X013085Y039274D01*
X012948Y039137D01*
X012874Y038958D01*
X012874Y038764D01*
X012948Y038585D01*
X012924Y038643D02*
X010571Y038643D01*
X010571Y038741D02*
X012883Y038741D01*
X012874Y038840D02*
X010571Y038840D01*
X010571Y038939D02*
X012874Y038939D01*
X012907Y039037D02*
X010571Y039037D01*
X010571Y039136D02*
X012947Y039136D01*
X013045Y039234D02*
X010571Y039234D01*
X010571Y039333D02*
X013227Y039333D01*
X013495Y039333D02*
X028276Y039333D01*
X028276Y039431D02*
X010571Y039431D01*
X010571Y039530D02*
X028276Y039530D01*
X028276Y039628D02*
X020192Y039628D01*
X020200Y039632D02*
X020279Y039711D01*
X020322Y039813D01*
X020322Y039847D01*
X020364Y039889D01*
X020434Y039819D01*
X020537Y039776D01*
X020648Y039776D01*
X020929Y039776D01*
X021032Y039819D01*
X021110Y039897D01*
X021153Y040000D01*
X021153Y040112D01*
X021153Y040374D01*
X021153Y040485D01*
X021153Y040672D01*
X021110Y040775D01*
X021032Y040854D01*
X020929Y040896D01*
X020817Y040896D01*
X020714Y040854D01*
X020636Y040775D01*
X020609Y040710D01*
X020537Y040710D01*
X020434Y040667D01*
X020411Y040643D01*
X020387Y040667D01*
X020284Y040710D01*
X020173Y040710D01*
X020070Y040667D01*
X020042Y040639D01*
X020013Y040667D01*
X019911Y040710D01*
X019799Y040710D01*
X019696Y040667D01*
X019644Y040614D01*
X019640Y040616D01*
X019155Y040616D01*
X019084Y040587D01*
X019083Y040588D01*
X019005Y040667D01*
X018902Y040710D01*
X018510Y040710D01*
X018407Y040667D01*
X018384Y040643D01*
X018360Y040667D01*
X018257Y040710D01*
X018070Y040710D01*
X017959Y040710D01*
X017856Y040667D01*
X017763Y040574D01*
X017684Y040495D01*
X017641Y040392D01*
X017641Y040298D01*
X017641Y040187D01*
X017641Y040112D01*
X017641Y040000D01*
X017684Y039897D01*
X017763Y039819D01*
X017866Y039776D01*
X018146Y039776D01*
X018257Y039776D01*
X018360Y039819D01*
X018430Y039889D01*
X018501Y039819D01*
X018603Y039776D01*
X018715Y039776D01*
X018995Y039776D01*
X019098Y039819D01*
X019177Y039897D01*
X019219Y040000D01*
X019219Y040056D01*
X019575Y040056D01*
X019575Y040018D01*
X019575Y039907D01*
X019592Y039865D01*
X019617Y039804D01*
X019790Y039632D01*
X019892Y039589D01*
X019893Y039589D01*
X020097Y039589D01*
X020200Y039632D01*
X020286Y039727D02*
X028276Y039727D01*
X028276Y039825D02*
X023645Y039825D01*
X023743Y039924D02*
X028276Y039924D01*
X028276Y040022D02*
X023842Y040022D01*
X023919Y040121D02*
X028276Y040121D01*
X028276Y040220D02*
X023946Y040220D01*
X023946Y040318D02*
X028276Y040318D01*
X028313Y040417D02*
X023946Y040417D01*
X023934Y040515D02*
X028365Y040515D01*
X028463Y040614D02*
X023878Y040614D01*
X023779Y040712D02*
X028802Y040712D01*
X028851Y040811D02*
X023681Y040811D01*
X023765Y041106D02*
X023253Y041106D01*
X023313Y041205D02*
X023706Y041205D01*
X023694Y041304D02*
X023325Y041304D01*
X023325Y041402D02*
X023720Y041402D01*
X023801Y041501D02*
X023325Y041501D01*
X023325Y041599D02*
X023894Y041599D01*
X023894Y041698D02*
X023325Y041698D01*
X023325Y041796D02*
X023894Y041796D01*
X024154Y041886D02*
X024154Y041286D01*
X024354Y041286D02*
X023954Y041286D01*
X024354Y041686D02*
X024154Y041886D01*
X024798Y041886D02*
X024798Y041286D01*
X024998Y041286D02*
X024598Y041286D01*
X024998Y041686D02*
X024798Y041886D01*
X025243Y041786D02*
X025243Y041386D01*
X025343Y041286D01*
X025543Y041286D01*
X025643Y041386D01*
X025243Y041786D01*
X025343Y041886D01*
X025543Y041886D01*
X025643Y041786D01*
X025643Y041386D01*
X025887Y041286D02*
X026288Y041286D01*
X025887Y041686D01*
X025887Y041786D01*
X025987Y041886D01*
X026187Y041886D01*
X026288Y041786D01*
X026468Y041599D02*
X026902Y041599D01*
X026902Y041501D02*
X026440Y041501D01*
X026521Y041402D02*
X026915Y041402D01*
X026976Y041304D02*
X026547Y041304D01*
X026535Y041205D02*
X027075Y041205D01*
X027174Y041106D02*
X026476Y041106D01*
X026532Y041698D02*
X026902Y041698D01*
X026926Y041796D02*
X026547Y041796D01*
X027162Y041686D02*
X027362Y041886D01*
X027162Y041686D02*
X027162Y041486D01*
X027362Y041286D01*
X027606Y041286D02*
X027906Y041286D01*
X028006Y041386D01*
X028006Y041586D01*
X027906Y041686D01*
X027606Y041686D01*
X028236Y041886D02*
X028436Y041686D01*
X028436Y041486D01*
X028236Y041286D01*
X028424Y041106D02*
X028885Y041106D01*
X028851Y041008D02*
X022469Y041008D01*
X022508Y041106D02*
X022576Y041106D01*
X022411Y040909D02*
X028851Y040909D01*
X028984Y041205D02*
X028523Y041205D01*
X028276Y039234D02*
X013677Y039234D01*
X013774Y039136D02*
X028276Y039136D01*
X028276Y039037D02*
X013815Y039037D01*
X013848Y038939D02*
X028276Y038939D01*
X028276Y038840D02*
X013848Y038840D01*
X013839Y038741D02*
X028276Y038741D01*
X028276Y038643D02*
X013798Y038643D01*
X013733Y038544D02*
X028276Y038544D01*
X028276Y038446D02*
X013632Y038446D01*
X013460Y038347D02*
X028276Y038347D01*
X028276Y038249D02*
X013662Y038249D01*
X013761Y038150D02*
X024686Y038150D01*
X024587Y038052D02*
X013809Y038052D01*
X013848Y037953D02*
X024489Y037953D01*
X024481Y037855D02*
X013848Y037855D01*
X013845Y037756D02*
X024481Y037756D01*
X024481Y037657D02*
X013804Y037657D01*
X013748Y037559D02*
X024481Y037559D01*
X024526Y037460D02*
X013649Y037460D01*
X013262Y038347D02*
X010571Y038347D01*
X010571Y039628D02*
X019798Y039628D01*
X019695Y039727D02*
X010571Y039727D01*
X010571Y039825D02*
X017756Y039825D01*
X017673Y039924D02*
X010571Y039924D01*
X010571Y040022D02*
X017641Y040022D01*
X017641Y040121D02*
X010571Y040121D01*
X010571Y040220D02*
X017641Y040220D01*
X017641Y040318D02*
X011628Y040318D01*
X011703Y040349D02*
X011873Y040519D01*
X011965Y040741D01*
X011965Y040981D01*
X011873Y041203D01*
X011703Y041373D01*
X011481Y041465D01*
X011241Y041465D01*
X011019Y041373D01*
X010849Y041203D01*
X010757Y040981D01*
X010757Y040741D01*
X010849Y040519D01*
X011019Y040349D01*
X011241Y040257D01*
X011481Y040257D01*
X011703Y040349D01*
X011770Y040417D02*
X017652Y040417D01*
X017704Y040515D02*
X011869Y040515D01*
X011912Y040614D02*
X017803Y040614D01*
X017897Y041106D02*
X018065Y041106D01*
X018253Y041286D02*
X018153Y041386D01*
X018253Y041486D01*
X018453Y041486D01*
X018553Y041586D01*
X018453Y041686D01*
X018153Y041686D01*
X017909Y041686D02*
X017709Y041686D01*
X017809Y041786D02*
X017809Y041386D01*
X017709Y041286D01*
X017479Y041286D02*
X017279Y041286D01*
X017379Y041286D02*
X017379Y041686D01*
X017479Y041686D01*
X017379Y041886D02*
X017379Y041987D01*
X016949Y041686D02*
X016749Y041686D01*
X016649Y041586D01*
X016649Y041286D01*
X016949Y041286D01*
X017049Y041386D01*
X016949Y041486D01*
X016649Y041486D01*
X016405Y041286D02*
X016405Y041686D01*
X016105Y041686D01*
X016004Y041586D01*
X016004Y041286D01*
X015816Y041106D02*
X015204Y041106D01*
X015236Y041139D02*
X015236Y041139D01*
X015263Y041166D02*
X015263Y041166D01*
X015302Y041205D02*
X015757Y041205D01*
X015744Y041304D02*
X015363Y041304D01*
X015376Y041402D02*
X015744Y041402D01*
X015744Y041501D02*
X015376Y041501D01*
X015376Y041599D02*
X015744Y041599D01*
X015769Y041698D02*
X015376Y041698D01*
X015376Y041796D02*
X015847Y041796D01*
X015116Y041786D02*
X015116Y041386D01*
X015016Y041286D01*
X014815Y041286D01*
X014715Y041386D01*
X014715Y041586D01*
X014916Y041586D01*
X015116Y041786D02*
X015016Y041886D01*
X014815Y041886D01*
X014715Y041786D01*
X014471Y041586D02*
X014471Y041386D01*
X014371Y041286D01*
X014171Y041286D01*
X014071Y041386D01*
X014071Y041586D01*
X014171Y041686D01*
X014371Y041686D01*
X014471Y041586D01*
X014371Y041886D02*
X014371Y041987D01*
X014171Y041987D02*
X014171Y041886D01*
X013827Y041686D02*
X013626Y041686D01*
X013727Y041786D02*
X013727Y041386D01*
X013626Y041286D01*
X013438Y041106D02*
X013385Y041106D01*
X013197Y041286D02*
X013297Y041386D01*
X013297Y041786D01*
X013397Y041686D02*
X013197Y041686D01*
X012967Y041586D02*
X012867Y041686D01*
X012667Y041686D01*
X012567Y041586D01*
X012567Y041486D01*
X012967Y041486D01*
X012967Y041386D02*
X012967Y041586D01*
X012967Y041386D02*
X012867Y041286D01*
X012667Y041286D01*
X012479Y041106D02*
X011913Y041106D01*
X011954Y041008D02*
X021830Y041008D01*
X021771Y041106D02*
X021219Y041106D01*
X021318Y041205D02*
X021760Y041205D01*
X021760Y041304D02*
X021379Y041304D01*
X021391Y041402D02*
X021760Y041402D01*
X021760Y041501D02*
X021365Y041501D01*
X021377Y041599D02*
X021760Y041599D01*
X021760Y041698D02*
X021391Y041698D01*
X021391Y041796D02*
X021784Y041796D01*
X022020Y041686D02*
X022020Y041186D01*
X022120Y041086D01*
X022220Y041086D01*
X022320Y041286D02*
X022020Y041286D01*
X022320Y041286D02*
X022420Y041386D01*
X022420Y041686D01*
X022665Y041586D02*
X022765Y041686D01*
X023065Y041686D01*
X023065Y041886D02*
X023065Y041286D01*
X022765Y041286D01*
X022665Y041386D01*
X022665Y041586D01*
X022149Y040811D02*
X023278Y040811D01*
X023216Y040712D02*
X022211Y040712D01*
X021929Y040909D02*
X011965Y040909D01*
X011965Y040811D02*
X020671Y040811D01*
X020610Y040712D02*
X011953Y040712D01*
X011871Y041205D02*
X012419Y041205D01*
X012382Y041304D02*
X011772Y041304D01*
X011632Y041402D02*
X012320Y041402D01*
X012307Y041501D02*
X010571Y041501D01*
X010571Y041599D02*
X012307Y041599D01*
X012332Y041698D02*
X010571Y041698D01*
X010571Y041796D02*
X012409Y041796D01*
X011090Y041402D02*
X010571Y041402D01*
X010571Y041304D02*
X010950Y041304D01*
X010851Y041205D02*
X010571Y041205D01*
X010571Y041106D02*
X010809Y041106D01*
X010768Y041008D02*
X010571Y041008D01*
X010571Y040909D02*
X010757Y040909D01*
X010757Y040811D02*
X010571Y040811D01*
X010571Y040712D02*
X010769Y040712D01*
X010810Y040614D02*
X010571Y040614D01*
X010571Y040515D02*
X010853Y040515D01*
X010951Y040417D02*
X010571Y040417D01*
X010571Y040318D02*
X011094Y040318D01*
X013815Y041106D02*
X013983Y041106D01*
X014559Y041106D02*
X014627Y041106D01*
X016193Y041106D02*
X016217Y041106D01*
X018253Y041286D02*
X018553Y041286D01*
X018797Y041286D02*
X019098Y041286D01*
X019198Y041386D01*
X019098Y041486D01*
X018797Y041486D01*
X018797Y041586D02*
X018797Y041286D01*
X018797Y041586D02*
X018897Y041686D01*
X019098Y041686D01*
X019442Y041586D02*
X019542Y041686D01*
X019842Y041686D01*
X019842Y041886D02*
X019842Y041286D01*
X019542Y041286D01*
X019442Y041386D01*
X019442Y041586D01*
X019354Y041106D02*
X019286Y041106D01*
X019149Y040614D02*
X019058Y040614D01*
X019219Y040022D02*
X019575Y040022D01*
X019575Y039924D02*
X019188Y039924D01*
X019105Y039825D02*
X019609Y039825D01*
X019575Y039907D02*
X019575Y039907D01*
X020322Y039825D02*
X020427Y039825D01*
X021038Y039825D02*
X021782Y039825D01*
X021683Y039924D02*
X021121Y039924D01*
X021153Y040022D02*
X021585Y040022D01*
X021508Y040121D02*
X021153Y040121D01*
X021153Y040220D02*
X021480Y040220D01*
X021480Y040318D02*
X021153Y040318D01*
X021153Y040417D02*
X021480Y040417D01*
X021493Y040515D02*
X021153Y040515D01*
X021153Y040614D02*
X021549Y040614D01*
X021647Y040712D02*
X021136Y040712D01*
X021074Y040811D02*
X021746Y040811D01*
X021131Y041386D02*
X021031Y041286D01*
X020831Y041286D01*
X020731Y041386D01*
X020731Y041486D01*
X020831Y041586D01*
X021031Y041586D01*
X021131Y041686D01*
X021131Y041786D01*
X021031Y041886D01*
X020831Y041886D01*
X020731Y041786D01*
X020487Y041586D02*
X020387Y041686D01*
X020187Y041686D01*
X020086Y041586D01*
X020086Y041486D01*
X020487Y041486D01*
X020487Y041386D02*
X020487Y041586D01*
X020487Y041386D02*
X020387Y041286D01*
X020187Y041286D01*
X020575Y041106D02*
X020643Y041106D01*
X022664Y039825D02*
X022697Y039825D01*
X023308Y039825D02*
X023314Y039825D01*
X025286Y038150D02*
X028276Y038150D01*
X028276Y038052D02*
X025385Y038052D01*
X025483Y037953D02*
X028276Y037953D01*
X028276Y037855D02*
X025491Y037855D01*
X025491Y037756D02*
X028276Y037756D01*
X028276Y037657D02*
X025491Y037657D01*
X025491Y037559D02*
X028276Y037559D01*
X028276Y037460D02*
X025446Y037460D01*
X025446Y037362D02*
X028276Y037362D01*
X028276Y037263D02*
X025446Y037263D01*
X025446Y037165D02*
X028276Y037165D01*
X028276Y037066D02*
X025446Y037066D01*
X025446Y036968D02*
X028276Y036968D01*
X028276Y036869D02*
X025446Y036869D01*
X025446Y036771D02*
X028276Y036771D01*
X028276Y036672D02*
X025446Y036672D01*
X025446Y036573D02*
X028276Y036573D01*
X028276Y036475D02*
X025446Y036475D01*
X025446Y036376D02*
X028276Y036376D01*
X028276Y036278D02*
X025446Y036278D01*
X025446Y036179D02*
X028276Y036179D01*
X028276Y036081D02*
X025446Y036081D01*
X024526Y036278D02*
X011531Y036278D01*
X011730Y036376D02*
X024526Y036376D01*
X024526Y036475D02*
X011829Y036475D01*
X011895Y036573D02*
X024526Y036573D01*
X024526Y036672D02*
X011936Y036672D01*
X011965Y036771D02*
X024526Y036771D01*
X024526Y036869D02*
X011965Y036869D01*
X011965Y036968D02*
X024526Y036968D01*
X024526Y037066D02*
X011929Y037066D01*
X011889Y037165D02*
X024526Y037165D01*
X024526Y037263D02*
X011812Y037263D01*
X011714Y037362D02*
X024526Y037362D01*
X018494Y039825D02*
X018367Y039825D01*
X012988Y032927D02*
X010571Y032927D01*
X010571Y032829D02*
X012924Y032829D01*
X012883Y032730D02*
X010571Y032730D01*
X010571Y032632D02*
X012874Y032632D01*
X012874Y032533D02*
X010571Y032533D01*
X010571Y032435D02*
X012907Y032435D01*
X012947Y032336D02*
X010571Y032336D01*
X010571Y032238D02*
X013045Y032238D01*
X013227Y032139D02*
X010571Y032139D01*
X010571Y032040D02*
X013125Y032040D01*
X013003Y031942D02*
X010571Y031942D01*
X010571Y031843D02*
X012930Y031843D01*
X012889Y031745D02*
X010571Y031745D01*
X010571Y031646D02*
X012874Y031646D01*
X012874Y031548D02*
X010571Y031548D01*
X010571Y031449D02*
X012901Y031449D01*
X012941Y031351D02*
X010571Y031351D01*
X010571Y028690D02*
X011181Y028690D01*
X010988Y028591D02*
X010571Y028591D01*
X010571Y028493D02*
X010889Y028493D01*
X010825Y028394D02*
X010571Y028394D01*
X010571Y028296D02*
X010784Y028296D01*
X010757Y028197D02*
X010571Y028197D01*
X010571Y028099D02*
X010757Y028099D01*
X010757Y028000D02*
X010571Y028000D01*
X010571Y027902D02*
X010794Y027902D01*
X010835Y027803D02*
X010571Y027803D01*
X010571Y027705D02*
X010914Y027705D01*
X011012Y027606D02*
X010571Y027606D01*
X013530Y031154D02*
X024918Y031154D01*
X024819Y031252D02*
X013691Y031252D01*
X018300Y013810D02*
X018922Y013810D01*
X018835Y013774D02*
X018698Y013637D01*
X018624Y013458D01*
X018624Y013264D01*
X018698Y013085D01*
X018835Y012948D01*
X019014Y012874D01*
X019208Y012874D01*
X019387Y012948D01*
X019524Y013085D01*
X019598Y013264D01*
X019598Y013458D01*
X019524Y013637D01*
X019387Y013774D01*
X019208Y013848D01*
X019014Y013848D01*
X018835Y013774D01*
X018772Y013711D02*
X018449Y013711D01*
X018534Y013613D02*
X018688Y013613D01*
X018647Y013514D02*
X018575Y013514D01*
X018598Y013416D02*
X018624Y013416D01*
X018624Y013317D02*
X018598Y013317D01*
X018579Y013219D02*
X018643Y013219D01*
X018683Y013120D02*
X018538Y013120D01*
X018461Y013022D02*
X018761Y013022D01*
X018895Y012923D02*
X018327Y012923D01*
X019327Y012923D02*
X024395Y012923D01*
X024335Y012948D02*
X024514Y012874D01*
X024708Y012874D01*
X024887Y012948D01*
X025024Y013085D01*
X025098Y013264D01*
X025098Y013458D01*
X025024Y013637D01*
X024887Y013774D01*
X024708Y013848D01*
X024514Y013848D01*
X024335Y013774D01*
X024198Y013637D01*
X024124Y013458D01*
X024124Y013264D01*
X024198Y013085D01*
X024335Y012948D01*
X024261Y013022D02*
X019461Y013022D01*
X019538Y013120D02*
X024183Y013120D01*
X024143Y013219D02*
X019579Y013219D01*
X019598Y013317D02*
X024124Y013317D01*
X024124Y013416D02*
X019598Y013416D01*
X019575Y013514D02*
X024147Y013514D01*
X024188Y013613D02*
X019534Y013613D01*
X019449Y013711D02*
X024272Y013711D01*
X024422Y013810D02*
X019300Y013810D01*
X019991Y011965D02*
X019769Y011873D01*
X019599Y011703D01*
X019507Y011481D01*
X019507Y011241D01*
X019599Y011019D01*
X019769Y010849D01*
X019991Y010757D01*
X020231Y010757D01*
X020453Y010849D01*
X020623Y011019D01*
X020715Y011241D01*
X020715Y011481D01*
X020623Y011703D01*
X020453Y011873D01*
X020231Y011965D01*
X019991Y011965D01*
X019926Y011938D02*
X016296Y011938D01*
X016486Y011839D02*
X019735Y011839D01*
X019637Y011741D02*
X016585Y011741D01*
X016648Y011642D02*
X019574Y011642D01*
X019533Y011543D02*
X016689Y011543D01*
X016715Y011445D02*
X019507Y011445D01*
X019507Y011346D02*
X016715Y011346D01*
X016715Y011248D02*
X019507Y011248D01*
X019545Y011149D02*
X016677Y011149D01*
X016636Y011051D02*
X019586Y011051D01*
X019666Y010952D02*
X016556Y010952D01*
X016457Y010854D02*
X019764Y010854D01*
X020457Y010854D02*
X022264Y010854D01*
X022269Y010849D02*
X022491Y010757D01*
X022731Y010757D01*
X022953Y010849D01*
X023123Y011019D01*
X023215Y011241D01*
X023215Y011481D01*
X023123Y011703D01*
X022953Y011873D01*
X022731Y011965D01*
X022491Y011965D01*
X022269Y011873D01*
X022099Y011703D01*
X022007Y011481D01*
X022007Y011241D01*
X022099Y011019D01*
X022269Y010849D01*
X022166Y010952D02*
X020556Y010952D01*
X020636Y011051D02*
X022086Y011051D01*
X022045Y011149D02*
X020677Y011149D01*
X020715Y011248D02*
X022007Y011248D01*
X022007Y011346D02*
X020715Y011346D01*
X020715Y011445D02*
X022007Y011445D01*
X022033Y011543D02*
X020689Y011543D01*
X020648Y011642D02*
X022074Y011642D01*
X022137Y011741D02*
X020585Y011741D01*
X020486Y011839D02*
X022235Y011839D01*
X022426Y011938D02*
X020296Y011938D01*
X022796Y011938D02*
X026426Y011938D01*
X026235Y011839D02*
X022986Y011839D01*
X023085Y011741D02*
X026137Y011741D01*
X026074Y011642D02*
X023148Y011642D01*
X023189Y011543D02*
X026033Y011543D01*
X026007Y011445D02*
X023215Y011445D01*
X023215Y011346D02*
X026007Y011346D01*
X026007Y011248D02*
X023215Y011248D01*
X023177Y011149D02*
X026045Y011149D01*
X026086Y011051D02*
X023136Y011051D01*
X023056Y010952D02*
X026166Y010952D01*
X026264Y010854D02*
X022957Y010854D01*
X024827Y012923D02*
X025395Y012923D01*
X025261Y013022D02*
X024961Y013022D01*
X025038Y013120D02*
X025183Y013120D01*
X025143Y013219D02*
X025079Y013219D01*
X025098Y013317D02*
X025124Y013317D01*
X025124Y013416D02*
X025098Y013416D01*
X025075Y013514D02*
X025147Y013514D01*
X025188Y013613D02*
X025034Y013613D01*
X024949Y013711D02*
X025272Y013711D01*
X025422Y013810D02*
X024800Y013810D01*
X036985Y018737D02*
X049581Y018737D01*
X049581Y018639D02*
X037083Y018639D01*
X037182Y018540D02*
X049581Y018540D01*
X047786Y011839D02*
X044361Y011839D01*
X039611Y026621D02*
X038820Y026621D01*
X038918Y026719D02*
X039611Y026719D01*
D12*
X023666Y040243D02*
X023666Y040430D01*
X023479Y040616D01*
X023236Y040336D02*
X023143Y040430D01*
X022863Y040430D01*
X022592Y040336D02*
X022592Y040149D01*
X022498Y040056D01*
X022218Y040056D01*
X021947Y040056D02*
X021760Y040243D01*
X021760Y040430D01*
X021947Y040616D01*
X022218Y040430D02*
X022498Y040430D01*
X022592Y040336D01*
X022863Y040056D02*
X023143Y040056D01*
X023236Y040149D01*
X023236Y040336D01*
X023479Y040056D02*
X023666Y040243D01*
X020873Y040056D02*
X020593Y040056D01*
X020499Y040149D01*
X020499Y040336D01*
X020593Y040430D01*
X020873Y040430D01*
X020873Y040616D02*
X020873Y040056D01*
X020228Y040149D02*
X020228Y040430D01*
X020228Y040149D02*
X020135Y040056D01*
X019855Y040056D01*
X019855Y039963D02*
X019948Y039869D01*
X020042Y039869D01*
X019855Y039963D02*
X019855Y040430D01*
X019584Y040336D02*
X019210Y040336D01*
X018939Y040336D02*
X018846Y040430D01*
X018566Y040430D01*
X018659Y040243D02*
X018846Y040243D01*
X018939Y040336D01*
X018939Y040056D02*
X018659Y040056D01*
X018566Y040149D01*
X018659Y040243D01*
X018295Y040149D02*
X018201Y040243D01*
X017921Y040243D01*
X017921Y040336D02*
X017921Y040056D01*
X018201Y040056D01*
X018295Y040149D01*
X018201Y040430D02*
X018015Y040430D01*
X017921Y040336D01*
D13*
X026467Y029611D03*
X027255Y029611D03*
X027255Y027486D03*
X026467Y027486D03*
X035717Y038361D03*
X036505Y038361D03*
D14*
X029985Y031111D03*
X029237Y031111D03*
D15*
X013361Y031611D03*
X013361Y032611D03*
X013361Y037861D03*
X013361Y038861D03*
X013361Y026111D03*
X013361Y025111D03*
X013361Y019861D03*
X013361Y018861D03*
X013361Y013361D03*
X013361Y012361D03*
X018111Y013361D03*
X019111Y013361D03*
X024611Y013361D03*
X025611Y013361D03*
X030861Y013361D03*
X031861Y013361D03*
D16*
X044236Y011861D03*
X048361Y011861D03*
D17*
X027611Y035236D03*
D18*
X029361Y039861D03*
X030361Y039861D03*
X031361Y039861D03*
X032361Y039861D03*
X033361Y039861D03*
X034361Y039861D03*
X035361Y039861D03*
X036361Y039861D03*
X037361Y039861D03*
X038361Y039861D03*
X039361Y039861D03*
X040361Y039861D03*
X040361Y040861D03*
X039361Y040861D03*
X038361Y040861D03*
X037361Y040861D03*
X036361Y040861D03*
X035361Y040861D03*
X034361Y040861D03*
X033361Y040861D03*
X032361Y040861D03*
X031361Y040861D03*
X030361Y040861D03*
X029361Y040861D03*
X047361Y038861D03*
X048361Y038861D03*
X048361Y037861D03*
X048361Y036861D03*
X048361Y035861D03*
X047361Y035861D03*
X047361Y036861D03*
X047361Y037861D03*
X047361Y034861D03*
X048361Y034861D03*
D19*
X043611Y026236D03*
D20*
G36*
X038729Y026742D02*
X038284Y027187D01*
X038785Y027688D01*
X039230Y027243D01*
X038729Y026742D01*
G37*
G36*
X037937Y027534D02*
X037492Y027979D01*
X037993Y028480D01*
X038438Y028035D01*
X037937Y027534D01*
G37*
D21*
X034736Y027546D03*
X034736Y026426D03*
D22*
X033861Y027986D02*
X034236Y028361D01*
X035236Y028361D01*
X035486Y028111D01*
X036486Y028111D01*
X036611Y027986D01*
X035486Y028611D02*
X033986Y028611D01*
X033736Y028361D01*
X033611Y027986D02*
X033861Y027986D01*
X033611Y027986D02*
X033236Y028361D01*
X032736Y029111D02*
X037361Y029111D01*
X038361Y030111D01*
X038361Y037111D02*
X039111Y037861D01*
X047361Y037861D01*
X046736Y038236D02*
X047361Y038861D01*
X046736Y038236D02*
X038986Y038236D01*
X038361Y037611D01*
X046449Y037398D02*
X046736Y037111D01*
X046736Y035486D01*
X047361Y034861D01*
X029361Y040861D02*
X028736Y040236D01*
D23*
X038361Y038111D03*
X038361Y037611D03*
X038361Y037111D03*
X041111Y035361D03*
X041486Y034986D03*
X038361Y030111D03*
X038986Y029548D03*
X037486Y028736D03*
X036611Y027986D03*
X036236Y027361D03*
X035548Y028548D03*
X035361Y029736D03*
X033736Y028361D03*
X033236Y028361D03*
X032736Y028361D03*
X032736Y029111D03*
X032736Y029736D03*
X033736Y027361D03*
X033111Y026986D03*
X035861Y025736D03*
X037361Y025736D03*
X040861Y024486D03*
X041111Y025236D03*
X041111Y025736D03*
X039111Y020236D03*
D24*
X037736Y026986D02*
X033111Y026986D01*
X037736Y026986D02*
X038986Y028236D01*
X038986Y029548D01*
X026467Y029611D02*
X026372Y029603D01*
X026361Y029103D01*
X026369Y029111D01*
X026361Y028861D01*
X026361Y028467D01*
X026467Y027486D01*
D25*
X032736Y028361D02*
X033236Y028861D01*
X037361Y028861D01*
X037486Y028736D01*
D26*
X037944Y027986D02*
X036611Y027986D01*
X038861Y027111D02*
X040111Y027111D01*
X040861Y024486D02*
X041861Y024486D01*
X043611Y026236D01*
X037361Y025736D02*
X035861Y025736D01*
D27*
X036236Y027361D02*
X034801Y027361D01*
X033736Y027361D01*
X032736Y029736D02*
X035361Y029736D01*
X041111Y025736D02*
X041111Y035361D01*
X041486Y034986D02*
X041486Y025611D01*
X041111Y025236D01*
D28*
X040111Y028861D03*
X032111Y031486D03*
X028486Y028861D03*
X027361Y028361D03*
X026361Y028861D03*
X019361Y025111D03*
X015361Y028111D03*
X018611Y032111D03*
X020111Y039361D03*
X023861Y039361D03*
X032861Y038861D03*
X013611Y022611D03*
X019361Y019861D03*
X022611Y016486D03*
X021861Y014611D03*
X026861Y018611D03*
X028361Y014611D03*
X038611Y015861D03*
X040111Y013236D03*
X045986Y019361D03*
X012861Y016611D03*
D29*
X019361Y025111D02*
X019361Y026611D01*
X023111Y030361D01*
X026361Y030361D01*
X028736Y032736D01*
X028736Y040236D01*
X024986Y037736D02*
X024986Y031736D01*
X026361Y030361D01*
X026361Y029103D01*
X026361Y028861D01*
X039111Y020236D02*
X039298Y020048D01*
X040173Y020048D01*
X044861Y012486D02*
X044236Y011861D01*
D30*
X030111Y030361D03*
X024986Y037736D03*
D31*
X030111Y031861D02*
X031861Y033611D01*
X036361Y033611D01*
X040111Y029861D01*
X040111Y028861D01*
X040111Y027111D01*
X040111Y020111D01*
X040173Y020048D01*
X040861Y019361D01*
X045986Y019361D01*
X038611Y015861D02*
X036986Y015861D01*
X026361Y026486D01*
X026361Y028861D01*
X030111Y030361D02*
X030111Y031261D01*
X030111Y031861D01*
X035717Y033755D02*
X035717Y038361D01*
X035217Y038861D01*
X032861Y038861D01*
M02*
