%
M48
M72
T01C0.0236
T02C0.0320
T03C0.0354
T04C0.0394
T05C0.0400
T06C0.0433
T07C0.0787
%
T01
X33111Y26986
X33736Y27361
X33736Y28361
X33236Y28361
X32736Y28361
X32736Y29111
X32736Y29736
X35361Y29736
X35548Y28548
X36611Y27986
X36236Y27361
X37486Y28736
X38361Y30111
X38986Y29548
X37361Y25736
X35861Y25736
X40861Y24486
X41111Y25236
X41111Y25736
X39111Y20236
X41486Y34986
X41111Y35361
X38361Y37111
X38361Y37611
X38361Y38111
T02
X43611Y26236
T03
X31861Y13361
X30861Y13361
X25611Y13361
X24611Y13361
X19111Y13361
X18111Y13361
X13361Y13361
X13361Y12361
X13361Y18861
X13361Y19861
X13361Y25111
X13361Y26111
X13361Y31611
X13361Y32611
X13361Y37861
X13361Y38861
T04
X24986Y37736
X30111Y30361
T05
X27611Y35236
X29361Y39861
X30361Y39861
X31361Y39861
X32361Y39861
X33361Y39861
X34361Y39861
X35361Y39861
X36361Y39861
X37361Y39861
X38361Y39861
X39361Y39861
X40361Y39861
X40361Y40861
X39361Y40861
X38361Y40861
X37361Y40861
X36361Y40861
X35361Y40861
X34361Y40861
X33361Y40861
X32361Y40861
X31361Y40861
X30361Y40861
X29361Y40861
X47361Y38861
X48361Y38861
X48361Y37861
X48361Y36861
X48361Y35861
X47361Y35861
X47361Y36861
X47361Y37861
X47361Y34861
X48361Y34861
X48361Y11861
X44236Y11861
T06
X40111Y13236
X38611Y15861
X45986Y19361
X40111Y28861
X32111Y31486
X28486Y28861
X27361Y28361
X26361Y28861
X19361Y25111
X15361Y28111
X18611Y32111
X20111Y39361
X23861Y39361
X32861Y38861
X13611Y22611
X19361Y19861
X22611Y16486
X21861Y14611
X26861Y18611
X28361Y14611
X12861Y16611
T07
X11361Y11361
X11361Y15361
X11361Y17861
X11361Y21861
X11361Y24111
X11361Y28111
X11361Y30611
X11361Y34611
X11361Y36861
X11361Y40861
X16111Y11361
X20111Y11361
X22611Y11361
X26611Y11361
X28861Y11361
X32861Y11361
M30
